SplineFontDB: 3.0
FontName: Astloch
FullName: Astloch
FamilyName: Astloch
Weight: Book
Version: 1.000
ItalicAngle: 0
UnderlinePosition: -265
UnderlineWidth: 43
Ascent: 1696
Descent: 352
LayerCount: 2
Layer: 0 1 "Back"  1
Layer: 1 1 "Fore"  0
NeedsXUIDChange: 1
XUID: [1021 298 1767659720 15744921]
FSType: 0
OS2Version: 3
OS2_WeightWidthSlopeOnly: 0
OS2_UseTypoMetrics: 1
CreationTime: 1290498960
ModificationTime: 1297208600
PfmFamily: 17
TTFWeight: 400
TTFWidth: 5
LineGap: 53
VLineGap: 0
Panose: 2 0 5 5 2 0 0 2 0 4
OS2TypoAscent: 0
OS2TypoAOffset: 1
OS2TypoDescent: 0
OS2TypoDOffset: 1
OS2TypoLinegap: 106
OS2WinAscent: 14
OS2WinAOffset: 1
OS2WinDescent: 150
OS2WinDOffset: 1
HheadAscent: 14
HheadAOffset: 1
HheadDescent: -150
HheadDOffset: 1
OS2SubXSize: 418
OS2SubYSize: 418
OS2SubXOff: 0
OS2SubYOff: 586
OS2SupXSize: 418
OS2SupYSize: 418
OS2SupXOff: 0
OS2SupYOff: 586
OS2StrikeYSize: 209
OS2StrikeYPos: 1049
OS2Vendor: '    '
OS2CodePages: 20000111.40000000
OS2UnicodeRanges: 80000003.00000000.00000000.00000000
Lookup: 258 0 0 "'kern' Horizontal Kerning in Latin lookup 0"  {"'kern' Horizontal Kerning in Latin lookup 0 per glyph data 0"  "'kern' Horizontal Kerning in Latin lookup 0 kerning class 1"  } ['kern' ('latn' <'dflt' > ) ]
DEI: 91125
KernClass2: 66+ 69 "'kern' Horizontal Kerning in Latin lookup 0 kerning class 1" 
 20 quotedbl quotesingle
 9 parenleft
 5 comma
 20 hyphen endash emdash
 6 period
 5 slash
 11 bracketleft
 9 backslash
 22 quoteleft quotedblleft
 24 quoteright quotedblright
 27 quotesinglbase quotedblbase
 27 guillemotleft guilsinglleft
 29 guillemotright guilsinglright
 12 questiondown
 50 A Agrave Aacute Acircumflex Atilde Adieresis Aring
 1 B
 10 C Ccedilla
 5 D Eth
 43 E AE Egrave Eacute Ecircumflex Edieresis OE
 1 F
 1 G
 1 H
 37 I Igrave Iacute Icircumflex Idieresis
 1 J
 1 K
 1 L
 1 M
 8 N Ntilde
 53 O Q Ograve Oacute Ocircumflex Otilde Odieresis Oslash
 1 P
 1 R
 1 S
 1 T
 37 U Ugrave Uacute Ucircumflex Udieresis
 3 V W
 1 X
 8 Y Yacute
 1 Z

StartChar: exclam
Encoding: 33 33 2
Width: 408
Flags: HW
LayerCount: 2
Fore
SplineSet
232 1537 m 1,0,-1
 232 419 l 1,1,-1
 182 419 l 1,2,-1
 182 1537 l 1,3,-1
 232 1537 l 1,0,-1
211 -72 m 1,4,-1
 161 -68 l 1,5,-1
 184 230 l 1,6,-1
 234 226 l 1,7,-1
 211 -72 l 1,4,-1
EndSplineSet
EndChar

StartChar: quotedbl
Encoding: 34 34 3
Width: 596
Flags: HW
LayerCount: 2
Fore
SplineSet
419 1567 m 1,0,-1
 469 1567 l 1,1,-1
 469 1027 l 1,2,-1
 419 1027 l 1,3,-1
 419 1567 l 1,0,-1
128 1567 m 1,4,-1
 178 1567 l 1,5,-1
 178 1027 l 1,6,-1
 128 1027 l 1,7,-1
 128 1567 l 1,4,-1
EndSplineSet
EndChar

StartChar: dollar
Encoding: 36 36 4
Width: 914
Flags: HW
LayerCount: 2
Fore
SplineSet
316 1085 m 1,0,-1
 122 899 l 1,1,-1
 324 655 l 1,2,3
 335 662 335 662 352 675 c 2,4,-1
 595 858 l 1,5,6
 645 821 645 821 685.5 758.5 c 128,-1,7
 726 696 726 696 756 630 c 0,8,9
 786 563 786 563 787 485 c 0,10,11
 787 351 787 351 712 231 c 0,12,13
 637 110 637 110 520 33 c 1,14,-1
 520 -86 l 1,15,-1
 470 -86 l 1,16,-1
 470 3 l 1,17,-1
 469 3 l 1,18,19
 456 64 456 64 360 130 c 1,20,-1
 276 186 l 1,21,22
 173 252 173 252 140 301.5 c 128,-1,23
 107 351 107 351 107 396 c 0,24,25
 107 469 107 469 189 547 c 1,26,-1
 220 510 l 1,27,28
 156 448 156 448 156 406 c 128,-1,29
 156 364 156 364 173 336 c 0,30,31
 203 288 203 288 258 254 c 2,32,-1
 348 198 l 2,33,34
 438 142 438 142 470 101 c 1,35,-1
 470 706 l 1,36,-1
 364 627 l 2,37,38
 338 608 338 608 316 590 c 1,39,-1
 54 901 l 1,40,-1
 320 1161 l 1,41,42
 399 1049 399 1049 470 1022 c 1,43,-1
 470 1435 l 1,44,45
 374 1398 374 1398 340 1297 c 0,46,47
 330 1265 330 1265 330 1229 c 1,48,-1
 281 1229 l 1,49,50
 280 1366 280 1366 394 1448 c 0,51,52
 428 1473 428 1473 470 1486 c 1,53,-1
 470 1616 l 1,54,-1
 520 1616 l 1,55,-1
 520 1497 l 1,56,57
 534 1499 534 1499 569.5 1499 c 128,-1,58
 605 1499 605 1499 655.5 1477.5 c 128,-1,59
 706 1456 706 1456 744 1419 c 0,60,61
 824 1340 824 1340 824 1228 c 128,-1,62
 824 1116 824 1116 744 1036 c 128,-1,63
 664 956 664 956 542 956 c 128,-1,64
 420 956 420 956 316 1085 c 1,0,-1
595 797 m 1,65,-1
 520 743 l 1,66,-1
 520 85 l 1,67,68
 672 194 672 194 722 368 c 0,69,70
 738 422 738 422 738 476 c 0,71,72
 738 567 738 567 690 657.5 c 128,-1,73
 642 748 642 748 595 797 c 1,65,-1
637 1433 m 128,-1,75
 596 1450 596 1450 565 1450 c 128,-1,76
 534 1450 534 1450 520 1448 c 1,77,-1
 520 1009 l 1,78,79
 528 1008 528 1008 536 1008 c 2,80,-1
 571 1008 l 2,81,82
 598 1008 598 1008 638.5 1025 c 128,-1,83
 679 1042 679 1042 709 1072 c 0,84,85
 773 1136 773 1136 773 1229 c 256,86,87
 773 1321 773 1321 708 1386 c 0,88,74
 678 1416 678 1416 637 1433 c 128,-1,75
EndSplineSet
EndChar

StartChar: percent
Encoding: 37 37 5
Width: 1414
Flags: HW
LayerCount: 2
Fore
SplineSet
1145 1329 m 1,0,-1
 285 -25 l 1,1,-1
 247 1 l 1,2,-1
 1107 1357 l 1,3,-1
 1145 1329 l 1,0,-1
1160 923 m 1,4,5
 1330 810 1330 810 1330 657 c 2,6,-1
 1330 429 l 2,7,8
 1330 328 1330 328 1279 270 c 0,9,10
 1257 245 1257 245 1221 218 c 2,11,-1
 894 -26 l 1,12,-1
 840 1 l 1,13,-1
 840 524 l 2,14,15
 840 681 840 681 949 763 c 2,16,-1
 1160 923 l 1,4,5
978 722 m 1,17,18
 890 656 890 656 890 524 c 2,19,-1
 890 32 l 1,20,-1
 1193 253 l 2,21,22
 1245 291 1245 291 1263 333.5 c 128,-1,23
 1281 376 1281 376 1281 429 c 2,24,-1
 1281 657 l 2,25,26
 1281 776 1281 776 1160 862 c 1,27,-1
 978 722 l 1,17,18
428 1400 m 1,28,29
 598 1287 598 1287 598 1134 c 2,30,-1
 598 906 l 2,31,32
 598 805 598 805 547 747 c 0,33,34
 525 722 525 722 489 695 c 2,35,-1
 162 451 l 1,36,-1
 108 478 l 1,37,-1
 108 1001 l 2,38,39
 108 1158 108 1158 217 1240 c 2,40,-1
 428 1400 l 1,28,29
246 1199 m 1,41,42
 158 1133 158 1133 158 1001 c 2,43,-1
 158 509 l 1,44,-1
 461 730 l 2,45,46
 513 768 513 768 531 810.5 c 128,-1,47
 549 853 549 853 549 906 c 2,48,-1
 549 1134 l 2,49,50
 549 1253 549 1253 428 1339 c 1,51,-1
 246 1199 l 1,41,42
EndSplineSet
EndChar

StartChar: ampersand
Encoding: 38 38 6
Width: 1053
Flags: HW
LayerCount: 2
Fore
SplineSet
546 1566 m 1,0,1
 716 1453 716 1453 716 1300 c 2,2,-1
 716 1171 l 2,3,4
 716 1016 716 1016 621 943 c 2,5,-1
 341 728 l 1,6,-1
 629 343 l 1,7,8
 874 529 874 529 900 708 c 0,9,10
 908 763 908 763 908 821 c 2,11,-1
 908 993 l 1,12,-1
 958 993 l 1,13,-1
 958 849 l 2,14,15
 958 678 958 678 920.5 597.5 c 128,-1,16
 883 517 883 517 823 449 c 128,-1,17
 763 381 763 381 659 302 c 1,18,-1
 732 205 l 1,19,20
 795 118 795 118 844 84 c 0,21,22
 893 50 893 50 957 50 c 1,23,-1
 957 0 l 1,24,25
 880 0 880 0 819 42 c 0,26,27
 758 84 758 84 670 203 c 1,28,-1
 621 270 l 1,29,-1
 281 0 l 1,30,31
 111 113 111 113 111 266 c 2,32,-1
 111 459 l 2,33,34
 111 616 111 616 220 698 c 2,35,-1
 272 737 l 1,36,37
 178 845 178 845 178 1000 c 2,38,-1
 178 1129 l 2,39,40
 178 1286 178 1286 287 1368 c 1,41,-1
 546 1566 l 1,0,1
666 1300 m 2,42,43
 666 1419 666 1419 546 1505 c 1,44,-1
 316 1327 l 1,45,46
 228 1261 228 1261 228 1129 c 2,47,-1
 228 1000 l 2,48,49
 228 879 228 879 312 770 c 1,50,-1
 578 973 l 2,51,52
 666 1039 666 1039 666 1171 c 2,53,-1
 666 1300 l 2,42,43
161 266 m 2,54,55
 161 147 161 147 281 61 c 1,56,-1
 591 310 l 1,57,-1
 302 698 l 1,58,-1
 249 657 l 1,59,60
 161 591 161 591 161 459 c 2,61,-1
 161 266 l 2,54,55
EndSplineSet
EndChar

StartChar: quotesingle
Encoding: 39 39 7
Width: 306
Flags: HW
LayerCount: 2
Fore
SplineSet
128 1567 m 1,0,-1
 178 1567 l 1,1,-1
 178 1027 l 1,2,-1
 128 1027 l 1,3,-1
 128 1567 l 1,0,-1
EndSplineSet
EndChar

StartChar: parenleft
Encoding: 40 40 8
Width: 497
Flags: HW
LayerCount: 2
Fore
SplineSet
472 -294 m 1,0,1
 292 -126 292 -126 194 124 c 0,2,3
 97 372 97 372 97 644 c 0,4,5
 97 647 97 647 97 650 c 0,6,7
 98 1064 98 1064 308 1382 c 0,8,9
 378 1488 378 1488 474 1575 c 1,10,-1
 508 1537 l 1,11,12
 331 1378 331 1378 239 1144 c 128,-1,13
 147 910 147 910 147 650 c 0,14,15
 147 244 147 244 351 -72 c 0,16,17
 418 -176 418 -176 506 -258 c 1,18,-1
 472 -294 l 1,0,1
EndSplineSet
EndChar

StartChar: parenright
Encoding: 41 41 9
Width: 497
Flags: HW
LayerCount: 2
Fore
SplineSet
-9 -258 m 1,0,1
 162 -98 162 -98 256 143 c 0,2,3
 350 384 350 384 350 650 c 0,4,5
 350 1049 350 1049 148 1352 c 0,6,7
 80 1454 80 1454 -11 1537 c 1,8,-1
 23 1575 l 1,9,10
 208 1408 208 1408 304 1164 c 0,11,12
 400 920 400 920 400 650 c 0,13,14
 400 229 400 229 187 -100 c 0,15,16
 117 -208 117 -208 25 -294 c 1,17,-1
 -9 -258 l 1,0,1
EndSplineSet
EndChar

StartChar: asterisk
Encoding: 42 42 10
Width: 825
Flags: HW
LayerCount: 2
Fore
SplineSet
183 960 m 1,0,1
 155 944 155 944 155 915.5 c 128,-1,2
 155 887 155 887 171 869.5 c 128,-1,3
 187 852 187 852 207.5 852 c 128,-1,4
 228 852 228 852 262 872.5 c 128,-1,5
 296 893 296 893 372 1013 c 1,6,7
 201 1031 201 1031 165 1053 c 0,8,9
 101 1091 101 1091 101 1142.5 c 128,-1,10
 101 1194 101 1194 132.5 1227 c 128,-1,11
 164 1260 164 1260 201 1260 c 128,-1,12
 238 1260 238 1260 264 1245 c 1,13,-1
 240 1201 l 1,14,15
 223 1210 223 1210 204.5 1210 c 128,-1,16
 186 1210 186 1210 168.5 1194 c 128,-1,17
 151 1178 151 1178 151 1149 c 128,-1,18
 151 1120 151 1120 192.5 1096 c 128,-1,19
 234 1072 234 1072 372 1060 c 1,20,21
 303 1193 303 1193 303 1253.5 c 128,-1,22
 303 1314 303 1314 334.5 1345.5 c 128,-1,23
 366 1377 366 1377 400 1377 c 0,24,25
 458 1377 458 1377 489 1345.5 c 128,-1,26
 520 1314 520 1314 519 1268 c 1,27,-1
 469 1268 l 1,28,29
 469 1293 469 1293 452 1310 c 128,-1,30
 435 1327 435 1327 411 1327 c 256,31,32
 387 1327 387 1327 370 1310 c 128,-1,33
 353 1293 353 1293 353 1250.5 c 128,-1,34
 353 1208 353 1208 415 1079 c 1,35,36
 504 1216 504 1216 556 1248 c 1,37,38
 584 1264 584 1264 608 1264 c 0,39,40
 652 1264 652 1264 686 1232 c 128,-1,41
 720 1200 720 1200 720 1165 c 0,42,43
 720 1097 720 1097 669 1065 c 1,44,-1
 643 1107 l 1,45,46
 670 1124 670 1124 670 1152 c 128,-1,47
 670 1180 670 1180 653.5 1197 c 0,48,49
 636 1214 636 1214 616 1214 c 0,50,51
 546 1214 546 1214 448 1053 c 1,52,53
 614 1038 614 1038 654 1015 c 1,54,55
 722 978 722 978 722 914 c 0,56,57
 722 872 722 872 691.5 839 c 128,-1,58
 661 806 661 806 622.5 806 c 128,-1,59
 584 806 584 806 560 821 c 1,60,-1
 584 865 l 1,61,62
 600 856 600 856 619 856 c 128,-1,63
 638 856 638 856 655 872 c 128,-1,64
 672 888 672 888 672 917.5 c 128,-1,65
 672 947 672 947 633.5 969.5 c 128,-1,66
 595 992 595 992 449 1006 c 1,67,68
 519 858 519 858 519 806 c 128,-1,69
 519 754 519 754 487.5 722.5 c 128,-1,70
 456 691 456 691 422 691 c 0,71,72
 365 691 365 691 333.5 722.5 c 128,-1,73
 302 754 302 754 303 799 c 1,74,-1
 353 799 l 1,75,76
 353 775 353 775 370 758 c 128,-1,77
 387 741 387 741 411 741 c 256,78,79
 435 741 435 741 452 757.5 c 128,-1,80
 469 774 469 774 469 818 c 128,-1,81
 469 862 469 862 409 987 c 1,82,83
 312 825 312 825 242 806 c 0,84,85
 226 802 226 802 208 802 c 0,86,87
 168 802 168 802 136 834 c 128,-1,88
 104 866 104 866 105 902 c 1,89,90
 105 970 105 970 157 1002 c 1,91,-1
 183 960 l 1,0,1
EndSplineSet
EndChar

StartChar: plus
Encoding: 43 43 11
Width: 980
Flags: HW
LayerCount: 2
Fore
SplineSet
464 728 m 1,0,-1
 464 1132 l 1,1,-1
 514 1132 l 1,2,-1
 514 728 l 1,3,-1
 920 728 l 1,4,-1
 920 678 l 1,5,-1
 514 678 l 1,6,-1
 514 275 l 1,7,-1
 464 275 l 1,8,-1
 464 678 l 1,9,-1
 60 678 l 1,10,-1
 60 728 l 1,11,-1
 464 728 l 1,0,-1
EndSplineSet
EndChar

StartChar: comma
Encoding: 44 44 12
Width: 373
Flags: HW
LayerCount: 2
Fore
SplineSet
105 -210 m 1,0,1
 154 -156 l 2,2,3
 232 -70 232 -70 232 -3 c 128,-1,4
 232 64 232 64 172 88 c 0,5,6
 152 96 152 96 123 97 c 1,7,-1
 123 147 l 1,8,9
 200 147 200 147 241 105 c 128,-1,10
 282 63 282 63 282 13.5 c 128,-1,11
 282 -36 282 -36 271 -66 c 0,12,13
 249 -126 249 -126 196 -184 c 2,14,-1
 141 -244 l 1,15,-1
 105 -210 l 1,0,1
EndSplineSet
EndChar

StartChar: hyphen
Encoding: 45 45 13
Width: 778
Flags: HW
LayerCount: 2
Fore
SplineSet
145 606 m 1,0,-1
 633 729 l 1,1,-1
 633 679 l 1,2,-1
 145 556 l 1,3,-1
 145 606 l 1,0,-1
EndSplineSet
EndChar

StartChar: period
Encoding: 46 46 14
Width: 313
Flags: HW
LayerCount: 2
Fore
SplineSet
164 -72 m 1,0,-1
 114 -68 l 1,1,-1
 137 230 l 1,2,-1
 187 226 l 1,3,-1
 164 -72 l 1,0,-1
EndSplineSet
EndChar

StartChar: slash
Encoding: 47 47 15
Width: 838
Flags: HW
LayerCount: 2
Fore
SplineSet
766 1563 m 1,0,-1
 93 -211 l 1,1,-1
 45 -197 l 1,2,-1
 719 1581 l 1,3,-1
 766 1563 l 1,0,-1
EndSplineSet
EndChar

StartChar: zero
Encoding: 48 48 16
Width: 826
Flags: HW
LayerCount: 2
Fore
SplineSet
530 1229 m 1,0,1
 700 1116 700 1116 700 963 c 2,2,-1
 700 431 l 2,3,4
 700 274 700 274 591 192 c 2,5,-1
 296 -31 l 1,6,7
 126 82 126 82 126 235 c 2,8,-1
 126 767 l 2,9,10
 126 924 126 924 235 1006 c 2,11,-1
 530 1229 l 1,0,1
650 963 m 2,12,13
 650 1082 650 1082 530 1168 c 1,14,-1
 264 965 l 2,15,16
 176 899 176 899 176 767 c 2,17,-1
 176 235 l 2,18,19
 176 116 176 116 296 30 c 1,20,-1
 562 233 l 2,21,22
 650 299 650 299 650 431 c 2,23,-1
 650 963 l 2,12,13
EndSplineSet
EndChar

StartChar: one
Encoding: 49 49 17
Width: 593
Flags: HW
LayerCount: 2
Fore
SplineSet
320 0 m 1,0,1
 371 122 371 122 375 314 c 0,2,3
 376 368 376 368 376 416 c 2,4,-1
 376 1164 l 1,5,-1
 212 1036 l 2,6,7
 155 992 155 992 122.5 932.5 c 128,-1,8
 90 873 90 873 90 778 c 1,9,-1
 40 778 l 1,10,11
 40 967 40 967 176 1070 c 2,12,-1
 388 1229 l 1,13,-1
 426 1209 l 1,14,-1
 426 416 l 2,15,16
 426 204 426 204 407 116 c 128,-1,17
 388 28 388 28 367 -22 c 1,18,-1
 320 0 l 1,0,1
EndSplineSet
EndChar

StartChar: two
Encoding: 50 50 18
Width: 932
Flags: HW
LayerCount: 2
Fore
SplineSet
158 92 m 1,0,1
 220 114 220 114 285 114 c 0,2,3
 366 114 366 114 496 73 c 0,4,5
 578 47 578 47 633 47 c 0,6,7
 666 47 666 47 690 56 c 0,8,9
 792 94 792 94 792 190 c 0,10,11
 792 242 792 242 758 276 c 128,-1,12
 724 310 724 310 675 311 c 1,13,-1
 675 361 l 1,14,15
 744 361 744 361 793 312 c 128,-1,16
 842 263 842 263 842 206 c 0,17,18
 842 108 842 108 782 52 c 0,19,20
 723 -1 723 -1 632 -1 c 0,21,22
 590 -1 590 -1 540 10 c 0,23,24
 496 20 496 20 458 32 c 2,25,-1
 384 54 l 1,26,27
 341 66 341 66 296 66 c 0,28,29
 230 66 230 66 161 40 c 1,30,31
 164 23 164 23 173 0 c 1,32,-1
 123 0 l 1,33,34
 108 48 108 48 108 98 c 0,35,36
 108 231 108 231 313 380 c 2,37,-1
 432 466 l 1,38,39
 585 575 585 575 642.5 640.5 c 128,-1,40
 700 706 700 706 728 765 c 128,-1,41
 756 824 756 824 756 888 c 0,42,43
 756 1018 756 1018 678 1098 c 128,-1,44
 600 1178 600 1178 461 1179 c 0,45,-1
 459 1178 l 0,46,47
 319 1178 319 1178 234.5 1103.5 c 128,-1,48
 150 1029 150 1029 150 909 c 0,49,50
 150 846 150 846 181.5 810.5 c 0,51,52
 212 775 212 775 246 775 c 0,53,54
 301 775 301 775 335 806 c 0,55,56
 367 837 367 837 367 883 c 1,57,-1
 417 883 l 1,58,59
 416 816 416 816 369.5 770.5 c 128,-1,60
 323 725 323 725 258 725 c 256,61,62
 150 725 150 725 112 831 c 0,63,64
 100 865 100 865 100 923 c 128,-1,65
 100 981 100 981 126.5 1040 c 128,-1,66
 153 1099 153 1099 200 1141 c 0,67,68
 298 1230 298 1230 462 1230 c 0,69,-1
 464 1230 l 0,70,71
 627 1230 627 1230 716 1133 c 0,72,73
 806 1036 806 1036 806 894 c 0,74,75
 806 709 806 709 601 536 c 0,76,77
 543 487 543 487 482 442 c 2,78,-1
 363 354 l 1,79,80
 158 204 158 204 158 93 c 2,81,-1
 158 92 l 1,0,1
EndSplineSet
EndChar

StartChar: three
Encoding: 51 51 19
Width: 924
Flags: HW
LayerCount: 2
Fore
SplineSet
561 504 m 1,0,1
 827 462 827 462 827 208 c 0,2,3
 827 -48 827 -48 412 -240 c 0,4,5
 288 -298 288 -298 144 -352 c 1,6,-1
 126 -306 l 1,7,8
 446 -184 446 -184 588 -84 c 0,9,10
 776 48 776 48 777 212 c 1,11,12
 776 409 776 409 584 448 c 0,13,14
 524 460 524 460 454 461 c 1,15,16
 406 444 406 444 357 431 c 1,17,-1
 343 479 l 1,18,19
 557 538 557 538 667 629 c 128,-1,20
 777 720 777 720 777 873 c 1,21,22
 778 996 778 996 683.5 1087 c 128,-1,23
 589 1178 589 1178 434.5 1178 c 128,-1,24
 280 1178 280 1178 182 1103 c 128,-1,25
 84 1028 84 1028 84 908 c 0,26,27
 84 845 84 845 115.5 809.5 c 0,28,29
 146 774 146 774 180 774 c 0,30,31
 234 774 234 774 267.5 805.5 c 128,-1,32
 301 837 301 837 301 882 c 1,33,-1
 351 882 l 1,34,35
 350 815 350 815 303.5 769.5 c 128,-1,36
 257 724 257 724 192 724 c 256,37,38
 84 724 84 724 46 830 c 0,39,40
 34 864 34 864 34 922 c 128,-1,41
 34 980 34 980 64 1039 c 0,42,43
 96 1098 96 1098 148 1140 c 0,44,45
 258 1228 258 1228 434 1228 c 128,-1,46
 610 1228 610 1228 718 1122 c 128,-1,47
 826 1016 826 1016 827 871 c 0,48,49
 827 681 827 681 674 569 c 0,50,51
 624 533 624 533 561 504 c 1,0,1
EndSplineSet
EndChar

StartChar: four
Encoding: 52 52 20
Width: 888
Flags: HW
LayerCount: 2
Fore
SplineSet
473 1229 m 1,0,1
 662 1147 662 1147 662 963 c 2,2,-1
 662 269 l 1,3,-1
 865 269 l 1,4,-1
 865 219 l 1,5,-1
 661 219 l 1,6,7
 656 -86 656 -86 560 -222 c 0,8,9
 493 -318 493 -318 373 -354 c 1,10,-1
 359 -306 l 1,11,12
 570 -245 570 -245 602 58 c 0,13,14
 610 141 610 141 611 219 c 1,15,-1
 34 219 l 1,16,-1
 34 269 l 2,17,18
 34 351 34 351 80 451 c 1,19,-1
 473 1229 l 1,0,1
612 963 m 2,20,21
 612 1040 612 1040 582 1086.5 c 128,-1,22
 552 1133 552 1133 495 1165 c 1,23,-1
 137 456 l 1,24,-1
 120 418 l 1,25,26
 84 341 84 341 84 269 c 1,27,-1
 612 269 l 1,28,-1
 612 963 l 2,20,21
EndSplineSet
EndChar

StartChar: five
Encoding: 53 53 21
Width: 838
Flags: HW
LayerCount: 2
Fore
SplineSet
362 668 m 2,0,1
 772 668 772 668 772 336 c 0,2,3
 772 18 772 18 314 -216 c 0,4,5
 172 -288 172 -288 4 -352 c 1,6,-1
 -14 -306 l 1,7,8
 507 -130 507 -130 667 141 c 0,9,10
 722 234 722 234 722 323 c 0,11,12
 722 480 722 480 621.5 549 c 128,-1,13
 521 618 521 618 362 618 c 2,14,-1
 59 618 l 1,15,-1
 139 1229 l 1,16,-1
 672 1229 l 1,17,-1
 672 1179 l 1,18,-1
 187 1179 l 1,19,-1
 116 668 l 1,20,-1
 362 668 l 2,0,1
EndSplineSet
EndChar

StartChar: six
Encoding: 54 54 22
Width: 804
Flags: HW
LayerCount: 2
Fore
SplineSet
307 -30 m 1,0,1
 136 84 136 84 136 236 c 2,2,-1
 136 657 l 1,3,-1
 137 1035 l 2,4,5
 137 1272 137 1272 366 1460 c 0,6,7
 439 1520 439 1520 530 1568 c 1,8,-1
 554 1524 l 1,9,10
 290 1384 290 1384 212 1174 c 0,11,12
 186 1106 186 1106 186 1035 c 2,13,-1
 186 818 l 1,14,15
 208 850 208 850 245 878 c 2,16,-1
 536 1095 l 1,17,18
 707 981 707 981 707 829 c 2,19,-1
 707 426 l 2,20,21
 707 269 707 269 598 187 c 2,22,-1
 307 -30 l 1,0,1
274 837 m 1,23,24
 190 772 190 772 186 652 c 1,25,-1
 186 236 l 2,26,27
 186 117 186 117 307 31 c 1,28,-1
 569 228 l 2,29,30
 657 294 657 294 657 426 c 2,31,-1
 657 829 l 2,32,33
 657 948 657 948 536 1034 c 1,34,-1
 274 837 l 1,23,24
EndSplineSet
EndChar

StartChar: seven
Encoding: 55 55 23
Width: 820
Flags: HW
LayerCount: 2
Fore
SplineSet
325 16 m 0,0,1
 305 -86 305 -86 305 -154 c 2,2,-1
 305 -244 l 2,3,4
 305 -266 305 -266 310 -341 c 1,5,-1
 260 -341 l 1,6,7
 255 -261 255 -261 255 -175.5 c 128,-1,8
 255 -90 255 -90 274.5 16 c 128,-1,9
 294 122 294 122 326 212 c 0,10,11
 371 341 371 341 482 530 c 2,12,-1
 567 674 l 1,13,14
 715 927 715 927 725 1178 c 1,15,-1
 332 1178 l 2,16,17
 178 1178 178 1178 96 1092 c 0,18,19
 70 1065 70 1065 46 1032 c 1,20,-1
 6 1062 l 1,21,22
 68 1146 68 1146 120 1175 c 0,23,24
 216 1228 216 1228 332 1228 c 2,25,-1
 775 1228 l 1,26,27
 774 930 774 930 626 668 c 1,28,29
 454 370 l 1,30,31
 362 206 362 206 325 16 c 0,0,1
EndSplineSet
EndChar

StartChar: eight
Encoding: 56 56 24
Width: 880
Flags: HW
LayerCount: 2
Fore
SplineSet
630 943 m 1,0,1
 762 844 762 844 762 705 c 2,2,-1
 762 483 l 2,3,4
 762 326 762 326 653 244 c 2,5,-1
 290 -29 l 1,6,7
 120 84 120 84 120 237 c 2,8,-1
 120 459 l 2,9,10
 120 616 120 616 229 698 c 2,11,-1
 281 737 l 1,12,13
 151 835 151 835 151 975 c 2,14,-1
 151 1104 l 2,15,16
 151 1261 151 1261 260 1343 c 2,17,-1
 555 1566 l 1,18,19
 725 1453 725 1453 725 1300 c 2,20,-1
 725 1171 l 2,21,22
 725 1023 725 1023 630 943 c 1,0,1
712 705 m 2,23,24
 712 824 712 824 592 910 c 1,25,-1
 258 657 l 2,26,27
 170 591 170 591 170 459 c 2,28,-1
 170 237 l 2,29,30
 170 118 170 118 290 32 c 1,31,-1
 624 285 l 2,32,33
 712 351 712 351 712 483 c 2,34,-1
 712 705 l 2,23,24
675 1300 m 2,35,36
 675 1419 675 1419 555 1505 c 1,37,-1
 289 1302 l 2,38,39
 201 1236 201 1236 201 1104 c 2,40,-1
 201 975 l 2,41,42
 201 856 201 856 321 770 c 1,43,-1
 587 973 l 2,44,45
 675 1039 675 1039 675 1171 c 2,46,-1
 675 1300 l 2,35,36
EndSplineSet
EndChar

StartChar: nine
Encoding: 57 57 25
Width: 813
Flags: HW
LayerCount: 2
Fore
SplineSet
518 1228 m 1,0,1
 689 1114 689 1114 689 962 c 2,2,-1
 689 571 l 1,3,-1
 688 180 l 2,4,5
 688 -57 688 -57 459 -245 c 0,6,7
 386 -305 386 -305 295 -353 c 1,8,-1
 271 -309 l 1,9,10
 536 -169 536 -169 614 41 c 0,11,12
 639 106 639 106 639 175 c 0,13,14
 639 178 639 178 639 180 c 1,15,-1
 639 410 l 1,16,17
 617 379 617 379 580 350 c 1,18,-1
 289 133 l 1,19,20
 118 247 118 247 118 399 c 2,21,-1
 118 772 l 2,22,23
 118 929 118 929 227 1011 c 2,24,-1
 518 1228 l 1,0,1
551 391 m 2,25,26
 639 457 639 457 639 589 c 2,27,-1
 639 962 l 2,28,29
 639 1081 639 1081 518 1167 c 1,30,-1
 256 970 l 2,31,32
 168 904 168 904 168 772 c 2,33,-1
 168 399 l 2,34,35
 168 280 168 280 289 194 c 1,36,-1
 551 391 l 2,25,26
EndSplineSet
EndChar

StartChar: colon
Encoding: 58 58 26
Width: 431
Flags: HW
LayerCount: 2
Fore
SplineSet
192 -15 m 1,0,-1
 145 0 l 1,1,-1
 221 182 l 1,2,-1
 282 157 l 1,3,-1
 192 -15 l 1,0,-1
191 730 m 1,4,-1
 144 745 l 1,5,-1
 220 927 l 1,6,-1
 281 902 l 1,7,-1
 191 730 l 1,4,-1
EndSplineSet
EndChar

StartChar: semicolon
Encoding: 59 59 27
Width: 469
Flags: HW
LayerCount: 2
Fore
SplineSet
224 730 m 1,0,-1
 177 745 l 1,1,-1
 253 927 l 1,2,-1
 314 902 l 1,3,-1
 224 730 l 1,0,-1
143 -210 m 1,4,5
 192 -156 l 2,6,7
 270 -70 270 -70 270 -3 c 128,-1,8
 270 64 270 64 210 88 c 0,9,10
 190 96 190 96 161 97 c 1,11,-1
 161 147 l 1,12,13
 238 147 238 147 279 105 c 128,-1,14
 320 63 320 63 320 13.5 c 128,-1,15
 320 -36 320 -36 309 -66 c 0,16,17
 287 -126 287 -126 234 -184 c 2,18,-1
 179 -244 l 1,19,-1
 143 -210 l 1,4,5
EndSplineSet
EndChar

StartChar: less
Encoding: 60 60 28
Width: 765
Flags: HW
LayerCount: 2
Fore
SplineSet
667 -254 m 1,0,-1
 59 668 l 1,1,-1
 669 1569 l 1,2,-1
 711 1541 l 1,3,-1
 119 668 l 1,4,5
 709 -226 l 1,6,-1
 667 -254 l 1,0,-1
EndSplineSet
EndChar

StartChar: equal
Encoding: 61 61 29
Width: 1150
Flags: HW
LayerCount: 2
Fore
SplineSet
145 509 m 1,0,-1
 145 559 l 1,1,-1
 1005 559 l 1,2,-1
 1005 509 l 1,3,-1
 145 509 l 1,0,-1
145 794 m 1,4,-1
 145 844 l 1,5,-1
 1005 844 l 1,6,-1
 1005 794 l 1,7,-1
 145 794 l 1,4,-1
EndSplineSet
EndChar

StartChar: greater
Encoding: 62 62 30
Width: 765
Flags: HW
LayerCount: 2
Fore
SplineSet
56 -226 m 1,0,1
 646 668 l 1,2,-1
 54 1541 l 1,3,-1
 96 1569 l 1,4,-1
 706 668 l 1,5,-1
 98 -254 l 1,6,-1
 56 -226 l 1,0,1
EndSplineSet
EndChar

StartChar: question
Encoding: 63 63 31
Width: 827
Flags: HW
LayerCount: 2
Fore
SplineSet
669 667 m 1,0,1
 669 566 669 566 598 495 c 128,-1,2
 527 424 527 424 426 424 c 256,3,4
 323 424 323 424 253 492 c 128,-1,5
 183 560 183 560 183 666 c 0,6,7
 184 818 184 818 350 916 c 1,8,-1
 544 1024 l 1,9,10
 710 1120 710 1120 710 1266 c 0,11,12
 710 1372 710 1372 625.5 1444 c 128,-1,13
 541 1516 541 1516 415 1516 c 0,14,-1
 413 1517 l 0,15,16
 288 1517 288 1517 200 1441 c 0,17,18
 111 1365 111 1365 111 1244 c 0,19,20
 111 1180 111 1180 142.5 1144.5 c 128,-1,21
 174 1109 174 1109 219 1109 c 1,22,-1
 219 1059 l 1,23,24
 112 1060 112 1060 74 1166 c 0,25,26
 61 1201 61 1201 61 1258 c 0,27,28
 60 1313 60 1313 88 1371 c 0,29,30
 116 1430 116 1430 165 1474 c 0,31,32
 269 1568 269 1568 414 1568 c 0,33,-1
 416 1568 l 0,34,35
 562 1568 562 1568 661 1481.5 c 128,-1,36
 760 1395 760 1395 760 1266 c 0,37,38
 760 1101 760 1101 594 996 c 0,39,40
 546 966 546 966 496 939 c 2,41,-1
 400 886 l 1,42,43
 234 793 234 793 233 666 c 1,44,45
 234 580 234 580 290 527 c 128,-1,46
 346 474 346 474 426 474 c 256,47,48
 507 474 507 474 563 531 c 128,-1,49
 619 588 619 588 619 667 c 1,50,-1
 669 667 l 1,0,1
448 -72 m 1,51,-1
 398 -68 l 1,52,-1
 421 230 l 1,53,-1
 471 226 l 1,54,-1
 448 -72 l 1,51,-1
EndSplineSet
EndChar

StartChar: at
Encoding: 64 64 32
Width: 1546
Flags: HW
LayerCount: 2
Fore
SplineSet
1040 155 m 1,0,1
 911 101 911 101 769.5 101 c 128,-1,2
 628 101 628 101 502 155.5 c 128,-1,3
 376 210 376 210 281.5 304.5 c 128,-1,4
 187 399 187 399 132.5 525 c 128,-1,5
 78 651 78 651 78 795 c 256,6,7
 78 939 78 939 132.5 1065 c 128,-1,8
 187 1191 187 1191 281.5 1285.5 c 128,-1,9
 376 1380 376 1380 502 1434.5 c 128,-1,10
 628 1489 628 1489 772 1489 c 256,11,12
 916 1489 916 1489 1042 1434.5 c 128,-1,13
 1168 1380 1168 1380 1262.5 1285.5 c 128,-1,14
 1357 1191 1357 1191 1411.5 1065 c 128,-1,15
 1466 939 1466 939 1466 827 c 0,16,17
 1466 474 1466 474 1215 262 c 1,18,19
 1120 265 1120 265 1046.5 311 c 128,-1,20
 973 357 973 357 945 409 c 128,-1,21
 917 461 917 461 907 518 c 1,22,-1
 641 317 l 1,23,24
 520 339 520 339 476 434 c 0,25,26
 460 468 460 468 460 514 c 2,27,-1
 460 806 l 2,28,29
 460 995 460 995 596 1098 c 2,30,-1
 913 1338 l 1,31,-1
 950 1318 l 1,32,-1
 950 592 l 2,33,34
 950 373 950 373 1162 317 c 0,35,36
 1181 312 1181 312 1198 312 c 1,37,38
 1299 401 1299 401 1357.5 525.5 c 128,-1,39
 1416 650 1416 650 1416 789 c 128,-1,40
 1416 928 1416 928 1365.5 1045.5 c 128,-1,41
 1315 1163 1315 1163 1227.5 1250.5 c 128,-1,42
 1140 1338 1140 1338 1022.5 1388.5 c 128,-1,43
 905 1439 905 1439 772 1439 c 256,44,45
 639 1439 639 1439 521.5 1388.5 c 128,-1,46
 404 1338 404 1338 316.5 1250.5 c 128,-1,47
 229 1163 229 1163 178.5 1045.5 c 128,-1,48
 128 928 128 928 128 795 c 256,49,50
 128 662 128 662 178.5 544.5 c 128,-1,51
 229 427 229 427 316.5 339.5 c 128,-1,52
 404 252 404 252 521.5 201.5 c 128,-1,53
 639 151 639 151 769.5 151 c 128,-1,54
 900 151 900 151 1021 201 c 1,55,-1
 1040 155 l 1,0,1
510 514 m 2,56,57
 510 403 510 403 626 371 c 1,58,-1
 901 578 l 1,59,-1
 901 1273 l 1,60,-1
 632 1064 l 2,61,62
 575 1020 575 1020 542.5 960.5 c 128,-1,63
 510 901 510 901 510 806 c 2,64,-1
 510 514 l 2,56,57
EndSplineSet
EndChar

StartChar: A
Encoding: 65 65 33
Width: 1434
Flags: HW
LayerCount: 2
Fore
SplineSet
788 634 m 1,0,-1
 907 524 l 1,1,-1
 1095 666 l 1,2,-1
 1095 1118 l 2,3,4
 1095 1425 1095 1425 1257 1529 c 0,5,6
 1316 1567 1316 1567 1403 1567 c 1,7,-1
 1403 1518 l 1,8,9
 1267 1518 1267 1518 1206 1404 c 128,-1,10
 1145 1290 1145 1290 1145 1118 c 2,11,-1
 1145 344 l 2,12,13
 1145 180 1145 180 1271 76 c 0,14,15
 1309 44 1309 44 1353 16 c 1,16,-1
 1325 -25 l 1,17,18
 1213 51 1213 51 1172 106 c 0,19,20
 1095 212 1095 212 1095 338 c 2,21,-1
 1095 607 l 1,22,-1
 905 459 l 1,23,-1
 758 594 l 1,24,25
 629 430 629 430 570 363 c 1,26,-1
 458 240 l 1,27,-1
 354 135 l 1,28,29
 246 32 246 32 164 -24 c 1,30,-1
 127 11 l 1,31,32
 310 148 310 148 508 365 c 0,33,34
 827 713 827 713 939 988 c 0,35,36
 977 1081 977 1081 977 1152 c 0,37,38
 977 1296 977 1296 856 1406.5 c 128,-1,39
 735 1517 735 1517 574.5 1517 c 128,-1,40
 414 1517 414 1517 338 1447.5 c 128,-1,41
 262 1378 262 1378 262 1300.5 c 128,-1,42
 262 1223 262 1223 286 1176 c 0,43,44
 324 1099 324 1099 420 1026 c 0,45,46
 460 994 460 994 495 958 c 0,47,48
 577 872 577 872 577 748 c 128,-1,49
 577 624 577 624 478 560 c 0,50,51
 404 512 404 512 326 512 c 0,52,53
 324 512 324 512 323 511 c 0,54,55
 195 511 195 511 128 576 c 0,56,57
 59 642 59 642 59 737 c 0,58,59
 59 830 59 830 125 895 c 0,60,61
 191 961 191 961 284 961 c 1,62,-1
 284 911 l 1,63,64
 212 911 212 911 160.5 859.5 c 128,-1,65
 109 808 109 808 109 733 c 0,66,67
 109 661 109 661 163 611 c 128,-1,68
 217 561 217 561 298 561 c 0,69,70
 300 561 300 561 301 561 c 0,71,72
 444 562 444 562 504 666 c 0,73,74
 528 705 528 705 528 762 c 0,75,76
 528 822 528 822 504 862 c 128,-1,77
 480 902 480 902 445 935.5 c 0,78,79
 410 970 410 970 370 1002 c 0,80,81
 212 1128 212 1128 212 1291 c 0,82,83
 212 1396 212 1396 302.5 1481 c 0,84,85
 394 1566 394 1566 570 1566 c 0,86,-1
 571 1567 l 0,87,88
 747 1568 747 1568 886 1448 c 0,89,90
 1026 1328 1026 1328 1026 1146 c 128,-1,91
 1026 964 1026 964 788 634 c 1,0,-1
EndSplineSet
EndChar

StartChar: B
Encoding: 66 66 34
Width: 1758
Flags: HW
LayerCount: 2
Fore
SplineSet
326 441.5 m 128,-1,1
 376 459 376 459 438.5 459 c 128,-1,2
 501 459 501 459 561 432 c 1,3,-1
 686 562 l 1,4,5
 897 790 897 790 897 1050 c 0,6,7
 896 1227 896 1227 792 1371 c 0,8,9
 688 1516 688 1516 552 1516 c 0,10,-1
 551 1517 l 0,11,12
 416 1516 416 1516 346 1446 c 128,-1,13
 276 1376 276 1376 276 1299.5 c 128,-1,14
 276 1223 276 1223 300 1176 c 0,15,16
 338 1099 338 1099 434 1026 c 0,17,18
 474 994 474 994 509 958 c 0,19,20
 591 872 591 872 591 748 c 128,-1,21
 591 624 591 624 492 560 c 0,22,23
 418 512 418 512 340 512 c 0,24,25
 338 512 338 512 337 511 c 0,26,27
 209 511 209 511 142 576 c 0,28,29
 73 642 73 642 73 737 c 0,30,31
 73 830 73 830 139 895 c 0,32,33
 205 961 205 961 298 961 c 1,34,-1
 298 911 l 1,35,36
 226 911 226 911 174.5 859.5 c 128,-1,37
 123 808 123 808 123 733 c 0,38,39
 123 661 123 661 177 611 c 128,-1,40
 231 561 231 561 312 561 c 0,41,42
 314 561 314 561 315 561 c 0,43,44
 458 562 458 562 518 666 c 0,45,46
 542 705 542 705 542 762 c 0,47,48
 542 822 542 822 518 862 c 128,-1,49
 494 902 494 902 459 935.5 c 0,50,51
 424 970 424 970 384 1002 c 0,52,53
 226 1128 226 1128 226 1291 c 0,54,55
 226 1392 226 1392 309.5 1479 c 128,-1,56
 393 1566 393 1566 541 1567 c 1,57,58
 660 1566 660 1566 759.5 1477.5 c 128,-1,59
 859 1389 859 1389 910 1252 c 1,60,61
 960 1567 960 1567 1169 1567 c 1,62,-1
 1171 1567 l 0,63,64
 1274 1567 1274 1567 1336 1440 c 2,65,-1
 1402 1304 l 1,66,67
 1457 1196 1457 1196 1528 1196 c 0,68,69
 1624 1196 1624 1196 1658 1322 c 1,70,-1
 1706 1310 l 1,71,72
 1676 1195 1676 1195 1584 1153 c 2,73,-1
 1303 1024 l 1,74,75
 1426 938 1426 938 1492 851 c 0,76,77
 1626 672 1626 672 1626 481 c 128,-1,78
 1626 290 1626 290 1492 145 c 128,-1,79
 1358 0 1358 0 1140 0 c 128,-1,80
 922 0 922 0 790 142 c 1,81,-1
 664 288 l 1,82,83
 556 408 556 408 430 409 c 0,84,85
 428 409 428 409 427 409 c 0,86,87
 335 409 335 409 270 350 c 0,88,89
 204 290 204 290 204 181 c 0,90,91
 204 120 204 120 235.5 85 c 0,92,93
 266 50 266 50 300 50 c 0,94,95
 354 50 354 50 387.5 81.5 c 128,-1,96
 421 113 421 113 421 158 c 1,97,-1
 471 158 l 1,98,99
 470 91 470 91 423.5 45.5 c 128,-1,100
 377 0 377 0 312 0 c 256,101,102
 204 0 204 0 166 105 c 0,103,104
 154 139 154 139 154 195 c 128,-1,105
 154 251 154 251 177 303 c 128,-1,106
 200 355 200 355 238 389.5 c 128,-1,0
 276 424 276 424 326 441.5 c 128,-1,1
917 846 m 1,107,108
 864 680 864 680 702 505 c 1,109,-1
 607 406 l 1,110,111
 670 366 670 366 758 256 c 0,112,113
 838 156 838 156 915 103 c 128,-1,114
 992 50 992 50 1114 50 c 0,115,116
 1335 50 1335 50 1455.5 180 c 128,-1,117
 1576 310 1576 310 1576 490 c 0,118,119
 1576 754 1576 754 1308 958 c 0,120,121
 1274 984 1274 984 1249 999 c 1,122,-1
 917 846 l 1,107,108
1169 1517 m 0,123,124
 947 1517 947 1517 947 1052 c 0,125,126
 947 977 947 977 933 909 c 1,127,-1
 1471 1156 l 1,128,129
 1406 1180 1406 1180 1354 1286 c 1,130,-1
 1296 1408 l 1,131,132
 1241 1517 1241 1517 1169 1517 c 0,123,124
EndSplineSet
EndChar

StartChar: C
Encoding: 67 67 35
Width: 1495
Flags: HW
LayerCount: 2
Fore
SplineSet
1194 1240 m 0,0,1
 1044 1240 1044 1240 973 1388 c 1,2,-1
 973 1305 l 1,3,4
 972 1180 972 1180 832 1078 c 1,5,-1
 662 959 l 1,6,7
 510 849 510 849 510 698.5 c 128,-1,8
 510 548 510 548 646 488 c 0,9,10
 693 467 693 467 761 467 c 0,11,12
 764 467 764 467 767 467 c 1,13,-1
 767 417 l 1,14,15
 765 417 765 417 764 417 c 0,16,17
 607 417 607 417 527 510 c 0,18,19
 460 587 460 587 460 705 c 0,20,21
 460 874 460 874 627 996 c 1,22,-1
 796 1114 l 1,23,24
 924 1205 924 1205 923 1305 c 1,25,-1
 923 1484 l 1,26,27
 848 1509 848 1509 732 1509 c 128,-1,28
 616 1509 616 1509 508.5 1457 c 128,-1,29
 401 1405 401 1405 319 1308 c 0,30,31
 140 1096 140 1096 140 775 c 128,-1,32
 140 454 140 454 306 246 c 0,33,34
 418 106 418 106 592 50 c 0,35,36
 680 22 680 22 774.5 22 c 128,-1,37
 869 22 869 22 942.5 43 c 128,-1,38
 1016 64 1016 64 1078 98 c 0,39,40
 1190 161 1190 161 1268 255.5 c 128,-1,41
 1346 350 1346 350 1380 436 c 1,42,-1
 1426 418 l 1,43,44
 1366 266 1366 266 1223 138 c 0,45,46
 1037 -28 1037 -28 801.5 -28 c 128,-1,47
 566 -28 566 -28 409 78.5 c 128,-1,48
 252 185 252 185 171 363.5 c 128,-1,49
 90 542 90 542 90 743.5 c 128,-1,50
 90 945 90 945 141.5 1094 c 128,-1,51
 193 1243 193 1243 280.5 1346.5 c 128,-1,52
 368 1450 368 1450 485 1504.5 c 128,-1,53
 602 1559 602 1559 724.5 1559 c 128,-1,54
 847 1559 847 1559 906.5 1539.5 c 128,-1,55
 966 1520 966 1520 985 1505 c 1,56,57
 1040 1290 1040 1290 1193.5 1290 c 128,-1,58
 1347 1290 1347 1290 1386 1473 c 1,59,-1
 1434 1463 l 1,60,61
 1388 1240 1388 1240 1194 1240 c 0,0,1
EndSplineSet
EndChar

StartChar: D
Encoding: 68 68 36
Width: 1686
Flags: HW
LayerCount: 2
Fore
SplineSet
790 1510 m 1,0,1
 738 1518 738 1518 647 1518 c 128,-1,2
 556 1518 556 1518 454 1487 c 128,-1,3
 352 1456 352 1456 282 1402 c 0,4,5
 136 1291 136 1291 136 1129 c 0,6,7
 136 1025 136 1025 198 949.5 c 128,-1,8
 260 874 260 874 372 874 c 1,9,-1
 372 824 l 1,10,11
 238 824 238 824 162 916 c 128,-1,12
 86 1008 86 1008 86 1114 c 0,13,14
 86 1315 86 1315 248.5 1441.5 c 128,-1,15
 411 1568 411 1568 672.5 1568 c 128,-1,16
 934 1568 934 1568 1146.5 1435.5 c 128,-1,17
 1359 1303 1359 1303 1481.5 1097 c 128,-1,18
 1604 891 1604 891 1604 680 c 0,19,20
 1604 405 1604 405 1449 206 c 0,21,22
 1350 78 1350 78 1202 26 c 0,23,24
 1127 0 1127 0 1057 0 c 0,25,26
 948 0 948 0 852 64 c 0,27,28
 784 108 784 108 724 172 c 0,29,30
 619 282 619 282 549 328 c 128,-1,31
 479 374 479 374 416 374 c 0,32,33
 304 374 304 374 235 318 c 0,34,35
 165 261 165 261 165 167 c 0,36,37
 166 116 166 116 196 84 c 0,38,39
 228 50 228 50 262 50 c 0,40,41
 318 50 318 50 351 81.5 c 128,-1,42
 384 113 384 113 384 158 c 1,43,-1
 434 158 l 1,44,45
 434 91 434 91 387.5 45.5 c 128,-1,46
 341 0 341 0 275 0 c 256,47,48
 208 0 208 0 161.5 48 c 128,-1,49
 115 96 115 96 115 163 c 0,50,51
 115 287 115 287 200 355.5 c 128,-1,52
 285 424 285 424 409.5 424 c 128,-1,53
 534 424 534 424 660 308 c 0,54,55
 697 274 697 274 732 238 c 2,56,-1
 802 168 l 1,57,58
 922 50 922 50 1040 50 c 0,59,60
 1040 50 l 0,61,62
 1267 51 1267 51 1410.5 237.5 c 128,-1,63
 1554 424 1554 424 1554 686.5 c 128,-1,64
 1554 949 1554 949 1354 1192 c 128,-1,65
 1154 1435 1154 1435 852 1500 c 1,66,-1
 479 1144 l 1,67,68
 488 1082 488 1082 587 978 c 1,69,-1
 640 920 l 1,70,71
 734 815 734 815 735 703 c 0,72,73
 735 594 735 594 664 538 c 128,-1,74
 593 482 593 482 512 482 c 0,75,-1
 511 482 l 0,76,77
 430 482 430 482 379 527 c 128,-1,78
 328 572 328 572 328 641 c 256,79,80
 328 706 328 706 373.5 753 c 128,-1,81
 419 800 419 800 486 800 c 1,82,-1
 486 750 l 1,83,84
 440 750 440 750 409 717.5 c 128,-1,85
 378 685 378 685 378 640.5 c 128,-1,86
 378 596 378 596 412 564.5 c 128,-1,87
 446 533 446 533 491 533 c 0,88,89
 574 533 574 533 629.5 576 c 128,-1,90
 685 619 685 619 685 709 c 128,-1,91
 685 799 685 799 599 892 c 2,92,-1
 505 994 l 1,93,94
 429 1079 429 1079 429 1164 c 1,95,-1
 790 1510 l 1,0,1
EndSplineSet
EndChar

StartChar: E
Encoding: 69 69 37
Width: 1481
Flags: HW
LayerCount: 2
Fore
SplineSet
596 684 m 1,0,1
 556 628 556 628 556 570 c 0,2,3
 556 468 556 468 613.5 414 c 128,-1,4
 671 360 671 360 769.5 360 c 128,-1,5
 868 360 868 360 926 430 c 128,-1,6
 984 500 984 500 985 577 c 0,7,8
 985 650 985 650 962 694 c 0,9,10
 939 740 939 740 896 782.5 c 0,11,12
 852 824 852 824 772 870 c 0,13,14
 623 954 623 954 581 996 c 0,15,16
 512 1063 512 1063 512 1141.5 c 128,-1,17
 512 1220 512 1220 552 1272 c 2,18,-1
 574 1301 l 1,19,20
 607 1341 607 1341 612.5 1368 c 0,21,22
 618 1394 618 1394 618 1416 c 0,23,24
 618 1458 618 1458 584 1488 c 1,25,26
 549 1516 549 1516 490.5 1516 c 128,-1,27
 432 1516 432 1516 370 1471 c 128,-1,28
 308 1426 308 1426 258 1334 c 0,29,30
 148 1130 148 1130 148 775 c 128,-1,31
 148 420 148 420 335 223 c 0,32,33
 500 49 500 49 732.5 49 c 128,-1,34
 965 49 965 49 1132 196 c 0,35,36
 1262 310 1262 310 1335 500 c 1,37,-1
 1381 482 l 1,38,39
 1258 159 1258 159 976 43 c 0,40,41
 869 -1 869 -1 761.5 -1 c 128,-1,42
 654 -1 654 -1 578 19 c 0,43,44
 502 38 502 38 432 80 c 0,45,46
 281 170 281 170 189.5 345 c 128,-1,47
 98 520 98 520 98 748.5 c 128,-1,48
 98 977 98 977 133 1125.5 c 128,-1,49
 168 1274 168 1274 224.5 1372 c 128,-1,50
 281 1470 281 1470 352 1518 c 128,-1,51
 423 1566 423 1566 478 1566 c 0,52,53
 570 1566 570 1566 619 1523 c 128,-1,54
 668 1480 668 1480 668 1417 c 2,55,-1
 668 1416 l 1,56,-1
 772 1545 l 1,57,58
 857 1291 857 1291 1026 1291 c 1,59,-1
 1029 1291 l 0,60,61
 1125 1290 1125 1290 1181 1360 c 0,62,63
 1238 1430 1238 1430 1238 1541 c 1,64,-1
 1288 1541 l 1,65,66
 1288 1336 1288 1336 1136 1264 c 0,67,68
 1088 1241 1088 1241 1030 1241 c 0,69,70
 929 1241 929 1241 859 1299.5 c 128,-1,71
 789 1358 789 1358 753 1443 c 1,72,-1
 624 1283 l 2,73,74
 622 1279 622 1279 619 1276 c 128,-1,75
 616 1273 616 1273 606 1260 c 0,76,77
 562 1206 562 1206 562 1158 c 128,-1,78
 562 1110 562 1110 578 1080 c 0,79,80
 609 1024 609 1024 684 979 c 1,81,-1
 757 937 l 1,82,83
 879 869 879 869 936 817 c 1,84,85
 970 918 970 918 1001 959 c 0,86,87
 1062 1038 1062 1038 1141 1038 c 256,88,89
 1200 1038 1200 1038 1240.5 1003 c 128,-1,90
 1281 968 1281 968 1303 968 c 0,91,92
 1362 968 1362 968 1362 1092 c 1,93,-1
 1412 1092 l 1,94,95
 1412 1012 1412 1012 1397 980 c 0,96,97
 1368 918 1368 918 1303 918 c 0,98,99
 1266 918 1266 918 1236.5 942 c 128,-1,100
 1207 966 1207 966 1188 977 c 128,-1,101
 1169 988 1169 988 1138 988 c 0,102,103
 1081 988 1081 988 1042.5 929 c 128,-1,104
 1004 870 1004 870 975 774 c 1,105,106
 1035 694 1035 694 1035 587 c 128,-1,107
 1035 480 1035 480 963 395 c 128,-1,108
 891 310 891 310 770 310 c 128,-1,109
 649 310 649 310 577.5 377.5 c 128,-1,110
 506 445 506 445 506 543 c 128,-1,111
 506 641 506 641 558 713 c 1,112,-1
 596 684 l 1,0,1
EndSplineSet
EndChar

StartChar: F
Encoding: 70 70 38
Width: 1444
Flags: HW
LayerCount: 2
Fore
SplineSet
1303 804 m 0,0,1
 1303 884 1303 884 1248 930 c 1,2,-1
 1277 969 l 1,3,4
 1328 927 1328 927 1347 849 c 0,5,6
 1352 829 1352 829 1352 808 c 0,7,8
 1352 759 1352 759 1320 728.5 c 128,-1,9
 1288 698 1288 698 1251.5 698 c 128,-1,10
 1215 698 1215 698 1195 711 c 128,-1,11
 1175 724 1175 724 1142 750 c 128,-1,12
 1109 776 1109 776 1075 776 c 0,13,14
 1013 776 1013 776 971 692 c 0,15,16
 942 634 942 634 914 506 c 1,17,-1
 944 475 l 2,18,19
 1040 376 1040 376 1069 327 c 1,20,21
 1126 235 1126 235 1126 154 c 0,22,23
 1126 -16 1126 -16 1012.5 -127.5 c 128,-1,24
 899 -239 899 -239 714.5 -239 c 128,-1,25
 530 -239 530 -239 409 -136 c 0,26,27
 289 -34 289 -34 289 123 c 0,28,29
 289 207 289 207 314 254.5 c 128,-1,30
 339 302 339 302 359 328 c 1,31,-1
 400 378 l 1,32,33
 500 494 500 494 500 594 c 128,-1,34
 500 694 500 694 446 741 c 0,35,36
 393 788 393 788 317 788 c 0,37,-1
 316 788 l 0,38,39
 238 788 238 788 200 757 c 128,-1,40
 162 726 162 726 162 684 c 128,-1,41
 162 642 162 642 188.5 616.5 c 128,-1,42
 215 591 215 591 252 591 c 1,43,-1
 252 542 l 1,44,45
 161 542 161 542 124 625 c 0,46,47
 113 650 113 650 113 679 c 0,48,49
 113 747 113 747 163 791 c 128,-1,50
 213 835 213 835 313 835 c 0,51,-1
 315 835 l 0,52,53
 474 835 474 835 530 708 c 1,54,55
 551 661 551 661 551 606 c 0,56,57
 552 565 552 565 540 520 c 0,58,59
 520 445 520 445 456 367 c 1,60,-1
 402 302 l 1,61,62
 337 219 337 219 337 135 c 0,63,64
 337 -14 337 -14 443 -101 c 0,65,66
 549 -190 549 -190 713.5 -190 c 128,-1,67
 878 -190 878 -190 978 -92 c 128,-1,68
 1078 6 1078 6 1078 155 c 0,69,70
 1078 262 1078 262 986 364 c 1,71,-1
 874 484 l 1,72,73
 776 594 776 594 776 715 c 0,74,75
 776 928 776 928 938 1065 c 0,76,77
 986 1106 986 1106 1042 1145 c 1,78,79
 979 1162 979 1162 919 1204.5 c 128,-1,80
 859 1247 859 1247 797 1297 c 1,81,-1
 798 1297 l 1,82,-1
 716 1360 l 1,83,84
 570 1469 570 1469 475 1469 c 0,85,86
 307 1469 307 1469 222.5 1380.5 c 128,-1,87
 138 1292 138 1292 138 1169 c 0,88,89
 138 1002 138 1002 266 949 c 0,90,91
 304 933 304 933 358 933 c 0,92,93
 473 933 473 933 546.5 990.5 c 128,-1,94
 620 1048 620 1048 621 1141 c 1,95,-1
 670 1141 l 1,96,97
 670 1024 670 1024 582 954 c 128,-1,98
 494 884 494 884 364 884 c 128,-1,99
 234 884 234 884 162 961 c 128,-1,100
 90 1038 90 1038 90 1175.5 c 128,-1,101
 90 1313 90 1313 186 1415.5 c 128,-1,102
 282 1518 282 1518 462 1518 c 0,103,104
 577 1518 577 1518 740 1400 c 1,105,-1
 900 1282 l 2,106,107
 1034 1184 1034 1184 1108 1184 c 0,108,109
 1262 1184 1262 1184 1318 1278 c 0,110,111
 1338 1312 1338 1312 1338 1354 c 0,112,113
 1338 1432 1338 1432 1295 1475 c 128,-1,114
 1252 1518 1252 1518 1192.5 1518 c 128,-1,115
 1133 1518 1133 1518 1096 1480 c 128,-1,116
 1059 1442 1059 1442 1059 1388 c 1,117,-1
 1010 1388 l 1,118,119
 1010 1462 1010 1462 1060.5 1514.5 c 128,-1,120
 1111 1567 1111 1567 1171 1567 c 0,121,122
 1277 1566 1277 1566 1333 1508 c 0,123,124
 1388 1450 1388 1450 1388 1378 c 0,125,126
 1388 1253 1388 1253 1305 1195 c 0,127,128
 1224 1137 1224 1137 1112 1135 c 1,129,130
 964 1034 964 1034 917 976 c 0,131,132
 825 863 825 863 825 715 c 0,133,134
 825 636 825 636 876 557 c 1,135,136
 904 682 904 682 936 732 c 0,137,138
 995 825 995 825 1076 825 c 0,139,140
 1130 825 1130 825 1177 786 c 128,-1,141
 1224 747 1224 747 1244.5 747 c 128,-1,142
 1265 747 1265 747 1284 764.5 c 128,-1,143
 1303 782 1303 782 1303 804 c 0,0,1
EndSplineSet
EndChar

StartChar: G
Encoding: 71 71 39
Width: 1675
Flags: HW
LayerCount: 2
Fore
SplineSet
919 1500 m 1,0,1
 1034 1568 1034 1568 1158 1568 c 1,2,-1
 1158 1518 l 1,3,4
 1051 1518 1051 1518 957 1465 c 1,5,6
 1053 1361 1053 1361 1053 1180 c 1,7,-1
 1003 1180 l 1,8,9
 1003 1346 1003 1346 914 1437 c 1,10,11
 787 1343 787 1343 787 1214 c 0,12,13
 787 1083 787 1083 880 960 c 1,14,-1
 949 872 l 2,15,16
 956 863 956 863 964 854 c 1,17,-1
 1582 1334 l 1,18,-1
 1610 1296 l 1,19,-1
 1364 1105 l 1,20,21
 1565 904 1565 904 1565 629 c 0,22,23
 1564 352 1564 352 1378 176 c 128,-1,24
 1192 0 1192 0 876 0 c 0,25,26
 488 0 488 0 277 241 c 0,27,28
 88 457 88 457 88 768 c 0,29,30
 88 980 88 980 169 1164.5 c 128,-1,31
 250 1349 250 1349 390.5 1458.5 c 128,-1,32
 531 1568 531 1568 680.5 1568 c 128,-1,33
 830 1568 830 1568 919 1500 c 1,0,1
875 1470 m 1,34,35
 804 1518 804 1518 711.5 1518 c 128,-1,36
 619 1518 619 1518 547 1490.5 c 0,37,38
 474 1464 474 1464 412 1414 c 0,39,40
 287 1315 287 1315 212.5 1142.5 c 128,-1,41
 138 970 138 970 138 769 c 0,42,43
 138 485 138 485 314 280 c 0,44,45
 512 50 512 50 875 50 c 0,46,47
 1169 50 1169 50 1342 213.5 c 128,-1,48
 1515 377 1515 377 1515 631 c 128,-1,49
 1515 885 1515 885 1325 1075 c 1,50,-1
 992 816 l 1,51,52
 1119 638 1119 638 1119 496 c 0,53,54
 1118 354 1118 354 1050 284 c 0,55,56
 982 215 982 215 881 215 c 0,57,58
 880 215 880 215 878 215 c 256,59,60
 786 216 786 216 733 265.5 c 128,-1,61
 680 315 680 315 680 386 c 256,62,63
 680 450 680 450 725.5 497 c 128,-1,64
 771 544 771 544 838 545 c 1,65,-1
 838 495 l 1,66,67
 837 495 837 495 835 495 c 0,68,69
 791 496 791 496 761 464 c 0,70,71
 730 432 730 432 730 397 c 0,72,73
 730 339 730 339 769.5 302 c 128,-1,74
 809 265 809 265 863 265 c 0,75,76
 960 265 960 265 1014.5 321.5 c 128,-1,77
 1069 378 1069 378 1069 486 c 0,78,79
 1069 647 1069 647 897 858 c 1,80,-1
 838 933 l 1,81,82
 737 1065 737 1065 737 1213 c 128,-1,83
 737 1361 737 1361 875 1470 c 1,34,35
EndSplineSet
EndChar

StartChar: H
Encoding: 72 72 40
Width: 1408
Flags: HW
LayerCount: 2
Fore
SplineSet
687 733 m 1,0,1
 728 654 728 654 728 564 c 0,2,3
 728 402 728 402 618 318 c 128,-1,4
 508 234 508 234 369 233 c 1,5,6
 103 233 103 233 51 437 c 0,7,8
 35 500 35 500 35 576 c 1,9,-1
 85 576 l 1,10,11
 85 434 85 434 150 358 c 0,12,13
 215 282 215 282 351 282 c 0,14,-1
 352 282 l 0,15,16
 490 282 490 282 584 353.5 c 128,-1,17
 678 425 678 425 678 574.5 c 128,-1,18
 678 724 678 724 528 850 c 1,19,-1
 442 919 l 1,20,21
 332 1004 332 1004 293 1054 c 0,22,23
 215 1152 215 1152 215 1266 c 0,24,25
 215 1468 215 1468 442 1567 c 1,26,-1
 462 1527 l 1,27,28
 364 1479 364 1479 327 1434 c 0,29,30
 265 1357 265 1357 265 1266 c 0,31,32
 265 1134 265 1134 396 1021 c 0,33,34
 433 989 433 989 478 953.5 c 128,-1,35
 523 918 523 918 573 874.5 c 128,-1,36
 623 831 623 831 661 776 c 1,37,-1
 1037 1065 l 1,38,-1
 1035 1068 l 1,39,40
 879 1214 879 1214 879 1363 c 1,41,42
 880 1427 880 1427 927.5 1486.5 c 128,-1,43
 975 1546 975 1546 1057 1567 c 1,44,-1
 1069 1519 l 1,45,46
 1003 1502 1003 1502 966 1458.5 c 128,-1,47
 929 1415 929 1415 929 1371 c 0,48,49
 930 1297 930 1297 972 1227 c 1,50,51
 990 1194 990 1194 1016 1164 c 2,52,-1
 1158 1001 l 1,53,54
 1330 797 1330 797 1331 567 c 1,55,56
 1331 135 1331 135 866 -1 c 1,57,-1
 720 56 l 1,58,59
 604 100 604 100 518 100 c 0,60,61
 383 100 383 100 324.5 51.5 c 128,-1,62
 266 3 266 3 266 -61 c 128,-1,63
 266 -125 266 -125 321.5 -161.5 c 128,-1,64
 377 -198 377 -198 446 -198 c 1,65,-1
 446 -248 l 1,66,67
 360 -248 360 -248 288 -198.5 c 128,-1,68
 216 -149 216 -149 216 -62.5 c 128,-1,69
 216 24 216 24 289.5 87 c 128,-1,70
 363 150 363 150 486 150 c 128,-1,71
 609 150 609 150 734 104 c 0,72,73
 772 90 772 90 816 72 c 2,74,-1
 867 51 l 1,75,76
 1281 178 1281 178 1281 567 c 0,77,78
 1281 810 1281 810 1073 1029 c 1,79,-1
 687 733 l 1,0,1
EndSplineSet
EndChar

StartChar: I
Encoding: 73 73 41
Width: 1592
Flags: HW
LayerCount: 2
Fore
SplineSet
972 94 m 1,0,1
 1065 47 1065 47 1145 47 c 0,2,3
 1204 46 1204 46 1256 72 c 0,4,5
 1378 132 1378 132 1424 247 c 0,6,7
 1446 301 1446 301 1446 362 c 0,8,9
 1446 490 1446 490 1365.5 566 c 128,-1,10
 1285 642 1285 642 1157 643 c 1,11,-1
 1157 693 l 1,12,13
 1159 693 1159 693 1160 693 c 0,14,15
 1310 694 1310 694 1402 604 c 0,16,17
 1496 514 1496 514 1496 369 c 128,-1,18
 1496 224 1496 224 1393 111 c 128,-1,19
 1290 -2 1290 -2 1148 -3 c 0,20,21
 1147 -3 1147 -3 1145 -3 c 0,22,23
 1004 -3 1004 -3 856 104 c 1,24,-1
 684 232 l 1,25,26
 531 343 531 343 393 343 c 0,27,28
 392 343 392 343 391 343 c 1,29,30
 390 343 390 343 388 343 c 0,31,32
 202 343 202 343 156 218 c 0,33,34
 143 182 143 182 143 148 c 0,35,36
 143 86 143 86 179 48 c 128,-1,37
 215 10 215 10 264 9 c 1,38,-1
 264 -41 l 1,39,40
 194 -41 194 -41 143.5 9.5 c 128,-1,41
 93 60 93 60 93 145 c 0,42,43
 93 312 93 312 251 372 c 0,44,45
 307 394 307 394 376 394 c 0,46,47
 378 394 378 394 380 394 c 0,48,49
 550 393 550 393 710 274 c 2,50,-1
 800 208 l 1,51,52
 862 159 862 159 926 120 c 1,53,54
 1013 199 1013 199 1013 319 c 0,55,56
 1013 470 1013 470 900 628 c 1,57,-1
 782 788 l 1,58,59
 692 914 692 914 692 1026 c 1,60,-1
 936 1217 l 1,61,62
 904 1237 904 1237 870 1267 c 2,63,-1
 726 1396 l 1,64,65
 589 1516 589 1516 453.5 1516 c 128,-1,66
 318 1516 318 1516 230 1419 c 128,-1,67
 142 1322 142 1322 142 1197 c 128,-1,68
 142 1072 142 1072 222.5 996 c 128,-1,69
 303 920 303 920 432 920 c 1,70,-1
 432 870 l 1,71,72
 280 870 280 870 186.5 960.5 c 128,-1,73
 93 1051 93 1051 93 1195.5 c 128,-1,74
 93 1340 93 1340 196 1453 c 128,-1,75
 299 1566 299 1566 442.5 1566 c 128,-1,76
 586 1566 586 1566 716 1466 c 0,77,78
 772 1424 772 1424 824 1374 c 128,-1,79
 876 1324 876 1324 932 1282 c 0,80,81
 1063 1183 1063 1183 1195 1183 c 0,82,-1
 1198 1183 l 1,83,-1
 1201 1183 l 0,84,85
 1387 1183 1387 1183 1433 1308 c 0,86,87
 1446 1344 1446 1344 1446 1378 c 0,88,89
 1446 1440 1446 1440 1410 1478 c 128,-1,90
 1374 1516 1374 1516 1325 1517 c 1,91,-1
 1325 1567 l 1,92,93
 1395 1567 1395 1567 1445.5 1516.5 c 128,-1,94
 1496 1466 1496 1466 1496 1381 c 0,95,96
 1496 1214 1496 1214 1338 1154 c 0,97,98
 1282 1132 1282 1132 1194 1132 c 0,99,-1
 1190 1132 l 0,100,101
 1098 1132 1098 1132 984 1190 c 1,102,-1
 742 1002 l 1,103,104
 748 922 748 922 830 808 c 2,105,-1
 942 654 l 1,106,107
 1062 485 1062 485 1063 316 c 0,108,109
 1063 187 1063 187 972 94 c 1,0,1
EndSplineSet
EndChar

StartChar: J
Encoding: 74 74 42
Width: 1650
Flags: HW
LayerCount: 2
Fore
SplineSet
1297 1137 m 1,0,1
 1357 1062 1357 1062 1357 984 c 0,2,3
 1357 847 1357 847 1271 765 c 1,4,-1
 1237 801 l 1,5,6
 1307 869 1307 869 1307 964 c 128,-1,7
 1307 1059 1307 1059 1241 1125 c 128,-1,8
 1175 1191 1175 1191 1081 1191 c 256,9,10
 986 1191 986 1191 921 1124.5 c 128,-1,11
 856 1058 856 1058 856 968 c 128,-1,12
 856 878 856 878 890 803 c 0,13,14
 944 680 944 680 1082 516 c 0,15,16
 1142 446 1142 446 1192 372 c 0,17,18
 1309 200 1309 200 1309 35 c 0,19,20
 1309 -96 1309 -96 1218 -187 c 128,-1,21
 1127 -278 1127 -278 971 -278 c 0,22,23
 771 -278 771 -278 640 -84 c 0,24,25
 602 -29 602 -29 570 28 c 2,26,-1
 506 140 l 1,27,28
 391 334 391 334 241 334 c 0,29,30
 152 334 152 334 106 287 c 128,-1,31
 60 240 60 240 60 178 c 128,-1,32
 60 116 60 116 91.5 83 c 0,33,34
 122 50 122 50 156 50 c 0,35,36
 210 50 210 50 243.5 81.5 c 128,-1,37
 277 113 277 113 277 158 c 1,38,-1
 327 158 l 1,39,40
 326 91 326 91 279.5 45.5 c 128,-1,41
 233 0 233 0 168 0 c 256,42,43
 62 0 62 0 22 101 c 0,44,45
 10 132 10 132 10 170 c 256,46,47
 10 255 10 255 68 319.5 c 128,-1,48
 126 384 126 384 241 384 c 0,49,50
 417 384 417 384 533 190 c 1,51,-1
 673 -48 l 1,52,53
 698 -88 698 -88 742 -132 c 0,54,55
 839 -228 839 -228 971 -228 c 128,-1,56
 1103 -228 1103 -228 1181 -152 c 128,-1,57
 1259 -76 1259 -76 1259 25 c 128,-1,58
 1259 126 1259 126 1225.5 206 c 128,-1,59
 1192 286 1192 286 1141.5 359.5 c 128,-1,60
 1091 433 1091 433 1032.5 502.5 c 128,-1,61
 974 572 974 572 924 644 c 0,62,63
 806 813 806 813 806 965 c 0,64,65
 806 1071 806 1071 882 1151 c 128,-1,66
 958 1231 958 1231 1065 1241 c 1,67,68
 1040 1257 1040 1257 1010 1284 c 2,69,-1
 947 1342 l 2,70,71
 859 1423 859 1423 808 1453 c 0,72,73
 703 1516 703 1516 621 1516 c 0,74,75
 477 1516 477 1516 388.5 1419 c 128,-1,76
 300 1322 300 1322 300 1197 c 128,-1,77
 300 1072 300 1072 380.5 996 c 128,-1,78
 461 920 461 920 589 920 c 1,79,-1
 589 870 l 1,80,81
 437 870 437 870 343.5 960.5 c 128,-1,82
 250 1051 250 1051 250 1195.5 c 128,-1,83
 250 1340 250 1340 353 1453 c 128,-1,84
 456 1566 456 1566 599 1566 c 128,-1,85
 742 1566 742 1566 873 1466 c 0,86,87
 929 1424 929 1424 981 1374 c 128,-1,88
 1033 1324 1033 1324 1089 1282 c 0,89,90
 1219 1183 1219 1183 1351 1183 c 0,91,-1
 1354 1183 l 1,92,-1
 1357 1183 l 0,93,94
 1543 1183 1543 1183 1589 1308 c 0,95,96
 1602 1344 1602 1344 1602 1378 c 0,97,98
 1602 1440 1602 1440 1566 1478 c 128,-1,99
 1530 1516 1530 1516 1481 1517 c 1,100,-1
 1481 1567 l 1,101,102
 1551 1567 1551 1567 1601.5 1516.5 c 128,-1,103
 1652 1466 1652 1466 1652 1381 c 0,104,105
 1652 1214 1652 1214 1494 1154 c 0,106,107
 1436 1132 1436 1132 1367 1132 c 0,108,109
 1333 1132 1333 1132 1297 1137 c 1,0,1
EndSplineSet
EndChar

StartChar: K
Encoding: 75 75 43
Width: 1385
Flags: HW
LayerCount: 2
Fore
SplineSet
624 677 m 1,0,1
 720 529 720 529 720 390 c 0,2,3
 720 114 720 114 509 28 c 0,4,5
 440 0 440 0 368 0 c 0,6,7
 228 0 228 0 124 86.5 c 128,-1,8
 20 173 20 173 20 332 c 0,9,10
 20 432 20 432 79 489 c 128,-1,11
 138 546 138 546 208 546 c 0,12,-1
 209 547 l 0,13,14
 278 546 278 546 324 500 c 0,15,16
 370 454 370 454 370 388 c 1,17,-1
 320 388 l 1,18,19
 320 432 320 432 288 464 c 0,20,21
 254 498 254 498 212 498 c 0,22,23
 188 498 188 498 162 487 c 0,24,25
 136 477 136 477 116 457 c 0,26,27
 70 412 70 412 70 336 c 0,28,29
 70 196 70 196 159 123 c 128,-1,30
 248 50 248 50 336 50 c 0,31,32
 496 50 496 50 583 143.5 c 128,-1,33
 670 237 670 237 670 387 c 256,34,35
 670 510 670 510 576 656 c 0,36,37
 536 718 536 718 489 779 c 0,38,39
 308 1014 308 1014 308 1200 c 128,-1,40
 308 1386 308 1386 410 1477 c 0,41,42
 511 1567 511 1567 680 1567 c 0,43,-1
 684 1567 l 1,44,-1
 688 1567 l 0,45,46
 816 1566 816 1566 903 1496 c 0,47,48
 992 1424 992 1424 992 1304 c 0,49,50
 992 1142 992 1142 805 995 c 1,51,-1
 773 1035 l 1,52,-1
 828 1080 l 1,53,54
 942 1177 942 1177 942 1306 c 0,55,56
 942 1402 942 1402 866 1459.5 c 128,-1,57
 790 1517 790 1517 700 1517 c 0,58,59
 533 1517 533 1517 445.5 1435.5 c 128,-1,60
 358 1354 358 1354 358 1189 c 128,-1,61
 358 1024 358 1024 514 826 c 1,62,-1
 595 718 l 1,63,-1
 1128 1142 l 1,64,65
 1212 1213 1212 1213 1212 1310 c 0,66,67
 1212 1355 1212 1355 1190 1406 c 1,68,-1
 1236 1426 l 1,69,70
 1262 1367 1262 1367 1262 1320 c 0,71,72
 1262 1183 1262 1183 1159 1102 c 2,73,-1
 1004 979 l 1,74,-1
 1008 979 l 2,75,76
 1040 979 1040 979 1064 942 c 128,-1,77
 1088 905 1088 905 1097 845 c 2,78,-1
 1189 240 l 1,79,80
 1212 81 1212 81 1337 21 c 1,81,-1
 1315 -25 l 1,82,83
 1167 43 1167 43 1139 232 c 2,84,-1
 1047 837 l 2,85,86
 1032 934 1032 934 969 934 c 0,87,88
 953 934 953 934 931 920 c 1,89,90
 931 921 931 921 932 922 c 2,91,-1
 624 677 l 1,0,1
EndSplineSet
EndChar

StartChar: L
Encoding: 76 76 44
Width: 1494
Flags: HW
LayerCount: 2
Fore
SplineSet
335 766 m 1,0,1
 258 766 258 766 203 713 c 128,-1,2
 148 660 148 660 147 581 c 256,3,4
 148 502 148 502 202 448 c 0,5,6
 256 394 256 394 335 393 c 0,7,-1
 336 394 l 0,8,9
 416 394 416 394 483 449 c 128,-1,10
 550 504 550 504 550 596 c 128,-1,11
 550 688 550 688 488 804 c 1,12,-1
 453 866 l 1,13,14
 345 1051 345 1051 345 1205 c 0,15,16
 346 1360 346 1360 462 1464 c 0,17,18
 578 1568 578 1568 760 1568 c 256,19,20
 934 1568 934 1568 1032 1461 c 128,-1,21
 1130 1354 1130 1354 1131 1204 c 1,22,-1
 1081 1204 l 1,23,24
 1081 1332 1081 1332 996.5 1425 c 128,-1,25
 912 1518 912 1518 754.5 1518 c 128,-1,26
 597 1518 597 1518 496 1428.5 c 128,-1,27
 395 1339 395 1339 395 1208.5 c 128,-1,28
 395 1078 395 1078 460 958 c 1,29,-1
 534 825 l 2,30,31
 600 705 600 705 600 581 c 0,32,33
 600 490 600 490 522 418 c 0,34,35
 498 396 498 396 470 380 c 1,36,37
 578 352 578 352 706 260 c 1,38,-1
 776 208 l 1,39,40
 990 46 990 46 1118 46 c 0,41,42
 1119 46 l 0,43,44
 1247 46 1247 46 1334 143 c 0,45,46
 1422 240 1422 240 1422 365 c 128,-1,47
 1422 490 1422 490 1341.5 566 c 128,-1,48
 1261 642 1261 642 1133 643 c 1,49,-1
 1133 693 l 1,50,51
 1135 693 1135 693 1136 693 c 0,52,53
 1286 694 1286 694 1378 604 c 0,54,55
 1472 514 1472 514 1472 369 c 128,-1,56
 1472 224 1472 224 1369 111 c 128,-1,57
 1266 -2 1266 -2 1124 -3 c 0,58,59
 1123 -3 1123 -3 1121 -3 c 0,60,61
 980 -3 980 -3 832 104 c 1,62,-1
 660 232 l 1,63,64
 507 343 507 343 369 343 c 0,65,66
 368 343 368 343 367 343 c 1,67,68
 366 343 366 343 364 343 c 0,69,70
 178 343 178 343 132 218 c 0,71,72
 119 182 119 182 119 148 c 0,73,74
 119 86 119 86 155 48 c 128,-1,75
 191 10 191 10 240 9 c 1,76,-1
 240 -41 l 1,77,78
 170 -41 170 -41 119.5 9.5 c 128,-1,79
 69 60 69 60 69 148 c 0,80,81
 69 261 69 261 152 330 c 0,82,83
 182 354 182 354 224 370 c 1,84,85
 167 400 167 400 132 456 c 128,-1,86
 97 512 97 512 97 571 c 0,87,88
 97 679 97 679 166 747.5 c 128,-1,89
 235 816 235 816 335 816 c 1,90,-1
 335 766 l 1,0,1
EndSplineSet
EndChar

StartChar: M
Encoding: 77 77 45
Width: 2254
Flags: HW
LayerCount: 2
Fore
SplineSet
95 14 m 1,0,1
 241 206 241 206 378.5 206 c 128,-1,2
 516 206 516 206 552 74 c 1,3,4
 834 464 834 464 887 776 c 0,5,6
 904 876 904 876 904 986 c 128,-1,7
 904 1096 904 1096 871 1195.5 c 128,-1,8
 838 1295 838 1295 784.5 1366.5 c 128,-1,9
 731 1438 731 1438 663 1477.5 c 128,-1,10
 595 1517 595 1517 527 1517 c 0,11,12
 402 1517 402 1517 331.5 1446.5 c 128,-1,13
 261 1376 261 1376 261 1299.5 c 0,14,15
 260 1223 260 1223 284 1176 c 0,16,17
 322 1099 322 1099 418 1026 c 0,18,19
 458 994 458 994 494 958 c 0,20,21
 576 872 576 872 576 748 c 128,-1,22
 576 624 576 624 477 560 c 0,23,24
 404 512 404 512 326 512 c 0,25,26
 324 512 324 512 322 511 c 0,27,28
 193 511 193 511 126 576 c 0,29,30
 58 642 58 642 58 735.5 c 128,-1,31
 58 829 58 829 124 895 c 128,-1,32
 190 961 190 961 283 961 c 1,33,-1
 283 911 l 1,34,35
 211 911 211 911 159.5 859.5 c 128,-1,36
 108 808 108 808 108 736 c 256,37,38
 108 662 108 662 163 611 c 0,39,40
 217 561 217 561 297 561 c 0,41,42
 299 561 299 561 300 561 c 0,43,44
 442 562 442 562 502 666 c 0,45,46
 526 706 526 706 526 764.5 c 128,-1,47
 526 823 526 823 502.5 862.5 c 128,-1,48
 479 902 479 902 444 935.5 c 0,49,50
 408 970 408 970 368 1002 c 0,51,52
 210 1128 210 1128 211 1291 c 0,53,54
 211 1392 211 1392 294.5 1479 c 128,-1,55
 378 1566 378 1566 534 1567 c 0,56,-1
 535 1567 l 0,57,58
 689 1567 689 1567 820 1396 c 0,59,60
 860 1344 860 1344 890 1280 c 1,61,62
 990 1407 990 1407 1053 1461 c 0,63,64
 1177 1567 1177 1567 1273 1567 c 0,65,66
 1432 1567 1432 1567 1492 1384 c 1,67,-1
 1562 1448 l 1,68,69
 1690 1567 1690 1567 1789.5 1567 c 128,-1,70
 1889 1567 1889 1567 1910 1471 c 0,71,72
 1916 1444 1916 1444 1920 1414 c 0,73,74
 1932 1326 1932 1326 1967 1268 c 0,75,76
 2020 1180 2020 1180 2107 1180 c 1,77,78
 2142 1209 2142 1209 2165.5 1238.5 c 128,-1,79
 2189 1268 2189 1268 2189 1306 c 1,80,-1
 2239 1306 l 1,81,82
 2238 1214 2238 1214 2126 1131 c 2,83,-1
 2059 1081 l 1,84,85
 1884 954 1884 954 1822 710 c 0,86,87
 1800 622 1800 622 1800 505 c 0,88,89
 1800 280 1800 280 1896 165 c 128,-1,90
 1992 50 1992 50 2116 50 c 1,91,-1
 2116 0 l 1,92,93
 1975 0 1975 0 1872 118 c 0,94,95
 1750 259 1750 259 1750 528 c 0,96,97
 1750 917 1750 917 2046 1134 c 1,98,99
 1967 1152 1967 1152 1916 1250 c 0,100,101
 1881 1318 1881 1318 1874 1374 c 0,102,103
 1863 1466 1863 1466 1848.5 1491.5 c 128,-1,104
 1834 1517 1834 1517 1792.5 1517 c 0,105,106
 1750 1517 1750 1517 1716 1500 c 0,107,108
 1657 1471 1657 1471 1578 1396 c 2,109,-1
 1508 1331 l 1,110,111
 1538 1190 1538 1190 1538 1034 c 0,112,113
 1538 441 1538 441 1177 -17 c 1,114,-1
 1135 0 l 1,115,116
 1120 156 1120 156 1007 156 c 0,117,118
 889 156 889 156 766 -8 c 1,119,-1
 726 22 l 1,120,121
 842 175 842 175 947 199 c 0,122,123
 978 206 978 206 1015 206 c 0,124,125
 1091 206 1091 206 1129 162 c 128,-1,126
 1167 118 1167 118 1172 55 c 1,127,128
 1328 268 1328 268 1408 520.5 c 128,-1,129
 1488 773 1488 773 1488 945 c 0,130,131
 1488 1258 1488 1258 1435 1388 c 0,132,133
 1382 1517 1382 1517 1267 1517 c 0,134,-1
 1266 1516 l 0,135,136
 1150 1516 1150 1516 994 1328 c 1,137,-1
 912 1228 l 1,138,139
 954 1110 954 1110 954 992 c 0,140,141
 954 763 954 763 864 529.5 c 128,-1,142
 774 296 774 296 548 -16 c 1,143,-1
 507 0 l 1,144,145
 487 156 487 156 375.5 156 c 128,-1,146
 264 156 264 156 135 -16 c 1,147,-1
 95 14 l 1,0,1
EndSplineSet
EndChar

StartChar: N
Encoding: 78 78 46
Width: 1736
Flags: HW
LayerCount: 2
Fore
SplineSet
98 7 m 1,0,1
 249 206 249 206 382 206 c 128,-1,2
 515 206 515 206 551 74 c 1,3,4
 833 464 833 464 886 776 c 0,5,6
 903 876 903 876 903 986 c 128,-1,7
 903 1096 903 1096 870 1195.5 c 128,-1,8
 837 1295 837 1295 783 1366.5 c 128,-1,9
 729 1438 729 1438 661 1477.5 c 128,-1,10
 593 1517 593 1517 525 1517 c 0,11,12
 400 1517 400 1517 329.5 1446.5 c 128,-1,13
 259 1376 259 1376 259 1299.5 c 0,14,15
 258 1223 258 1223 282 1176 c 0,16,17
 320 1099 320 1099 416 1026 c 0,18,19
 456 994 456 994 492 958 c 0,20,21
 574 872 574 872 574 748 c 128,-1,22
 574 624 574 624 475 560 c 0,23,24
 402 512 402 512 324 512 c 0,25,26
 322 512 322 512 320 511 c 0,27,28
 191 511 191 511 124 576 c 0,29,30
 56 642 56 642 56 735.5 c 128,-1,31
 56 829 56 829 122 895 c 128,-1,32
 188 961 188 961 281 961 c 1,33,-1
 281 911 l 1,34,35
 209 911 209 911 157.5 859.5 c 128,-1,36
 106 808 106 808 106 736 c 256,37,38
 106 662 106 662 161 611 c 0,39,40
 215 561 215 561 295 561 c 0,41,42
 297 561 297 561 298 561 c 0,43,44
 440 562 440 562 500 666 c 0,45,46
 524 706 524 706 524 764.5 c 128,-1,47
 524 823 524 823 500.5 862.5 c 128,-1,48
 477 902 477 902 442 935.5 c 0,49,50
 406 970 406 970 366 1002 c 0,51,52
 208 1128 208 1128 209 1291 c 0,53,54
 209 1392 209 1392 292.5 1479 c 128,-1,55
 376 1566 376 1566 535.5 1566 c 128,-1,56
 695 1566 695 1566 825 1390 c 0,57,58
 866 1334 866 1334 897 1267 c 2,59,-1
 1267 454 l 1,60,61
 1261 517 1261 517 1261 605 c 0,62,63
 1261 790 1261 790 1326 945 c 128,-1,64
 1391 1100 1391 1100 1530 1256 c 0,65,66
 1700 1448 1700 1448 1700 1568 c 1,67,-1
 1750 1568 l 1,68,69
 1750 1489 1750 1489 1710.5 1415 c 0,70,71
 1671 1340 1671 1340 1584 1244 c 0,72,73
 1425 1067 1425 1067 1368 927 c 0,74,75
 1311 786 1311 786 1311 605 c 0,76,77
 1311 303 1311 303 1416 162 c 0,78,79
 1500 50 1500 50 1627 50 c 1,80,-1
 1627 0 l 1,81,82
 1479 0 1479 0 1380 124 c 0,83,84
 1344 170 1344 170 1317 238 c 1,85,-1
 950 1037 l 1,86,87
 953 1007 953 1007 953 940 c 0,88,89
 953 760 953 760 863.5 528 c 128,-1,90
 774 296 774 296 547 -16 c 1,91,-1
 506 0 l 1,92,93
 486 156 486 156 373 156 c 0,94,95
 272 156 272 156 138 -23 c 1,96,-1
 98 7 l 1,0,1
EndSplineSet
EndChar

StartChar: O
Encoding: 79 79 47
Width: 1660
Flags: HW
LayerCount: 2
Fore
SplineSet
215 1206 m 1,0,1
 215 1568 215 1568 789 1568 c 0,2,3
 1004 1568 1004 1568 1187 1462 c 0,4,5
 1462 1302 1462 1302 1550 995 c 0,6,7
 1578 895 1578 895 1579 786 c 257,8,9
 1578 462 1578 462 1348 230 c 0,10,11
 1204 84 1204 84 1002 28 c 0,12,13
 902 0 902 0 790 0 c 0,14,15
 570 0 570 0 383.5 114.5 c 128,-1,16
 197 229 197 229 98 416 c 1,17,-1
 142 440 l 1,18,19
 236 263 236 263 411 156.5 c 128,-1,20
 586 50 586 50 788.5 50 c 128,-1,21
 991 50 991 50 1160 147 c 128,-1,22
 1329 244 1329 244 1429 414.5 c 128,-1,23
 1529 585 1529 585 1529 786 c 257,24,25
 1530 986 1530 986 1430 1153 c 128,-1,26
 1330 1320 1330 1320 1160 1419 c 128,-1,27
 990 1518 990 1518 789 1518 c 0,28,29
 265 1518 265 1518 265 1208 c 0,30,31
 265 1086 265 1086 362 970 c 128,-1,32
 459 854 459 854 459 706 c 1,33,34
 460 616 460 616 396 553.5 c 128,-1,35
 332 491 332 491 243 491 c 256,36,37
 154 491 154 491 91 554 c 128,-1,38
 28 617 28 617 28 706 c 1,39,-1
 78 706 l 1,40,41
 78 638 78 638 126.5 589.5 c 128,-1,42
 175 541 175 541 243 541 c 256,43,44
 312 541 312 541 360.5 589.5 c 128,-1,45
 409 638 409 638 409 702.5 c 0,46,47
 408 767 408 767 394 811 c 0,48,49
 370 883 370 883 329 935 c 128,-1,50
 288 987 288 987 266 1022 c 0,51,52
 216 1104 216 1104 215 1206 c 1,0,1
EndSplineSet
EndChar

StartChar: P
Encoding: 80 80 48
Width: 1669
Flags: HW
LayerCount: 2
Fore
SplineSet
471 133 m 1,0,1
 674 345 674 345 889 363 c 1,2,-1
 889 1099 l 1,3,4
 888 1288 888 1288 769 1402 c 128,-1,5
 650 1516 650 1516 514 1516 c 128,-1,6
 378 1516 378 1516 307.5 1445.5 c 128,-1,7
 237 1375 237 1375 237 1298.5 c 128,-1,8
 237 1222 237 1222 260.5 1175 c 128,-1,9
 284 1128 284 1128 319 1092 c 128,-1,10
 354 1056 354 1056 394.5 1025 c 128,-1,11
 435 994 435 994 470 958 c 0,12,13
 552 872 552 872 552 747 c 128,-1,14
 552 622 552 622 453 558 c 0,15,16
 380 510 380 510 302 510 c 0,17,18
 171 510 171 510 102.5 575.5 c 128,-1,19
 34 641 34 641 34 734.5 c 128,-1,20
 34 828 34 828 100 894 c 128,-1,21
 166 960 166 960 259 960 c 1,22,-1
 259 910 l 1,23,24
 187 910 187 910 135.5 858.5 c 128,-1,25
 84 807 84 807 84 735 c 256,26,27
 84 662 84 662 139 611 c 128,-1,28
 194 560 194 560 276 560 c 0,29,30
 418 560 418 560 478 664 c 0,31,32
 502 704 502 704 502 763 c 128,-1,33
 502 822 502 822 478.5 861.5 c 128,-1,34
 455 901 455 901 420 934.5 c 0,35,36
 384 968 384 968 344 1000 c 0,37,38
 186 1126 186 1126 187 1290 c 0,39,40
 187 1392 187 1392 270.5 1479 c 128,-1,41
 354 1566 354 1566 498 1566 c 128,-1,42
 642 1566 642 1566 762.5 1475 c 128,-1,43
 883 1384 883 1384 923 1229 c 1,44,-1
 1355 1569 l 1,45,-1
 1451 1378 l 1,46,47
 1538 1200 1538 1200 1560 1078.5 c 128,-1,48
 1582 957 1582 957 1582 859 c 0,49,50
 1582 627 1582 627 1480 484 c 1,51,-1
 1417 397 l 2,52,53
 1329 277 1329 277 1284 171 c 1,54,55
 1196 241 1196 241 1120 275.5 c 128,-1,56
 1044 310 1044 310 939 314 c 1,57,-1
 939 85 l 1,58,59
 938 -254 938 -254 736 -333 c 0,60,61
 688 -352 688 -352 641 -352 c 0,62,63
 538 -352 538 -352 476 -314 c 0,64,65
 389 -262 389 -262 389 -156 c 0,66,67
 389 -101 389 -101 435.5 -56.5 c 128,-1,68
 482 -12 482 -12 547 -12 c 1,69,-1
 547 -62 l 1,70,71
 503 -62 503 -62 471 -90.5 c 0,72,73
 439 -120 439 -120 439 -160 c 0,74,75
 439 -236 439 -236 508 -274 c 0,76,77
 558 -302 558 -302 631.5 -302 c 128,-1,78
 705 -302 705 -302 757 -265 c 0,79,80
 889 -171 889 -171 889 85 c 2,81,-1
 889 314 l 1,82,83
 695 296 695 296 507 99 c 1,84,-1
 471 133 l 1,0,1
939 364 m 1,85,86
 1117 361 1117 361 1266 249 c 1,87,88
 1295 305 1295 305 1326 351 c 2,89,-1
 1387 440 l 2,90,91
 1458 542 1458 542 1495 631.5 c 128,-1,92
 1532 721 1532 721 1532 836.5 c 128,-1,93
 1532 952 1532 952 1518 1034 c 0,94,95
 1491 1187 1491 1187 1416 1337 c 2,96,-1
 1339 1493 l 1,97,-1
 934 1174 l 1,98,99
 939 1129 939 1129 939 1099 c 2,100,-1
 939 364 l 1,85,86
EndSplineSet
EndChar

StartChar: Q
Encoding: 81 81 49
Width: 1660
Flags: HW
LayerCount: 2
Fore
SplineSet
1275 231 m 1,0,1
 1529 454 1529 454 1529 795 c 0,2,3
 1530 986 1530 986 1428 1156 c 0,4,5
 1331 1319 1331 1319 1160.5 1418.5 c 128,-1,6
 990 1518 990 1518 789 1518 c 0,7,8
 265 1518 265 1518 265 1208 c 0,9,10
 265 1086 265 1086 362 970 c 128,-1,11
 459 854 459 854 459 706 c 1,12,13
 460 616 460 616 396 553.5 c 128,-1,14
 332 491 332 491 243 491 c 256,15,16
 154 491 154 491 91 554 c 128,-1,17
 28 617 28 617 28 706 c 1,18,-1
 78 706 l 1,19,20
 78 638 78 638 126.5 589.5 c 128,-1,21
 175 541 175 541 243 541 c 256,22,23
 312 541 312 541 360.5 589.5 c 128,-1,24
 409 638 409 638 409 702.5 c 0,25,26
 408 767 408 767 394 811 c 0,27,28
 370 883 370 883 329 935 c 128,-1,29
 288 987 288 987 266 1022 c 0,30,31
 216 1104 216 1104 215 1206 c 1,32,33
 215 1568 215 1568 789 1568 c 0,34,35
 1004 1568 1004 1568 1187 1462 c 0,36,37
 1462 1302 1462 1302 1550 995 c 1,38,39
 1579 890 1579 890 1579 785 c 0,40,41
 1579 699 1579 699 1560 613 c 1,42,43
 1506 362 1506 362 1307 191 c 1,44,45
 1329 162 1329 162 1350 130 c 2,46,-1
 1470 -48 l 1,47,48
 1612 -251 1612 -251 1780 -251 c 1,49,50
 1782 -251 1782 -251 1784 -251 c 0,51,52
 1913 -251 1913 -251 2004 -184 c 0,53,54
 2035 -162 2035 -162 2058 -131 c 1,55,-1
 2098 -161 l 1,56,57
 1994 -301 1994 -301 1780 -301 c 0,58,59
 1592 -301 1592 -301 1434 -82 c 0,60,61
 1390 -22 1390 -22 1360 24 c 2,62,-1
 1310 100 l 2,63,64
 1290 130 1290 130 1267 159 c 1,65,66
 1055 0 1055 0 812.5 0 c 128,-1,67
 570 0 570 0 383.5 114.5 c 128,-1,68
 197 229 197 229 98 416 c 1,69,-1
 142 440 l 1,70,71
 236 263 236 263 411 156.5 c 128,-1,72
 586 50 586 50 811.5 50 c 128,-1,73
 1037 50 1037 50 1236 198 c 1,74,75
 1150 295 1150 295 1069 295 c 0,76,77
 942 295 942 295 861 205 c 1,78,-1
 823 239 l 1,79,80
 918 345 918 345 1069 345 c 0,81,82
 1177 345 1177 345 1275 231 c 1,0,1
EndSplineSet
EndChar

StartChar: R
Encoding: 82 82 50
Width: 1734
Flags: HW
LayerCount: 2
Fore
SplineSet
892 1202 m 1,0,1
 934 1567 934 1567 1134 1567 c 0,2,3
 1247 1567 1247 1567 1310 1440 c 1,4,-1
 1376 1304 l 1,5,6
 1431 1196 1431 1196 1502 1196 c 0,7,8
 1598 1196 1598 1196 1632 1322 c 1,9,-1
 1680 1310 l 1,10,11
 1650 1195 1650 1195 1558 1153 c 2,12,-1
 1329 1047 l 1,13,14
 1399 1016 1399 1016 1411 934 c 2,15,-1
 1517 240 l 1,16,17
 1540 81 1540 81 1665 21 c 1,18,-1
 1643 -25 l 1,19,20
 1498 42 1498 42 1469 221 c 1,21,-1
 1361 926 l 2,22,23
 1353 974 1353 974 1328.5 994.5 c 128,-1,24
 1304 1015 1304 1015 1281 1015 c 128,-1,25
 1258 1015 1258 1015 1245 1009 c 2,26,-1
 929 863 l 1,27,28
 922 536 922 536 792 288 c 0,29,30
 698 110 698 110 540 38 c 0,31,32
 458 0 458 0 382 0 c 0,33,34
 261 0 261 0 207.5 44 c 128,-1,35
 154 88 154 88 154 158 c 256,36,37
 154 222 154 222 199.5 269 c 128,-1,38
 245 316 245 316 312 317 c 1,39,-1
 312 267 l 1,40,41
 311 267 311 267 309 267 c 0,42,43
 265 268 265 268 235 236 c 0,44,45
 204 204 204 204 204 158.5 c 128,-1,46
 204 113 204 113 242 81.5 c 128,-1,47
 280 50 280 50 366.5 50 c 128,-1,48
 453 50 453 50 529 88 c 0,49,50
 740 192 740 192 830 518 c 0,51,52
 880 698 880 698 880 870 c 0,53,54
 880 1180 880 1180 779 1348.5 c 128,-1,55
 678 1517 678 1517 524 1517 c 0,56,57
 400 1517 400 1517 329.5 1446.5 c 128,-1,58
 259 1376 259 1376 259 1299.5 c 0,59,60
 258 1223 258 1223 282 1176 c 0,61,62
 320 1099 320 1099 416 1026 c 0,63,64
 456 994 456 994 492 958 c 0,65,66
 574 872 574 872 574 748 c 128,-1,67
 574 624 574 624 475 560 c 0,68,69
 402 512 402 512 324 512 c 0,70,71
 322 512 322 512 320 511 c 0,72,73
 191 511 191 511 124 576 c 0,74,75
 56 642 56 642 56 735.5 c 128,-1,76
 56 829 56 829 122 895 c 128,-1,77
 188 961 188 961 281 961 c 1,78,-1
 281 911 l 1,79,80
 209 911 209 911 157.5 859.5 c 128,-1,81
 106 808 106 808 106 736 c 256,82,83
 106 662 106 662 161 611 c 0,84,85
 215 561 215 561 295 561 c 0,86,87
 297 561 297 561 298 561 c 0,88,89
 440 562 440 562 500 666 c 0,90,91
 524 706 524 706 524 764.5 c 128,-1,92
 524 823 524 823 500.5 862.5 c 128,-1,93
 477 902 477 902 442 935.5 c 0,94,95
 406 970 406 970 366 1002 c 0,96,97
 208 1128 208 1128 209 1291 c 0,98,99
 209 1392 209 1392 292.5 1479 c 128,-1,100
 376 1566 376 1566 512 1566 c 0,101,-1
 513 1567 l 0,102,103
 648 1567 648 1567 746 1470 c 128,-1,104
 844 1373 844 1373 892 1202 c 1,0,1
1135 1517 m 128,-1,106
 1097 1517 1097 1517 1063 1491 c 0,107,108
 930 1389 930 1389 930 919 c 1,109,-1
 1445 1156 l 1,110,111
 1380 1180 1380 1180 1328 1286 c 1,112,-1
 1270 1408 l 1,113,114
 1236 1475 1236 1475 1204.5 1496 c 128,-1,105
 1173 1517 1173 1517 1135 1517 c 128,-1,106
EndSplineSet
EndChar

StartChar: S
Encoding: 83 83 51
Width: 1726
Flags: HW
LayerCount: 2
Fore
SplineSet
109 484 m 1,0,1
 448 20 448 20 874 20 c 0,2,3
 1195 20 1195 20 1395 186 c 0,4,5
 1486 262 1486 262 1536.5 359.5 c 128,-1,6
 1587 457 1587 457 1587 555 c 0,7,8
 1587 724 1587 724 1510.5 805 c 128,-1,9
 1434 886 1434 886 1351 886 c 128,-1,10
 1268 886 1268 886 1213 863.5 c 128,-1,11
 1158 841 1158 841 1109 808 c 0,12,13
 1060 776 1060 776 1012 736 c 0,14,15
 829 586 829 586 611 584 c 0,16,-1
 609 584 l 0,17,18
 392 584 392 584 244 720 c 128,-1,19
 96 856 96 856 96 1118 c 0,20,21
 96 1296 96 1296 218 1434 c 0,22,23
 361 1596 361 1596 623 1596 c 0,24,25
 842 1596 842 1596 1038 1410 c 0,26,27
 1158 1297 1158 1297 1231.5 1261 c 0,28,29
 1306 1225 1306 1225 1362 1225 c 0,30,31
 1463 1225 1463 1225 1518.5 1277.5 c 128,-1,32
 1574 1330 1574 1330 1574 1419 c 128,-1,33
 1574 1508 1574 1508 1502 1538 c 0,34,35
 1482 1546 1482 1546 1460 1546 c 256,36,37
 1393 1546 1393 1546 1366 1483 c 0,38,39
 1358 1464 1358 1464 1358 1443 c 1,40,-1
 1308 1443 l 1,41,42
 1308 1507 1308 1507 1352.5 1551.5 c 128,-1,43
 1397 1596 1397 1596 1460 1596 c 256,44,45
 1528 1596 1528 1596 1576 1546 c 0,46,47
 1624 1497 1624 1497 1624 1428 c 0,48,49
 1624 1303 1624 1303 1553 1238 c 0,50,51
 1484 1174 1484 1174 1394 1174 c 0,52,-1
 1392 1174 l 0,53,54
 1302 1174 1302 1174 1242.5 1202 c 128,-1,55
 1183 1230 1183 1230 1129 1271 c 128,-1,56
 1075 1312 1075 1312 1022 1360 c 0,57,58
 820 1546 820 1546 634 1546 c 0,59,60
 390 1546 390 1546 257 1400 c 0,61,62
 146 1278 146 1278 146 1116 c 0,63,64
 146 880 146 880 280 758 c 128,-1,65
 414 636 414 636 618 636 c 128,-1,66
 822 636 822 636 1000 786 c 1,67,68
 1176 936 1176 936 1324 936 c 0,69,70
 1452 936 1452 936 1534 854 c 1,71,72
 1636 754 1636 754 1637 566 c 0,73,74
 1637 448 1637 448 1583 340 c 128,-1,75
 1529 232 1529 232 1431 150 c 0,76,77
 1216 -30 1216 -30 894 -30 c 0,78,79
 528 -30 528 -30 244 246 c 0,80,81
 157 331 157 331 69 454 c 1,82,-1
 109 484 l 1,0,1
EndSplineSet
EndChar

StartChar: T
Encoding: 84 84 52
Width: 1417
Flags: HW
LayerCount: 2
Fore
SplineSet
1268 1154 m 0,0,1
 1212 1132 1212 1132 1124 1132 c 0,2,-1
 1120 1132 l 0,3,4
 1028 1132 1028 1132 914 1190 c 1,5,-1
 672 1002 l 1,6,7
 678 922 678 922 760 808 c 2,8,-1
 872 654 l 1,9,10
 992 485 992 485 993 316 c 0,11,12
 994 184 994 184 900 92 c 0,13,14
 808 0 808 0 679 0 c 0,15,16
 678 0 678 0 676 0 c 257,17,18
 545 0 545 0 452.5 92.5 c 128,-1,19
 360 185 360 185 360 316 c 0,20,21
 360 400 360 400 398.5 470 c 128,-1,22
 437 540 437 540 503 582 c 1,23,-1
 531 540 l 1,24,25
 476 504 476 504 443 445 c 128,-1,26
 410 386 410 386 410 324 c 0,27,28
 410 206 410 206 488 128 c 128,-1,29
 566 50 566 50 676 50 c 256,30,31
 784 50 784 50 863 128 c 0,32,33
 943 206 943 206 943 319 c 0,34,35
 943 470 943 470 830 628 c 1,36,-1
 712 788 l 1,37,38
 622 914 622 914 622 1026 c 1,39,-1
 866 1217 l 1,40,41
 834 1237 834 1237 800 1267 c 2,42,-1
 656 1396 l 1,43,44
 519 1516 519 1516 383.5 1516 c 128,-1,45
 248 1516 248 1516 160 1419 c 128,-1,46
 72 1322 72 1322 72 1197 c 128,-1,47
 72 1072 72 1072 152.5 996 c 128,-1,48
 233 920 233 920 362 920 c 1,49,-1
 362 870 l 1,50,51
 210 870 210 870 116.5 960.5 c 128,-1,52
 23 1051 23 1051 23 1195.5 c 128,-1,53
 23 1340 23 1340 126 1453 c 128,-1,54
 229 1566 229 1566 372.5 1566 c 128,-1,55
 516 1566 516 1566 646 1466 c 0,56,57
 702 1424 702 1424 754 1374 c 128,-1,58
 806 1324 806 1324 862 1282 c 0,59,60
 993 1183 993 1183 1125 1183 c 0,61,-1
 1128 1183 l 1,62,-1
 1131 1183 l 0,63,64
 1317 1183 1317 1183 1363 1308 c 0,65,66
 1376 1344 1376 1344 1376 1378 c 0,67,68
 1376 1440 1376 1440 1340 1478 c 128,-1,69
 1304 1516 1304 1516 1255 1517 c 1,70,-1
 1255 1567 l 1,71,72
 1325 1567 1325 1567 1375.5 1516.5 c 128,-1,73
 1426 1466 1426 1466 1426 1381 c 0,74,75
 1426 1214 1426 1214 1268 1154 c 0,0,1
EndSplineSet
EndChar

StartChar: U
Encoding: 85 85 53
Width: 1154
Flags: HW
LayerCount: 2
Fore
SplineSet
1016 -25 m 1,0,1
 900 50 900 50 900 207 c 2,2,-1
 900 401 l 1,3,-1
 353 -28 l 1,4,5
 252 84 252 84 216 151 c 0,6,7
 140 290 140 290 140 434.5 c 128,-1,8
 140 579 140 579 193 853.5 c 128,-1,9
 246 1128 246 1128 246 1239 c 128,-1,10
 246 1350 246 1350 215 1410 c 128,-1,11
 184 1470 184 1470 113 1527 c 1,12,-1
 143 1567 l 1,13,14
 223 1505 223 1505 259.5 1434.5 c 128,-1,15
 296 1364 296 1364 296 1268 c 0,16,17
 296 1142 296 1142 243 856 c 128,-1,18
 190 570 190 570 190 469 c 0,19,20
 190 313 190 313 246 201 c 0,21,22
 280 134 280 134 360 41 c 1,23,24
 375 52 375 52 417 86 c 2,25,-1
 900 465 l 1,26,-1
 900 1537 l 1,27,-1
 950 1537 l 1,28,-1
 950 207 l 2,29,30
 950 106 950 106 1011 44 c 0,31,32
 1028 26 1028 26 1044 17 c 1,33,-1
 1016 -25 l 1,0,1
EndSplineSet
EndChar

StartChar: V
Encoding: 86 86 54
Width: 1697
Flags: HW
LayerCount: 2
Fore
SplineSet
705 336 m 1,0,1
 888 663 888 663 888 976 c 0,2,3
 888 1206 888 1206 768 1366 c 0,4,5
 714 1438 714 1438 646.5 1477.5 c 128,-1,6
 579 1517 579 1517 511 1517 c 0,7,8
 386 1517 386 1517 315.5 1446.5 c 128,-1,9
 245 1376 245 1376 245 1299.5 c 0,10,11
 244 1223 244 1223 268 1176 c 0,12,13
 306 1099 306 1099 402 1026 c 0,14,15
 442 994 442 994 478 958 c 0,16,17
 560 872 560 872 560 748 c 128,-1,18
 560 624 560 624 461 560 c 0,19,20
 388 512 388 512 310 512 c 0,21,22
 308 512 308 512 306 511 c 0,23,24
 177 511 177 511 110 576 c 0,25,26
 42 642 42 642 42 735.5 c 128,-1,27
 42 829 42 829 108 895 c 128,-1,28
 174 961 174 961 267 961 c 1,29,-1
 267 911 l 1,30,31
 195 911 195 911 143.5 859.5 c 128,-1,32
 92 808 92 808 92 736 c 256,33,34
 92 662 92 662 147 611 c 0,35,36
 201 561 201 561 281 561 c 0,37,38
 283 561 283 561 284 561 c 0,39,40
 426 562 426 562 486 666 c 0,41,42
 510 706 510 706 510 764.5 c 128,-1,43
 510 823 510 823 486.5 862.5 c 128,-1,44
 463 902 463 902 428 935.5 c 0,45,46
 392 970 392 970 352 1002 c 0,47,48
 194 1128 194 1128 195 1291 c 0,49,50
 195 1392 195 1392 278.5 1479 c 128,-1,51
 362 1566 362 1566 510 1567 c 0,52,53
 591 1567 591 1567 668 1523.5 c 128,-1,54
 745 1480 745 1480 805 1402 c 0,55,56
 938 1229 938 1229 938 976 c 0,57,58
 938 663 938 663 744 311 c 1,59,60
 777 286 777 286 807 257 c 2,61,-1
 868 199 l 2,62,63
 946 125 946 125 1018 86.5 c 128,-1,64
 1090 48 1090 48 1190 48 c 0,65,66
 1368 48 1368 48 1455 167 c 0,67,68
 1543 286 1543 286 1544 470 c 0,69,70
 1544 652 1544 652 1434 874 c 0,71,72
 1324 1097 1324 1097 1324 1276 c 0,73,74
 1324 1406 1324 1406 1403.5 1487 c 128,-1,75
 1483 1568 1483 1568 1599 1569 c 1,76,-1
 1599 1519 l 1,77,78
 1504 1519 1504 1519 1439 1452.5 c 128,-1,79
 1374 1386 1374 1386 1374 1296 c 128,-1,80
 1374 1206 1374 1206 1390 1137.5 c 128,-1,81
 1406 1069 1406 1069 1430.5 1008 c 0,82,83
 1456 947 1456 947 1484 889 c 0,84,85
 1593 668 1593 668 1592 461 c 0,86,87
 1592 258 1592 258 1493 128 c 0,88,89
 1393 -2 1393 -2 1193 -3 c 0,90,-1
 1192 -2 l 0,91,92
 990 -2 990 -2 832 166 c 0,93,94
 737 267 737 267 667 300.5 c 128,-1,95
 597 334 597 334 537 334 c 0,96,97
 437 334 437 334 390.5 287 c 128,-1,98
 344 240 344 240 344 178 c 128,-1,99
 344 116 344 116 375.5 83 c 0,100,101
 406 50 406 50 440 50 c 0,102,103
 494 50 494 50 527.5 81.5 c 128,-1,104
 561 113 561 113 561 158 c 1,105,-1
 611 158 l 1,106,107
 610 91 610 91 563.5 45.5 c 128,-1,108
 517 0 517 0 452 0 c 256,109,110
 346 0 346 0 306 101 c 0,111,112
 294 132 294 132 294 170 c 256,113,114
 294 255 294 255 352 319.5 c 128,-1,115
 410 384 410 384 517 384 c 128,-1,116
 624 384 624 384 705 336 c 1,0,1
EndSplineSet
EndChar

StartChar: W
Encoding: 87 87 55
Width: 2238
Flags: HW
LayerCount: 2
Fore
SplineSet
705 336 m 1,0,1
 888 663 888 663 888 976 c 0,2,3
 888 1206 888 1206 768 1366 c 0,4,5
 714 1438 714 1438 646.5 1477.5 c 128,-1,6
 579 1517 579 1517 511 1517 c 0,7,8
 386 1517 386 1517 315.5 1446.5 c 128,-1,9
 245 1376 245 1376 245 1299.5 c 0,10,11
 244 1223 244 1223 268 1176 c 0,12,13
 306 1099 306 1099 402 1026 c 0,14,15
 442 994 442 994 478 958 c 0,16,17
 560 872 560 872 560 748 c 128,-1,18
 560 624 560 624 461 560 c 0,19,20
 388 512 388 512 310 512 c 0,21,22
 308 512 308 512 306 511 c 0,23,24
 177 511 177 511 110 576 c 0,25,26
 42 642 42 642 42 735.5 c 128,-1,27
 42 829 42 829 108 895 c 128,-1,28
 174 961 174 961 267 961 c 1,29,-1
 267 911 l 1,30,31
 195 911 195 911 143.5 859.5 c 128,-1,32
 92 808 92 808 92 736 c 256,33,34
 92 662 92 662 147 611 c 0,35,36
 201 561 201 561 281 561 c 0,37,38
 283 561 283 561 284 561 c 0,39,40
 426 562 426 562 486 666 c 0,41,42
 510 706 510 706 510 764.5 c 128,-1,43
 510 823 510 823 486.5 862.5 c 128,-1,44
 463 902 463 902 428 935.5 c 0,45,46
 392 970 392 970 352 1002 c 0,47,48
 194 1128 194 1128 195 1291 c 0,49,50
 195 1392 195 1392 278.5 1479 c 128,-1,51
 362 1566 362 1566 510 1567 c 0,52,53
 591 1567 591 1567 668 1523.5 c 128,-1,54
 745 1480 745 1480 805 1402 c 0,55,56
 938 1229 938 1229 938 976 c 0,57,58
 938 663 938 663 744 311 c 1,59,60
 777 286 777 286 807 257 c 2,61,-1
 868 199 l 2,62,63
 946 125 946 125 1018 86.5 c 128,-1,64
 1090 48 1090 48 1190 48 c 0,65,66
 1368 48 1368 48 1455 167 c 0,67,68
 1543 286 1543 286 1544 470 c 0,69,70
 1544 652 1544 652 1434 874 c 0,71,72
 1324 1097 1324 1097 1324 1276 c 0,73,74
 1324 1406 1324 1406 1403.5 1487 c 128,-1,75
 1483 1568 1483 1568 1599 1569 c 1,76,-1
 1599 1519 l 1,77,78
 1504 1519 1504 1519 1439 1452.5 c 128,-1,79
 1374 1386 1374 1386 1374 1296 c 128,-1,80
 1374 1206 1374 1206 1390 1137.5 c 128,-1,81
 1406 1069 1406 1069 1430.5 1008 c 0,82,83
 1456 947 1456 947 1484 889 c 0,84,85
 1593 668 1593 668 1593 433 c 0,86,87
 1593 253 1593 253 1492 127 c 1,88,89
 1604 48 1604 48 1741 48 c 0,90,91
 1908 48 1908 48 1996 167 c 128,-1,92
 2084 286 2084 286 2084 468.5 c 128,-1,93
 2084 651 2084 651 1974 874 c 0,94,95
 1865 1095 1865 1095 1865 1276 c 0,96,97
 1865 1406 1865 1406 1944.5 1487 c 128,-1,98
 2024 1568 2024 1568 2140 1569 c 1,99,-1
 2140 1519 l 1,100,101
 2044 1518 2044 1518 1979 1452 c 128,-1,102
 1914 1386 1914 1386 1914 1297 c 128,-1,103
 1914 1208 1914 1208 1931 1138 c 0,104,105
 1957 1027 1957 1027 2005.5 929 c 128,-1,106
 2054 831 2054 831 2078 766 c 0,107,108
 2134 616 2134 616 2134 437 c 128,-1,109
 2134 258 2134 258 2034 128 c 128,-1,110
 1934 -2 1934 -2 1757 -3 c 0,111,112
 1756 -2 l 0,113,114
 1578 -2 1578 -2 1457 91 c 1,115,116
 1358 -2 1358 -2 1204 -2 c 0,117,118
 990 -2 990 -2 832 166 c 0,119,120
 737 267 737 267 667 300.5 c 128,-1,121
 597 334 597 334 537 334 c 0,122,123
 437 334 437 334 390.5 287 c 128,-1,124
 344 240 344 240 344 178 c 128,-1,125
 344 116 344 116 375.5 83 c 0,126,127
 406 50 406 50 440 50 c 0,128,129
 494 50 494 50 527.5 81.5 c 128,-1,130
 561 113 561 113 561 158 c 1,131,-1
 611 158 l 1,132,133
 610 91 610 91 563.5 45.5 c 128,-1,134
 517 0 517 0 452 0 c 256,135,136
 346 0 346 0 306 101 c 0,137,138
 294 132 294 132 294 170 c 256,139,140
 294 255 294 255 352 319.5 c 128,-1,141
 410 384 410 384 517 384 c 128,-1,142
 624 384 624 384 705 336 c 1,0,1
EndSplineSet
EndChar

StartChar: X
Encoding: 88 88 56
Width: 1434
Flags: HW
LayerCount: 2
Fore
SplineSet
1479 1490 m 1,0,1
 1423 1317 1423 1317 1309 1317 c 0,2,3
 1264 1317 1264 1317 1238 1344.5 c 128,-1,4
 1212 1372 1212 1372 1195 1406 c 2,5,-1
 1169 1457 l 2,6,7
 1137 1518 1137 1518 1089 1518 c 128,-1,8
 1041 1518 1041 1518 1007 1489.5 c 0,9,10
 973 1460 973 1460 942 1410 c 0,11,12
 888 1323 888 1323 848 1194.5 c 128,-1,13
 808 1066 808 1066 784 980 c 2,14,-1
 738 809 l 1,15,16
 785 809 785 809 825 809 c 0,17,18
 904 809 904 809 950 810 c 2,19,-1
 1021 812 l 1,20,21
 1024 819 1024 819 1031 833 c 128,-1,22
 1038 847 1038 847 1046 865 c 128,-1,23
 1054 883 1054 883 1064 903 c 2,24,-1
 1131 1044 l 1,25,-1
 1177 1022 l 1,26,-1
 1054 762 l 1,27,-1
 731 762 l 1,28,-1
 731 330 l 1,29,30
 732 206 732 206 803 129 c 128,-1,31
 874 52 874 52 974 50 c 1,32,-1
 1050 118 l 1,33,34
 1074 138 1074 138 1099 161 c 1,35,-1
 1131 123 l 1,36,-1
 1022 24 l 2,37,38
 1010 12 1010 12 998 0 c 1,39,40
 867 0 867 0 774 81 c 128,-1,41
 681 162 681 162 681 306 c 2,42,-1
 681 594 l 1,43,44
 600 296 600 296 553.5 197 c 128,-1,45
 507 98 507 98 462 49 c 128,-1,46
 417 0 417 0 373 0 c 0,47,48
 330 0 330 0 306 11 c 0,49,50
 262 31 262 31 236 79 c 2,51,-1
 196 152 l 2,52,53
 170 201 170 201 133 201 c 0,54,55
 55 201 55 201 11 64 c 1,56,-1
 -37 78 l 1,57,58
 19 251 19 251 133 251 c 0,59,60
 196 251 196 251 234 184 c 1,61,-1
 273 111 l 2,62,63
 305 50 305 50 362 50 c 0,64,65
 470 50 470 50 578 410 c 0,66,67
 601 486 601 486 623 570 c 2,68,-1
 668 738 l 1,69,-1
 674 762 l 1,70,-1
 372 762 l 1,71,-1
 263 530 l 1,72,-1
 217 552 l 1,73,-1
 344 805 l 1,74,-1
 557 807 l 2,75,76
 617 807 617 807 681 808 c 1,77,-1
 681 1238 l 1,78,79
 680 1362 680 1362 609 1439 c 128,-1,80
 538 1516 538 1516 438 1518 c 1,81,-1
 313 1407 l 1,82,-1
 281 1445 l 1,83,-1
 390 1544 l 2,84,85
 412 1564 412 1564 414 1568 c 1,86,87
 543 1568 543 1568 637 1475.5 c 128,-1,88
 731 1383 731 1383 731 1238 c 2,89,-1
 731 975 l 1,90,91
 808 1254 808 1254 863 1362 c 128,-1,92
 918 1470 918 1470 968 1519 c 128,-1,93
 1018 1568 1018 1568 1065.5 1568 c 0,94,95
 1112 1568 1112 1568 1136 1557 c 0,96,97
 1180 1537 1180 1537 1206 1489 c 2,98,-1
 1231 1445 l 1,99,100
 1257 1390 1257 1390 1276 1378.5 c 128,-1,101
 1295 1367 1295 1367 1309 1367 c 0,102,103
 1387 1367 1387 1367 1431 1504 c 1,104,-1
 1479 1490 l 1,0,1
EndSplineSet
EndChar

StartChar: Y
Encoding: 89 89 57
Width: 1494
Flags: HW
LayerCount: 2
Fore
SplineSet
898 209 m 1,0,1
 672 388 672 388 672 629 c 1,2,3
 758 737 758 737 791 804 c 0,4,5
 856 934 856 934 856 1035 c 0,6,7
 856 1228 856 1228 751.5 1372 c 0,8,9
 648 1516 648 1516 512 1516 c 0,10,-1
 510 1517 l 0,11,12
 376 1516 376 1516 306 1446 c 128,-1,13
 236 1376 236 1376 235.5 1299.5 c 0,14,15
 234 1223 234 1223 258 1176 c 0,16,17
 296 1099 296 1099 392 1026 c 0,18,19
 432 994 432 994 468 958 c 0,20,21
 550 872 550 872 550 748 c 128,-1,22
 550 624 550 624 451 560 c 0,23,24
 378 512 378 512 300 512 c 0,25,26
 298 512 298 512 296 511 c 0,27,28
 167 511 167 511 100 576 c 0,29,30
 32 642 32 642 32 735.5 c 128,-1,31
 32 829 32 829 98 895 c 128,-1,32
 164 961 164 961 257 961 c 1,33,-1
 257 911 l 1,34,35
 185 911 185 911 133.5 859.5 c 128,-1,36
 82 808 82 808 82 736 c 256,37,38
 82 662 82 662 137 611 c 0,39,40
 191 561 191 561 271 561 c 0,41,42
 273 561 273 561 274 561 c 0,43,44
 416 562 416 562 476 666 c 0,45,46
 500 706 500 706 500 764.5 c 128,-1,47
 500 823 500 823 476.5 862.5 c 128,-1,48
 453 902 453 902 418 935.5 c 0,49,50
 382 970 382 970 342 1002 c 0,51,52
 184 1128 184 1128 185 1291 c 0,53,54
 185 1392 185 1392 268.5 1479 c 128,-1,55
 352 1566 352 1566 500 1567 c 0,56,57
 586 1567 586 1567 661 1521.5 c 128,-1,58
 736 1476 736 1476 790 1402 c 0,59,60
 906 1245 906 1245 906 1064.5 c 128,-1,61
 906 884 906 884 786 712 c 1,62,-1
 720 622 l 1,63,64
 720 418 720 418 898 273 c 1,65,-1
 1275 568 l 1,66,67
 1270 625 1270 625 1264 681 c 2,68,-1
 1236 958 l 2,69,70
 1206 1261 1206 1261 1206 1547 c 1,71,-1
 1256 1547 l 1,72,73
 1256 1264 1256 1264 1276 1073 c 2,74,-1
 1303 802 l 1,75,76
 1338 477 1338 477 1338 338.5 c 128,-1,77
 1338 200 1338 200 1316.5 117.5 c 0,78,79
 1296 36 1296 36 1256 -36 c 0,80,81
 1177 -179 1177 -179 1038 -266 c 1,82,83
 898 -352 898 -352 712 -352 c 128,-1,84
 526 -352 526 -352 405 -272.5 c 128,-1,85
 284 -193 284 -193 284 -60 c 0,86,87
 284 4 284 4 329.5 51 c 128,-1,88
 375 98 375 98 442 99 c 256,89,90
 508 99 508 99 554.5 52.5 c 128,-1,91
 601 6 601 6 601 -60 c 1,92,-1
 551 -60 l 1,93,94
 552 -16 552 -16 520 16 c 128,-1,95
 488 48 488 48 454 48 c 0,96,97
 453 48 453 48 451 49 c 0,98,99
 396 49 396 49 365 17 c 0,100,101
 334 -16 334 -16 334 -65 c 0,102,103
 334 -170 334 -170 441 -236 c 128,-1,104
 548 -302 548 -302 736 -302 c 0,105,106
 965 -302 965 -302 1126.5 -129.5 c 128,-1,107
 1288 43 1288 43 1288 291 c 0,108,109
 1288 406 1288 406 1280 508 c 1,110,-1
 898 209 l 1,0,1
EndSplineSet
EndChar

StartChar: Z
Encoding: 90 90 58
Width: 1205
Flags: HW
LayerCount: 2
Fore
SplineSet
1158 166 m 1,0,1
 1041 0 1041 0 733 0 c 2,2,-1
 90 0 l 1,3,4
 90 295 90 295 390 559 c 1,5,6
 768 881 l 1,7,8
 826 933 826 933 892 1020 c 0,9,10
 1040 1214 1040 1214 1041 1438 c 0,11,12
 1041 1474 1041 1474 1037 1514 c 1,13,14
 858 1452 858 1452 706.5 1452 c 128,-1,15
 555 1452 555 1452 444.5 1508 c 128,-1,16
 334 1564 334 1564 261 1564 c 128,-1,17
 188 1564 188 1564 155 1536 c 1,18,19
 99 1486 99 1486 99 1429.5 c 128,-1,20
 99 1373 99 1373 124 1348 c 0,21,22
 168 1304 168 1304 216 1304 c 256,23,24
 263 1304 263 1304 298 1337.5 c 128,-1,25
 333 1371 333 1371 333 1421 c 1,26,-1
 383 1421 l 1,27,28
 382 1353 382 1353 334 1303.5 c 128,-1,29
 286 1254 286 1254 216 1254 c 256,30,31
 147 1254 147 1254 98 1303 c 128,-1,32
 49 1352 49 1352 49 1409 c 0,33,34
 49 1509 49 1509 107 1561.5 c 128,-1,35
 165 1614 165 1614 231 1614 c 128,-1,36
 297 1614 297 1614 333 1606 c 0,37,38
 390 1593 390 1593 441.5 1567.5 c 0,39,40
 494 1542 494 1542 554 1521 c 0,41,42
 613 1500 613 1500 731 1500 c 0,43,-1
 736 1500 l 0,44,45
 858 1500 858 1500 1036 1567 c 1,46,-1
 1086 1567 l 1,47,48
 1091 1487 1091 1487 1091 1445 c 0,49,50
 1091 1120 1091 1120 809 855 c 0,51,52
 728 779 728 779 642 708 c 2,53,-1
 472 566 l 1,54,55
 171 313 171 313 140 50 c 1,56,-1
 733 50 l 2,57,58
 1014 50 1014 50 1118 196 c 1,59,-1
 1158 166 l 1,0,1
EndSplineSet
EndChar

StartChar: bracketleft
Encoding: 91 91 59
Width: 536
Flags: HW
LayerCount: 2
Fore
SplineSet
552 -193 m 1,0,-1
 173 -193 l 1,1,-1
 173 1594 l 1,2,-1
 552 1594 l 1,3,-1
 552 1544 l 1,4,-1
 223 1544 l 1,5,-1
 223 -143 l 1,6,-1
 552 -143 l 1,7,-1
 552 -193 l 1,0,-1
EndSplineSet
EndChar

StartChar: backslash
Encoding: 92 92 60
Width: 838
Flags: HW
LayerCount: 2
Fore
SplineSet
119 1581 m 1,0,-1
 793 -197 l 1,1,-1
 745 -211 l 1,2,-1
 72 1563 l 1,3,-1
 119 1581 l 1,0,-1
EndSplineSet
EndChar

StartChar: bracketright
Encoding: 93 93 61
Width: 536
Flags: HW
LayerCount: 2
Fore
SplineSet
-16 -143 m 1,0,-1
 313 -143 l 1,1,-1
 313 1544 l 1,2,-1
 -16 1544 l 1,3,-1
 -16 1594 l 1,4,-1
 363 1594 l 1,5,-1
 363 -193 l 1,6,-1
 -16 -193 l 1,7,-1
 -16 -143 l 1,0,-1
EndSplineSet
EndChar

StartChar: asciicircum
Encoding: 94 94 62
Width: 1219
Flags: HW
LayerCount: 2
Fore
SplineSet
1148 581 m 1,0,-1
 634 1401 l 1,1,-1
 73 581 l 1,2,-1
 12 581 l 1,3,-1
 614 1459 l 1,4,-1
 656 1459 l 1,5,-1
 1207 581 l 1,6,-1
 1148 581 l 1,0,-1
EndSplineSet
EndChar

StartChar: underscore
Encoding: 95 95 63
Width: 1060
Flags: HW
LayerCount: 2
Fore
SplineSet
30 -352 m 1,0,-1
 30 -302 l 1,1,-1
 1030 -302 l 1,2,-1
 1030 -352 l 1,3,-1
 30 -352 l 1,0,-1
EndSplineSet
EndChar

StartChar: grave
Encoding: 96 96 64
Width: 380
Flags: HW
LayerCount: 2
Fore
SplineSet
-50 1534 m 1,0,-1
 -7 1593 l 1,1,-1
 271 1390 l 1,2,-1
 244 1346 l 1,3,-1
 -50 1534 l 1,0,-1
EndSplineSet
EndChar

StartChar: a
Encoding: 97 97 65
Width: 777
Flags: HW
LayerCount: 2
Fore
SplineSet
699 -31 m 1,0,1
 587 52 587 52 566 170 c 1,2,-1
 300 -31 l 1,3,4
 178 -9 178 -9 134 86 c 0,5,6
 119 118 119 118 119 161 c 0,7,8
 119 164 119 164 119 166 c 1,9,-1
 119 698 l 2,10,11
 119 887 119 887 255 990 c 2,12,-1
 572 1230 l 1,13,-1
 609 1210 l 1,14,-1
 609 244 l 2,15,16
 609 176 609 176 634.5 119 c 128,-1,17
 660 62 660 62 728 10 c 1,18,-1
 699 -31 l 1,0,1
169 166 m 2,19,20
 169 55 169 55 285 23 c 1,21,-1
 560 230 l 1,22,-1
 560 1165 l 1,23,-1
 291 956 l 2,24,25
 234 912 234 912 201.5 852.5 c 128,-1,26
 169 793 169 793 169 698 c 2,27,-1
 169 166 l 2,19,20
EndSplineSet
EndChar

StartChar: b
Encoding: 98 98 66
Width: 748
Flags: HW
LayerCount: 2
Fore
SplineSet
449 1229 m 1,0,1
 652 1005 652 1005 652 680 c 0,2,3
 652 519 652 519 625 434 c 0,4,5
 574 272 574 272 464 178 c 2,6,-1
 216 -31 l 1,7,-1
 162 0 l 1,8,-1
 162 1296 l 2,9,10
 162 1496 162 1496 306 1630 c 0,11,12
 349 1670 349 1670 399 1697 c 1,13,-1
 423 1653 l 1,14,15
 276 1572 276 1572 228 1412 c 0,16,17
 212 1358 212 1358 212 1296 c 2,18,-1
 212 1033 l 1,19,-1
 449 1229 l 1,0,1
212 968 m 1,20,-1
 212 31 l 1,21,-1
 431 211 l 1,22,23
 585 336 585 336 599 560 c 0,24,25
 603 624 603 624 603 686 c 0,26,27
 603 824 603 824 564 947.5 c 128,-1,28
 525 1071 525 1071 445 1161 c 1,29,-1
 212 968 l 1,20,-1
EndSplineSet
EndChar

StartChar: c
Encoding: 99 99 67
Width: 657
Flags: HW
LayerCount: 2
Fore
SplineSet
173 272 m 2,0,1
 173 86 173 86 342 26 c 1,2,-1
 544 183 l 1,3,-1
 574 141 l 1,4,-1
 355 -30 l 1,5,6
 246 2 246 2 184.5 77.5 c 128,-1,7
 123 153 123 153 123 272 c 2,8,-1
 123 798 l 2,9,10
 123 903 123 903 156.5 977.5 c 128,-1,11
 190 1052 190 1052 271 1109 c 2,12,-1
 445 1230 l 1,13,-1
 601 934 l 1,14,-1
 565 912 l 1,15,-1
 429 1160 l 1,16,-1
 300 1068 l 1,17,18
 173 980 173 980 173 798 c 2,19,-1
 173 272 l 2,0,1
EndSplineSet
EndChar

StartChar: d
Encoding: 100 100 68
Width: 708
Flags: HW
LayerCount: 2
Fore
SplineSet
141 -14 m 1,0,-1
 141 852 l 2,1,2
 141 917 141 917 176 954 c 1,3,-1
 312 1105 l 1,4,5
 136 1252 136 1252 104 1382 c 0,6,7
 92 1428 92 1428 92 1472 c 0,8,9
 92 1548 92 1548 123 1609 c 128,-1,10
 154 1670 154 1670 191 1696 c 1,11,-1
 219 1655 l 1,12,13
 169 1623 169 1623 148 1540 c 0,14,15
 141 1512 141 1512 141 1470 c 0,16,17
 141 1380 141 1380 192.5 1302 c 128,-1,18
 244 1224 244 1224 372.5 1116 c 128,-1,19
 501 1008 501 1008 546 936 c 0,20,21
 631 802 631 802 631 658 c 0,22,23
 631 513 631 513 604 438 c 0,24,25
 557 306 557 306 457 213 c 2,26,-1
 195 -31 l 1,27,-1
 141 -14 l 1,0,-1
577 547 m 0,28,29
 582 602 582 602 582 666 c 0,30,31
 582 785 582 785 517 889.5 c 128,-1,32
 452 994 452 994 350 1074 c 1,33,-1
 213 922 l 2,34,35
 191 898 191 898 191 852 c 2,36,-1
 191 31 l 1,37,-1
 424 246 l 1,38,39
 561 370 561 370 577 547 c 0,28,29
EndSplineSet
EndChar

StartChar: e
Encoding: 101 101 69
Width: 666
Flags: HW
LayerCount: 2
Fore
SplineSet
574 141 m 1,0,-1
 355 -30 l 1,1,2
 246 2 246 2 184.5 77.5 c 128,-1,3
 123 153 123 153 123 272 c 2,4,-1
 123 798 l 2,5,6
 123 903 123 903 156.5 977.5 c 128,-1,7
 190 1052 190 1052 271 1109 c 2,8,-1
 445 1230 l 1,9,-1
 605 927 l 1,10,-1
 173 601 l 1,11,-1
 173 272 l 2,12,13
 173 86 173 86 342 26 c 1,14,-1
 544 183 l 1,15,-1
 574 141 l 1,0,-1
173 664 m 1,16,-1
 545 939 l 1,17,-1
 429 1160 l 1,18,-1
 300 1068 l 1,19,20
 173 980 173 980 173 798 c 2,21,-1
 173 664 l 1,16,-1
EndSplineSet
EndChar

StartChar: f
Encoding: 102 102 70
Width: 545
Flags: HW
LayerCount: 2
Fore
SplineSet
244.5 1415 m 128,-1,1
 239 1388 239 1388 239 1329.5 c 128,-1,2
 239 1271 239 1271 282 1107 c 1,3,-1
 498 1107 l 1,4,-1
 498 1057 l 1,5,-1
 292 1057 l 1,6,7
 334 829 334 829 334 474 c 128,-1,8
 334 119 334 119 321.5 -20 c 128,-1,9
 309 -159 309 -159 296 -261 c 1,10,-1
 246 -255 l 1,11,12
 284 43 284 43 284 443 c 128,-1,13
 284 843 284 843 244 1051 c 1,14,15
 116 1029 116 1029 45 972 c 1,16,-1
 15 1012 l 1,17,18
 97 1075 97 1075 232 1100 c 1,19,20
 189 1269 189 1269 189 1333 c 0,21,22
 189 1563 189 1563 345 1563 c 0,23,24
 384 1563 384 1563 424 1538 c 128,-1,25
 464 1513 464 1513 485.5 1501.5 c 128,-1,26
 507 1490 507 1490 533.5 1490 c 128,-1,27
 560 1490 560 1490 560 1526.5 c 128,-1,28
 560 1563 560 1563 531 1616 c 1,29,-1
 575 1640 l 1,30,31
 610 1573 610 1573 610 1533.5 c 128,-1,32
 610 1494 610 1494 590.5 1467 c 128,-1,33
 571 1440 571 1440 537 1440 c 0,34,35
 491 1440 491 1440 433.5 1476 c 128,-1,36
 376 1512 376 1512 346 1512.5 c 128,-1,37
 316 1513 316 1513 296 1499 c 128,-1,38
 276 1485 276 1485 263 1463.5 c 128,-1,0
 250 1442 250 1442 244.5 1415 c 128,-1,1
EndSplineSet
EndChar

StartChar: g
Encoding: 103 103 71
Width: 765
Flags: HW
LayerCount: 2
Fore
SplineSet
321 -302 m 0,0,1
 554 -302 554 -302 632 -130 c 0,2,3
 656 -76 656 -76 656 -21 c 0,4,5
 656 56 656 56 616 156 c 2,6,-1
 584 234 l 2,7,8
 568 272 568 272 558 315 c 1,9,-1
 291 115 l 1,10,11
 170 137 170 137 126 232 c 0,12,13
 110 266 110 266 110 312 c 2,14,-1
 110 698 l 2,15,16
 110 887 110 887 246 990 c 2,17,-1
 563 1230 l 1,18,-1
 601 1210 l 1,19,-1
 601 381 l 2,20,21
 601 334 601 334 617.5 290 c 128,-1,22
 634 246 634 246 654 200 c 0,23,24
 707 77 707 77 707 -7 c 0,25,26
 707 -164 707 -164 604 -258 c 128,-1,27
 501 -352 501 -352 346 -352 c 0,28,29
 124 -352 124 -352 43 -248 c 0,30,31
 12 -208 12 -208 12 -165 c 0,32,33
 12 -97 12 -97 48 -59 c 0,34,35
 84 -21 84 -21 136 -21 c 0,36,37
 137 -21 137 -21 139 -21 c 257,38,39
 140 -21 140 -21 142 -21 c 0,40,41
 191 -21 191 -21 228 -58 c 0,42,43
 266 -96 266 -96 266 -148 c 1,44,-1
 216 -148 l 1,45,46
 216 -116 216 -116 193.5 -93.5 c 128,-1,47
 171 -71 171 -71 139 -71 c 256,48,49
 107 -71 107 -71 84.5 -93.5 c 128,-1,50
 62 -116 62 -116 62 -155 c 0,51,52
 62 -233 62 -233 156 -271 c 0,53,54
 232 -302 232 -302 321 -302 c 0,0,1
160 312 m 2,55,56
 160 201 160 201 276 169 c 1,57,-1
 551 380 l 1,58,-1
 551 1165 l 1,59,-1
 282 956 l 2,60,61
 225 912 225 912 192.5 852.5 c 128,-1,62
 160 793 160 793 160 698 c 2,63,-1
 160 312 l 2,55,56
EndSplineSet
EndChar

StartChar: h
Encoding: 104 104 72
Width: 829
Flags: HW
LayerCount: 2
Fore
SplineSet
511 1228 m 1,0,1
 702 1016 702 1016 702 780 c 2,2,-1
 702 422 l 2,3,4
 702 266 702 266 608 76 c 0,5,6
 514 -114 514 -114 364 -281 c 1,7,-1
 327 -248 l 1,8,9
 551 -2 551 -2 627 258 c 0,10,11
 652 344 652 344 652 422 c 2,12,-1
 652 780 l 2,13,14
 652 988 652 988 507 1158 c 1,15,-1
 212 915 l 1,16,-1
 212 0 l 1,17,-1
 163 0 l 1,18,-1
 163 1295 l 2,19,20
 163 1496 163 1496 306 1629 c 0,21,22
 349 1669 349 1669 398 1696 c 1,23,-1
 423 1651 l 1,24,25
 275 1572 275 1572 228 1412 c 0,26,27
 212 1358 212 1358 212 1295 c 2,28,-1
 212 980 l 1,29,-1
 511 1228 l 1,0,1
EndSplineSet
EndChar

StartChar: i
Encoding: 105 105 73
Width: 371
Flags: HW
LayerCount: 2
Fore
SplineSet
293 -31 m 1,0,1
 153 74 153 74 153 244 c 2,2,-1
 153 1200 l 1,3,-1
 203 1200 l 1,4,-1
 203 244 l 2,5,6
 203 176 203 176 228.5 119 c 128,-1,7
 254 62 254 62 322 10 c 1,8,-1
 293 -31 l 1,0,1
201 1341 m 1,9,-1
 154 1356 l 1,10,-1
 230 1538 l 1,11,-1
 291 1513 l 1,12,-1
 201 1341 l 1,9,-1
EndSplineSet
EndChar

StartChar: j
Encoding: 106 106 74
Width: 355
Flags: HW
LayerCount: 2
Fore
SplineSet
206 1229 m 1,0,-1
 206 348 l 2,1,2
 206 100 206 100 168 -31 c 0,3,4
 107 -242 107 -242 -83 -298 c 1,5,-1
 -97 -250 l 1,6,7
 70 -202 70 -202 122 -6 c 0,8,9
 151 101 151 101 153.5 197.5 c 128,-1,10
 156 294 156 294 156 348 c 2,11,-1
 156 1229 l 1,12,-1
 206 1229 l 1,0,-1
203 1341 m 1,13,-1
 156 1356 l 1,14,-1
 232 1538 l 1,15,-1
 293 1513 l 1,16,-1
 203 1341 l 1,13,-1
EndSplineSet
EndChar

StartChar: k
Encoding: 107 107 75
Width: 843
Flags: HW
LayerCount: 2
Fore
SplineSet
674 245 m 0,0,1
 674 105 674 105 792 11 c 1,2,-1
 762 -29 l 1,3,4
 650 57 650 57 630 169 c 0,5,6
 624 205 624 205 624 253 c 0,7,8
 624 325 624 325 640 432.5 c 128,-1,9
 656 540 656 540 656 594 c 0,10,11
 656 695 656 695 594.5 789 c 128,-1,12
 533 883 533 883 425 958 c 1,13,-1
 213 790 l 1,14,-1
 213 0 l 1,15,-1
 163 0 l 1,16,-1
 163 1296 l 2,17,18
 163 1496 163 1496 307 1630 c 0,19,20
 350 1670 350 1670 400 1697 c 1,21,-1
 424 1653 l 1,22,23
 278 1572 278 1572 230 1412 c 0,24,25
 214 1358 214 1358 213 1296 c 1,26,-1
 213 854 l 1,27,-1
 691 1229 l 1,28,-1
 719 1189 l 1,29,-1
 469 993 l 1,30,31
 596 881 596 881 636 819 c 0,32,33
 706 709 706 709 706 596 c 0,34,35
 706 550 706 550 690 435 c 128,-1,36
 674 320 674 320 674 245 c 0,0,1
EndSplineSet
EndChar

StartChar: l
Encoding: 108 108 76
Width: 375
Flags: HW
LayerCount: 2
Fore
SplineSet
423 1651 m 1,0,1
 275 1572 275 1572 228 1412 c 0,2,3
 212 1358 212 1358 212 1295 c 2,4,-1
 212 0 l 1,5,-1
 162 0 l 1,6,-1
 162 1295 l 2,7,8
 162 1495 162 1495 306 1629 c 0,9,10
 349 1669 349 1669 398 1696 c 1,11,-1
 423 1651 l 1,0,1
EndSplineSet
EndChar

StartChar: m
Encoding: 109 109 77
Width: 1254
Flags: HW
LayerCount: 2
Fore
SplineSet
161 997 m 2,0,1
 161 1122 161 1122 67 1187 c 1,2,-1
 95 1229 l 1,3,4
 171 1178 171 1178 200 1082 c 0,5,6
 211 1046 211 1046 211 1000 c 1,7,-1
 500 1226 l 1,8,9
 603 1111 603 1111 633 995 c 1,10,-1
 927 1226 l 1,11,12
 1054 1086 1054 1086 1096 920 c 0,13,14
 1111 862 1111 862 1111 801 c 256,15,16
 1111 720 1111 720 1095 525 c 128,-1,17
 1079 330 1079 330 1079 251 c 0,18,19
 1079 111 1079 111 1197 17 c 1,20,-1
 1167 -23 l 1,21,22
 1056 63 1056 63 1036 175 c 0,23,24
 1029 218 1029 218 1029 274 c 0,25,26
 1029 309 1029 309 1032 350 c 0,27,28
 1039 454 1039 454 1050 586.5 c 128,-1,29
 1061 719 1061 719 1061 786 c 0,30,31
 1061 986 1061 986 920 1157 c 1,32,-1
 645 941 l 1,33,34
 652 887 652 887 652 843 c 2,35,-1
 652 0 l 1,36,-1
 602 0 l 1,37,-1
 602 843 l 2,38,39
 602 1028 602 1028 493 1157 c 1,40,-1
 211 937 l 1,41,-1
 211 0 l 1,42,-1
 161 0 l 1,43,-1
 161 997 l 2,0,1
EndSplineSet
EndChar

StartChar: n
Encoding: 110 110 78
Width: 827
Flags: HW
LayerCount: 2
Fore
SplineSet
500 1226 m 1,0,1
 684 1024 684 1024 684 798 c 0,2,3
 684 710 684 710 668 527.5 c 128,-1,4
 652 345 652 345 652 251 c 0,5,6
 652 111 652 111 770 17 c 1,7,-1
 740 -23 l 1,8,9
 628 63 628 63 608 175 c 0,10,11
 602 211 602 211 602 265 c 0,12,13
 602 343 602 343 618 525 c 128,-1,14
 634 707 634 707 634 780 c 0,15,16
 634 986 634 986 493 1157 c 1,17,-1
 211 937 l 1,18,-1
 211 0 l 1,19,-1
 161 0 l 1,20,-1
 161 998 l 2,21,22
 161 1123 161 1123 67 1188 c 1,23,-1
 95 1230 l 1,24,25
 211 1151 211 1151 211 1000 c 1,26,-1
 500 1226 l 1,0,1
EndSplineSet
EndChar

StartChar: o
Encoding: 111 111 79
Width: 741
Flags: HW
LayerCount: 2
Fore
SplineSet
451 1229 m 1,0,1
 621 1116 621 1116 621 963 c 2,2,-1
 621 424 l 2,3,4
 621 323 621 323 570 265 c 0,5,6
 548 240 548 240 512 213 c 2,7,-1
 185 -31 l 1,8,-1
 131 -4 l 1,9,-1
 131 830 l 2,10,11
 131 987 131 987 240 1069 c 2,12,-1
 451 1229 l 1,0,1
269 1028 m 1,13,14
 181 962 181 962 181 830 c 2,15,-1
 181 27 l 1,16,-1
 484 248 l 2,17,18
 536 286 536 286 554 328.5 c 128,-1,19
 572 371 572 371 572 424 c 2,20,-1
 572 963 l 2,21,22
 572 1082 572 1082 451 1168 c 1,23,-1
 269 1028 l 1,13,14
EndSplineSet
EndChar

StartChar: p
Encoding: 112 112 80
Width: 877
Flags: HW
LayerCount: 2
Fore
SplineSet
110 115 m 0,0,1
 11 115 11 115 -9 0 c 1,2,-1
 -60 0 l 1,3,4
 -38 165 -38 165 110 165 c 0,5,6
 161 165 161 165 222 142 c 1,7,-1
 222 906 l 2,8,9
 222 959 222 959 195 1017.5 c 128,-1,10
 168 1076 168 1076 155.5 1107.5 c 0,11,12
 143 1138 143 1138 143 1168 c 0,13,14
 143 1224 143 1224 164 1258 c 128,-1,15
 185 1292 185 1292 238 1340 c 1,16,-1
 272 1302 l 1,17,18
 208 1246 208 1246 197 1206 c 0,19,20
 193 1191 193 1191 193 1169 c 0,21,22
 193 1135 193 1135 220 1076 c 2,23,-1
 243 1027 l 2,24,25
 255 1002 255 1002 263 974 c 1,26,-1
 568 1227 l 1,27,-1
 638 1146 l 2,28,29
 758 1006 758 1006 758 864 c 2,30,-1
 758 406 l 2,31,32
 758 224 758 224 642 131 c 2,33,-1
 443 -30 l 1,34,-1
 392 4 l 2,35,36
 346 34 346 34 272 70 c 1,37,-1
 272 -354 l 1,38,-1
 222 -354 l 1,39,-1
 222 91 l 1,40,41
 159 115 159 115 110 115 c 0,0,1
272 123 m 1,42,43
 343 92 343 92 380 69 c 2,44,-1
 441 32 l 1,45,-1
 610 169 l 2,46,47
 708 249 708 249 708 406 c 2,48,-1
 708 864 l 2,49,50
 708 944 708 944 676 1001 c 128,-1,51
 644 1058 644 1058 618 1091 c 1,52,-1
 562 1157 l 1,53,-1
 272 917 l 1,54,-1
 272 123 l 1,42,43
EndSplineSet
EndChar

StartChar: q
Encoding: 113 113 81
Width: 770
Flags: HW
LayerCount: 2
Fore
SplineSet
699 -352 m 1,0,1
 586 -268 586 -268 566 -154 c 0,2,3
 560 -117 560 -117 560 -77 c 2,4,-1
 560 165 l 1,5,-1
 300 -31 l 1,6,7
 178 -9 178 -9 134 86 c 0,8,9
 119 118 119 118 119 161 c 0,10,11
 119 164 119 164 119 166 c 1,12,-1
 119 697 l 2,13,14
 119 886 119 886 255 989 c 2,15,-1
 572 1229 l 1,16,-1
 609 1209 l 1,17,-1
 609 -77 l 2,18,19
 609 -145 609 -145 634.5 -202 c 128,-1,20
 660 -259 660 -259 728 -311 c 1,21,-1
 699 -352 l 1,0,1
169 166 m 2,22,23
 169 55 169 55 285 23 c 1,24,-1
 560 230 l 1,25,-1
 560 1164 l 1,26,-1
 291 955 l 2,27,28
 234 911 234 911 201.5 851.5 c 128,-1,29
 169 792 169 792 169 697 c 2,30,-1
 169 166 l 2,22,23
EndSplineSet
EndChar

StartChar: r
Encoding: 114 114 82
Width: 582
Flags: HW
LayerCount: 2
Fore
SplineSet
421 1226 m 1,0,1
 523 1110 523 1110 571 983 c 1,2,-1
 530 951 l 1,3,4
 494 1060 494 1060 417 1154 c 1,5,-1
 210 939 l 1,6,-1
 210 0 l 1,7,-1
 160 0 l 1,8,-1
 160 956 l 2,9,10
 160 1081 160 1081 66 1146 c 1,11,-1
 94 1188 l 1,12,13
 184 1130 184 1130 206 1006 c 1,14,-1
 421 1226 l 1,0,1
EndSplineSet
EndChar

StartChar: s
Encoding: 115 115 83
Width: 871
Flags: HW
LayerCount: 2
Fore
SplineSet
323 1085 m 1,0,-1
 129 899 l 1,1,-1
 331 655 l 1,2,3
 342 662 342 662 359 675 c 2,4,-1
 602 858 l 1,5,6
 652 821 652 821 693 758.5 c 128,-1,7
 734 696 734 696 764 629.5 c 128,-1,8
 794 563 794 563 794 479 c 0,9,10
 794 315 794 315 683 174.5 c 128,-1,11
 572 34 572 34 393 -31 c 1,12,13
 375 0 375 0 348 32 c 1,14,-1
 228 164 l 2,15,16
 114 288 114 288 114 397 c 256,17,18
 114 469 114 469 196 547 c 1,19,-1
 227 510 l 1,20,21
 163 448 163 448 163 396.5 c 128,-1,22
 163 345 163 345 190.5 297 c 128,-1,23
 218 249 218 249 257.5 204.5 c 128,-1,24
 297 160 297 160 340.5 117 c 128,-1,25
 384 74 384 74 415 29 c 1,26,27
 566 94 566 94 655 218 c 128,-1,28
 744 342 744 342 744 475.5 c 128,-1,29
 744 609 744 609 644 746 c 0,30,31
 620 779 620 779 602 797 c 1,32,-1
 323 590 l 1,33,-1
 61 901 l 1,34,-1
 327 1161 l 1,35,36
 386 1078 386 1078 424 1051 c 0,37,38
 487 1008 487 1008 546 1008 c 0,39,40
 652 1008 652 1008 716 1072 c 128,-1,41
 780 1136 780 1136 780 1229 c 256,42,43
 780 1321 780 1321 715.5 1385.5 c 128,-1,44
 651 1450 651 1450 557.5 1450 c 128,-1,45
 464 1450 464 1450 401 1385 c 128,-1,46
 338 1320 338 1320 337 1229 c 1,47,-1
 288 1229 l 1,48,49
 288 1338 288 1338 367.5 1418.5 c 128,-1,50
 447 1499 447 1499 557.5 1499 c 0,51,52
 668 1500 668 1500 749 1420 c 128,-1,53
 830 1340 830 1340 831 1227 c 0,54,55
 831 1116 831 1116 751 1036 c 128,-1,56
 671 956 671 956 549 956 c 128,-1,57
 427 956 427 956 323 1085 c 1,0,-1
EndSplineSet
EndChar

StartChar: t
Encoding: 116 116 84
Width: 584
Flags: HW
LayerCount: 2
Fore
SplineSet
465 -31 m 1,0,1
 233 35 233 35 233 272 c 2,2,-1
 232 1057 l 1,3,-1
 191 1057 l 2,4,5
 142 1057 142 1057 72 1001 c 0,6,7
 54 986 54 986 35 973 c 1,8,-1
 7 1015 l 1,9,10
 124 1107 124 1107 191 1107 c 2,11,-1
 235 1107 l 1,12,-1
 329 1436 l 1,13,-1
 377 1422 l 1,14,-1
 287 1107 l 1,15,-1
 561 1107 l 1,16,-1
 561 1057 l 1,17,-1
 282 1057 l 1,18,-1
 282 624 l 2,19,20
 282 463 282 463 282.5 267.5 c 128,-1,21
 283 72 283 72 477 18 c 1,22,-1
 465 -31 l 1,0,1
EndSplineSet
EndChar

StartChar: u
Encoding: 117 117 85
Width: 826
Flags: HW
LayerCount: 2
Fore
SplineSet
326 -28 m 1,0,1
 142 174 142 174 142 400 c 0,2,3
 142 487 142 487 158 684.5 c 128,-1,4
 174 882 174 882 174 977 c 0,5,6
 174 1118 174 1118 56 1211 c 1,7,-1
 86 1251 l 1,8,9
 198 1165 198 1165 218 1053 c 0,10,11
 224 1017 224 1017 224 963 c 0,12,13
 224 886 224 886 208 689 c 128,-1,14
 192 492 192 492 192 418 c 0,15,16
 192 206 192 206 333 41 c 1,17,-1
 615 260 l 1,18,-1
 615 1228 l 1,19,-1
 665 1228 l 1,20,-1
 665 206 l 2,21,22
 665 106 665 106 726 44 c 0,23,24
 743 26 743 26 759 16 c 1,25,-1
 731 -26 l 1,26,27
 658 18 658 18 627 118 c 0,28,29
 616 154 616 154 615 197 c 1,30,-1
 326 -28 l 1,0,1
EndSplineSet
EndChar

StartChar: v
Encoding: 118 118 86
Width: 761
Flags: HW
LayerCount: 2
Fore
SplineSet
491 1229 m 1,0,1
 646 1142 646 1142 646 929 c 2,2,-1
 646 527 l 2,3,4
 646 326 646 326 520 222 c 2,5,-1
 210 -34 l 1,6,-1
 157 0 l 1,7,-1
 157 1062 l 1,8,9
 158 1114 158 1114 116 1156 c 0,10,11
 100 1172 100 1172 78 1191 c 1,12,-1
 112 1229 l 1,13,14
 190 1160 190 1160 202 1108 c 0,15,16
 206 1088 206 1088 207 1062 c 1,17,-1
 207 31 l 1,18,-1
 488 260 l 2,19,20
 596 348 596 348 596 527 c 2,21,-1
 596 929 l 2,22,23
 596 1116 596 1116 467 1185 c 1,24,-1
 491 1229 l 1,0,1
EndSplineSet
EndChar

StartChar: w
Encoding: 119 119 87
Width: 1200
Flags: HW
LayerCount: 2
Fore
SplineSet
930 1229 m 1,0,1
 1085 1142 1085 1142 1085 929 c 2,2,-1
 1085 527 l 2,3,4
 1085 326 1085 326 959 222 c 2,5,-1
 649 -34 l 1,6,-1
 596 0 l 1,7,-1
 596 313 l 1,8,9
 566 260 566 260 520 222 c 2,10,-1
 210 -34 l 1,11,-1
 157 0 l 1,12,-1
 157 1062 l 1,13,14
 158 1114 158 1114 116 1156 c 0,15,16
 100 1172 100 1172 78 1191 c 1,17,-1
 112 1229 l 1,18,19
 190 1160 190 1160 202 1108 c 0,20,21
 206 1088 206 1088 207 1062 c 1,22,-1
 207 31 l 1,23,-1
 488 260 l 2,24,25
 596 348 596 348 596 527 c 2,26,-1
 596 928 l 2,27,28
 596 1115 596 1115 467 1184 c 1,29,-1
 491 1228 l 1,30,31
 646 1141 646 1141 646 928 c 2,32,-1
 646 31 l 1,33,-1
 927 260 l 2,34,35
 1035 348 1035 348 1035 527 c 2,36,-1
 1035 929 l 2,37,38
 1035 1116 1035 1116 906 1185 c 1,39,-1
 930 1229 l 1,0,1
EndSplineSet
EndChar

StartChar: x
Encoding: 120 120 88
Width: 786
Flags: HW
LayerCount: 2
Fore
SplineSet
510 999 m 2,0,1
 384 912 384 912 384 740 c 2,2,-1
 384 451 l 2,3,4
 384 312 384 312 480.5 227 c 128,-1,5
 577 142 577 142 725 135 c 1,6,-1
 723 85 l 1,7,8
 576 90 576 90 471.5 166.5 c 128,-1,9
 367 243 367 243 342 371 c 1,10,11
 315 319 315 319 277.5 275.5 c 128,-1,12
 240 232 240 232 206 188 c 0,13,14
 126 82 126 82 126 3 c 0,15,16
 126 -142 126 -142 208 -222 c 128,-1,17
 290 -302 290 -302 434.5 -302 c 128,-1,18
 579 -302 579 -302 647 -224 c 0,19,20
 673 -194 673 -194 673 -153.5 c 128,-1,21
 673 -113 673 -113 650.5 -92 c 128,-1,22
 628 -71 628 -71 596 -71 c 256,23,24
 564 -71 564 -71 541.5 -93.5 c 128,-1,25
 519 -116 519 -116 519 -148 c 1,26,-1
 469 -148 l 1,27,28
 469 -97 469 -97 505.5 -59 c 128,-1,29
 542 -21 542 -21 596 -21 c 257,30,31
 597 -21 597 -21 599 -21 c 0,32,33
 649 -21 649 -21 686 -58 c 0,34,35
 724 -96 724 -96 724 -151 c 0,36,37
 724 -257 724 -257 616 -311 c 0,38,39
 534 -352 534 -352 438 -352 c 0,40,41
 264 -352 264 -352 170 -260 c 0,42,43
 76 -167 76 -167 76 -15 c 0,44,45
 76 83 76 83 143 178 c 0,46,47
 172 219 172 219 205 257 c 0,48,49
 334 406 334 406 334 537 c 2,50,-1
 334 863 l 2,51,52
 334 1002 334 1002 237.5 1087 c 128,-1,53
 141 1172 141 1172 -6 1179 c 1,54,-1
 -4 1229 l 1,55,56
 146 1224 146 1224 250.5 1144 c 128,-1,57
 355 1064 355 1064 378 930 c 1,58,59
 412 992 412 992 481 1040 c 2,60,-1
 756 1230 l 1,61,-1
 784 1189 l 1,62,-1
 510 999 l 2,0,1
EndSplineSet
EndChar

StartChar: y
Encoding: 121 121 89
Width: 814
Flags: HW
LayerCount: 2
Fore
SplineSet
197 249 m 1,0,1
 275 213 275 213 340 174 c 1,2,-1
 586 373 l 1,3,-1
 586 864 l 2,4,5
 586 1000 586 1000 480 1114 c 2,6,-1
 409 1191 l 1,7,-1
 446 1227 l 1,8,-1
 516 1149 l 1,9,10
 590 1070 590 1070 613 999.5 c 128,-1,11
 636 929 636 929 636 864 c 2,12,-1
 636 381 l 2,13,14
 636 334 636 334 652.5 290 c 128,-1,15
 669 246 669 246 689 200 c 0,16,17
 742 77 742 77 742 -7 c 0,18,19
 742 -163 742 -163 638.5 -257.5 c 128,-1,20
 535 -352 535 -352 381 -352 c 0,21,22
 159 -352 159 -352 78 -248 c 0,23,24
 47 -208 47 -208 47 -165 c 0,25,26
 48 -97 48 -97 84 -59 c 0,27,28
 120 -21 120 -21 171 -21 c 0,29,30
 172 -21 172 -21 174 -21 c 257,31,32
 175 -21 175 -21 177 -21 c 0,33,34
 227 -21 227 -21 264 -58 c 0,35,36
 302 -96 302 -96 301 -148 c 1,37,-1
 251 -148 l 1,38,39
 251 -116 251 -116 228.5 -93.5 c 128,-1,40
 206 -71 206 -71 174 -71 c 256,41,42
 142 -71 142 -71 119.5 -93.5 c 128,-1,43
 97 -116 97 -116 97 -155 c 0,44,45
 97 -233 97 -233 192 -271 c 0,46,47
 268 -302 268 -302 356 -302 c 0,48,49
 511 -302 511 -302 601.5 -220.5 c 128,-1,50
 692 -139 692 -139 692 -12 c 0,51,52
 692 62 692 62 663 130 c 2,53,-1
 617 237 l 2,54,55
 600 275 600 275 592 316 c 1,56,-1
 341 115 l 1,57,-1
 305 138 l 1,58,59
 225 187 225 187 147 217 c 1,60,-1
 147 1062 l 1,61,62
 148 1114 148 1114 106 1156 c 0,63,64
 90 1172 90 1172 68 1191 c 1,65,-1
 102 1229 l 1,66,67
 180 1160 180 1160 192 1108 c 0,68,69
 196 1088 196 1088 197 1062 c 1,70,-1
 197 249 l 1,0,1
EndSplineSet
EndChar

StartChar: z
Encoding: 122 122 90
Width: 695
Flags: HW
LayerCount: 2
Fore
SplineSet
248 1242 m 1,0,1
 490 1138 490 1138 490 918 c 0,2,3
 490 773 490 773 287 547 c 1,4,5
 318 536 318 536 342 523 c 1,6,7
 463 640 463 640 617 738 c 1,8,-1
 643 696 l 1,9,10
 485 594 485 594 385 499 c 1,11,12
 590 367 590 367 590 77 c 0,13,14
 590 -74 590 -74 507 -213 c 128,-1,15
 424 -352 424 -352 304 -352 c 0,16,17
 207 -352 207 -352 142 -264 c 128,-1,18
 77 -176 77 -176 77 -25 c 0,19,20
 77 243 77 243 302 482 c 1,21,22
 255 506 255 506 195 521 c 1,23,24
 384 719 384 719 426 845 c 0,25,26
 440 890 440 890 440 936 c 0,27,28
 440 1022 440 1022 386 1085.5 c 128,-1,29
 332 1149 332 1149 254 1184 c 1,30,-1
 91 1054 l 1,31,-1
 61 1094 l 1,32,-1
 248 1242 l 1,0,1
346 459 m 1,33,34
 127 230 127 230 127 -25 c 1,35,36
 128 -151 128 -151 179 -226.5 c 128,-1,37
 230 -302 230 -302 293 -302 c 0,38,39
 402 -302 402 -302 471 -180.5 c 128,-1,40
 540 -59 540 -59 540 72 c 0,41,42
 540 342 540 342 346 459 c 1,33,34
EndSplineSet
EndChar

StartChar: braceleft
Encoding: 123 123 91
Width: 485
Flags: HW
LayerCount: 2
Fore
SplineSet
154 661 m 1,0,1
 255 583 255 583 255 426 c 2,2,-1
 255 38 l 2,3,4
 255 -75 255 -75 279.5 -116 c 128,-1,5
 304 -157 304 -157 337 -174 c 128,-1,6
 370 -191 370 -191 423 -191 c 1,7,-1
 423 -241 l 1,8,9
 422 -241 422 -241 421 -241 c 0,10,11
 239 -241 239 -241 213 -76 c 0,12,13
 205 -24 205 -24 205 38 c 2,14,-1
 205 426 l 2,15,16
 205 585 205 585 47 663 c 1,17,18
 178 724 178 724 198 824 c 0,19,20
 204 856 204 856 205 891 c 1,21,-1
 205 1294 l 2,22,23
 205 1435 205 1435 250 1501 c 128,-1,24
 295 1567 295 1567 423 1567 c 1,25,-1
 423 1517 l 1,26,27
 282 1516 282 1516 262 1388 c 0,28,29
 256 1346 256 1346 255 1294 c 1,30,-1
 255 891 l 2,31,32
 255 818 255 818 234 759.5 c 128,-1,33
 213 701 213 701 154 661 c 1,0,1
EndSplineSet
EndChar

StartChar: bar
Encoding: 124 124 92
Width: 400
Flags: HW
LayerCount: 2
Fore
SplineSet
175 1569 m 1,0,-1
 225 1569 l 1,1,-1
 225 -133 l 1,2,-1
 175 -133 l 1,3,-1
 175 1569 l 1,0,-1
EndSplineSet
EndChar

StartChar: braceright
Encoding: 125 125 93
Width: 485
Flags: HW
LayerCount: 2
Fore
SplineSet
230 426 m 2,0,1
 230 583 230 583 331 661 c 1,2,3
 272 701 272 701 251 759.5 c 128,-1,4
 230 818 230 818 230 891 c 2,5,-1
 230 1294 l 2,6,7
 230 1410 230 1410 205 1448.5 c 128,-1,8
 180 1487 180 1487 147 1502 c 128,-1,9
 114 1517 114 1517 62 1517 c 1,10,-1
 62 1567 l 1,11,12
 64 1567 l 0,13,14
 246 1567 246 1567 272 1410 c 0,15,16
 280 1360 280 1360 280 1294 c 2,17,-1
 280 891 l 2,18,19
 280 814 280 814 304 776 c 0,20,21
 346 707 346 707 438 663 c 1,22,23
 280 585 280 585 280 426 c 2,24,-1
 280 38 l 2,25,26
 280 -104 280 -104 240 -164 c 0,27,28
 190 -241 190 -241 65 -241 c 0,29,30
 63 -241 63 -241 62 -241 c 1,31,-1
 62 -191 l 1,32,33
 202 -191 202 -191 224 -55 c 0,34,35
 230 -13 230 -13 230 38 c 2,36,-1
 230 426 l 2,0,1
EndSplineSet
EndChar

StartChar: asciitilde
Encoding: 126 126 94
Width: 906
Flags: HW
LayerCount: 2
Fore
SplineSet
78 1262 m 1,0,1
 172 1443 172 1443 282 1443 c 0,2,3
 340 1443 340 1443 384.5 1424 c 128,-1,4
 429 1405 429 1405 469.5 1384 c 128,-1,5
 510 1363 510 1363 547 1347 c 128,-1,6
 584 1331 584 1331 625 1331 c 0,7,8
 725 1331 725 1331 810 1474 c 1,9,-1
 854 1448 l 1,10,11
 760 1281 760 1281 625 1281 c 0,12,13
 556 1281 556 1281 452 1337 c 128,-1,14
 348 1393 348 1393 286 1393 c 0,15,16
 200 1393 200 1393 122 1240 c 1,17,-1
 78 1262 l 1,0,1
EndSplineSet
EndChar

StartChar: exclamdown
Encoding: 161 161 95
Width: 397
Flags: HW
LayerCount: 2
Fore
SplineSet
170 -352 m 1,0,-1
 170 796 l 1,1,-1
 220 796 l 1,2,-1
 220 -352 l 1,3,-1
 170 -352 l 1,0,-1
190 1287 m 1,4,-1
 240 1283 l 1,5,-1
 217 985 l 1,6,-1
 167 989 l 1,7,-1
 190 1287 l 1,4,-1
EndSplineSet
EndChar

StartChar: cent
Encoding: 162 162 96
Width: 676
Flags: HW
LayerCount: 2
Fore
SplineSet
557 1065 m 1,0,-1
 421 1313 l 1,1,-1
 292 1221 l 1,2,3
 165 1133 165 1133 165 951 c 2,4,-1
 165 425 l 2,5,6
 165 287 165 287 301 198 c 0,7,8
 344 170 344 170 397 155 c 1,9,-1
 559 278 l 1,10,-1
 592 244 l 1,11,-1
 437 125 l 1,12,-1
 437 -86 l 1,13,-1
 387 -86 l 1,14,-1
 387 109 l 1,15,16
 261 144 261 144 188 229.5 c 128,-1,17
 115 315 115 315 115 425 c 2,18,-1
 115 951 l 2,19,20
 115 1056 115 1056 148.5 1130.5 c 128,-1,21
 182 1205 182 1205 263 1262 c 2,22,-1
 387 1348 l 1,23,-1
 387 1616 l 1,24,-1
 437 1616 l 1,25,-1
 437 1383 l 1,26,-1
 593 1087 l 1,27,-1
 557 1065 l 1,0,-1
EndSplineSet
EndChar

StartChar: sterling
Encoding: 163 163 97
Width: 1529
Flags: HW
LayerCount: 2
Fore
SplineSet
553 629 m 1,0,-1
 110 629 l 1,1,-1
 110 673 l 1,2,-1
 546 673 l 1,3,4
 526 748 526 748 484 822 c 0,5,6
 413 946 413 946 382.5 1027 c 128,-1,7
 352 1108 352 1108 352 1194 c 0,8,9
 352 1360 352 1360 467.5 1464 c 128,-1,10
 583 1568 583 1568 767 1568 c 256,11,12
 942 1568 942 1568 1040 1461 c 128,-1,13
 1138 1354 1138 1354 1138 1204 c 1,14,-1
 1088 1204 l 1,15,16
 1088 1332 1088 1332 1003.5 1425 c 128,-1,17
 919 1518 919 1518 761.5 1518 c 128,-1,18
 604 1518 604 1518 503 1428.5 c 128,-1,19
 402 1339 402 1339 402 1208.5 c 128,-1,20
 402 1078 402 1078 467 958 c 1,21,-1
 504 892 l 2,22,23
 533 841 533 841 559 789.5 c 128,-1,24
 585 738 585 738 598 673 c 1,25,-1
 970 673 l 1,26,-1
 970 629 l 1,27,-1
 604 629 l 1,28,29
 607 606 607 606 607 578 c 0,30,31
 607 518 607 518 570.5 465 c 128,-1,32
 534 412 534 412 477 380 c 1,33,34
 585 352 585 352 713 260 c 1,35,-1
 783 208 l 1,36,37
 996 46 996 46 1125 46 c 0,38,39
 1126 46 l 0,40,41
 1254 46 1254 46 1342 143 c 128,-1,42
 1430 240 1430 240 1429 351 c 1,43,-1
 1479 351 l 1,44,45
 1479 224 1479 224 1376 111 c 0,46,47
 1272 -2 1272 -2 1130 -3 c 0,48,49
 1129 -3 1129 -3 1128 -3 c 0,50,51
 987 -3 987 -3 838 104 c 1,52,-1
 666 232 l 1,53,54
 513 343 513 343 376 343 c 0,55,56
 375 343 375 343 374 343 c 129,-1,57
 373 343 373 343 371 343 c 0,58,59
 185 343 185 343 139 218 c 0,60,61
 126 182 126 182 126 148 c 0,62,63
 126 86 126 86 162 48 c 128,-1,64
 198 10 198 10 247 9 c 1,65,-1
 247 -41 l 1,66,67
 177 -41 177 -41 126.5 9.5 c 128,-1,68
 76 60 76 60 76 145 c 256,69,70
 76 300 76 300 218 364 c 0,71,72
 268 386 268 386 342 392 c 1,73,-1
 342 393 l 1,74,75
 424 394 424 394 491 449 c 0,76,77
 557 503 557 503 557 572 c 0,78,79
 557 606 557 606 553 629 c 1,0,-1
EndSplineSet
EndChar

StartChar: currency
Encoding: 164 164 98
Width: 1148
Flags: HW
LayerCount: 2
Fore
SplineSet
293 498 m 1,0,1
 232 574 232 574 232 680.5 c 128,-1,2
 232 787 232 787 298 865 c 1,3,4
 124 1000 l 1,5,-1
 154 1040 l 1,6,-1
 332 901 l 1,7,8
 368 932 368 932 430 968 c 128,-1,9
 492 1004 492 1004 576 1083 c 1,10,11
 637 1030 637 1030 731 990 c 1,12,13
 791 961 791 961 830 916 c 1,14,-1
 994 1044 l 1,15,-1
 1024 1004 l 1,16,-1
 860 876 l 1,17,18
 906 802 906 802 906 704 c 128,-1,19
 906 606 906 606 822 520 c 1,20,21
 1014 370 1014 370 1038 353 c 1,22,-1
 1008 313 l 1,23,-1
 786 486 l 1,24,25
 756 460 756 460 724 439 c 2,26,-1
 661 398 l 1,27,-1
 662 398 l 1,28,29
 599 360 599 360 551 306 c 1,30,31
 516 336 516 336 490 352 c 2,32,-1
 441 383 l 1,33,-1
 442 383 l 1,34,-1
 389 415 l 2,35,36
 356 436 356 436 328 461 c 1,37,-1
 138 313 l 1,38,-1
 108 353 l 1,39,-1
 293 498 l 1,0,1
325.5 816 m 128,-1,41
 282 759 282 759 282 699 c 0,42,43
 282 604 282 604 320 550 c 128,-1,44
 358 496 358 496 417 457 c 1,45,-1
 508 402 l 2,46,47
 530 389 530 389 547 375 c 1,48,49
 568 396 568 396 588 410 c 2,50,-1
 712 492 l 1,51,52
 856 593 856 593 856 716 c 0,53,54
 856 788 856 788 818 850 c 128,-1,55
 780 912 780 912 728 936 c 0,56,57
 626 983 626 983 578 1017 c 1,58,59
 518 962 518 962 443.5 917.5 c 128,-1,40
 369 873 369 873 325.5 816 c 128,-1,41
EndSplineSet
EndChar

StartChar: yen
Encoding: 165 165 99
Width: 1479
Flags: HW
LayerCount: 2
Fore
SplineSet
846 628 m 1,0,1
 816 454 816 454 782 372 c 0,2,3
 718 215 718 215 618 142.5 c 128,-1,4
 518 70 518 70 364 70 c 128,-1,5
 210 70 210 70 139 130.5 c 128,-1,6
 68 191 68 191 68 269.5 c 128,-1,7
 68 348 68 348 113.5 395 c 128,-1,8
 159 442 159 442 226 442 c 256,9,10
 292 442 292 442 338.5 395.5 c 128,-1,11
 385 349 385 349 385 283 c 1,12,-1
 335 283 l 1,13,14
 336 328 336 328 304 360 c 128,-1,15
 272 392 272 392 238 392 c 0,16,17
 180 392 180 392 149 359.5 c 0,18,19
 118 326 118 326 118 288 c 0,20,21
 118 212 118 212 176.5 166 c 128,-1,22
 235 120 235 120 349 120 c 0,23,24
 557 120 557 120 666 270 c 0,25,26
 746 382 746 382 792 620 c 1,27,-1
 792 628 l 1,28,-1
 394 628 l 1,29,-1
 394 678 l 1,30,-1
 791 678 l 1,31,32
 787 803 787 803 770 913 c 1,33,-1
 394 913 l 1,34,-1
 394 963 l 1,35,-1
 762 963 l 1,36,37
 701 1290 701 1290 536 1421 c 1,38,-1
 193 1154 l 1,39,-1
 161 1194 l 1,40,-1
 533 1483 l 1,41,42
 780 1326 780 1326 830 842 c 1,43,-1
 839 887 l 1,44,45
 892 1174 892 1174 950 1294 c 0,46,47
 1037 1474 1037 1474 1206 1474 c 0,48,49
 1303 1474 1303 1474 1362.5 1413 c 128,-1,50
 1422 1352 1422 1352 1422 1267 c 128,-1,51
 1422 1182 1422 1182 1374 1130 c 128,-1,52
 1326 1078 1326 1078 1257 1077 c 256,53,54
 1191 1077 1191 1077 1145 1123 c 128,-1,55
 1099 1169 1099 1169 1099 1235 c 1,56,-1
 1149 1235 l 1,57,58
 1149 1190 1149 1190 1180.5 1158.5 c 128,-1,59
 1212 1127 1212 1127 1246 1127 c 0,60,61
 1304 1127 1304 1127 1338 1165.5 c 128,-1,62
 1372 1204 1372 1204 1372 1271 c 128,-1,63
 1372 1338 1372 1338 1326.5 1381 c 128,-1,64
 1281 1424 1281 1424 1208 1424 c 0,65,66
 1077 1424 1077 1424 1004 1288 c 0,67,68
 951 1189 951 1189 905 963 c 1,69,-1
 1254 963 l 1,70,-1
 1254 913 l 1,71,-1
 895 913 l 1,72,-1
 889 877 l 1,73,74
 879 828 879 828 871 778 c 2,75,-1
 855 678 l 1,76,-1
 1254 678 l 1,77,-1
 1254 628 l 1,78,-1
 846 628 l 1,0,1
EndSplineSet
EndChar

StartChar: brokenbar
Encoding: 166 166 100
Width: 408
Flags: HW
LayerCount: 2
Fore
SplineSet
229 1364 m 1,0,-1
 229 637 l 1,1,-1
 179 637 l 1,2,-1
 179 1364 l 1,3,-1
 229 1364 l 1,0,-1
229 315 m 1,4,-1
 229 -338 l 1,5,-1
 179 -338 l 1,6,-1
 179 315 l 1,7,-1
 229 315 l 1,4,-1
EndSplineSet
EndChar

StartChar: section
Encoding: 167 167 101
Width: 908
Flags: HW
LayerCount: 2
Fore
SplineSet
507 263 m 1,0,1
 602 322 602 322 670 420 c 1,2,3
 626 490 626 490 567 554 c 1,4,-1
 320 804 l 2,5,6
 100 1027 100 1027 100 1234 c 0,7,8
 100 1372 100 1372 196 1470 c 0,9,10
 292 1567 292 1567 429 1567 c 0,11,-1
 432 1567 l 256,12,13
 570 1567 570 1567 667.5 1469.5 c 128,-1,14
 765 1372 765 1372 765 1234 c 1,15,-1
 715 1234 l 1,16,17
 715 1351 715 1351 632 1434 c 128,-1,18
 549 1517 549 1517 432 1517 c 256,19,20
 316 1517 316 1517 233 1434 c 128,-1,21
 150 1351 150 1351 150 1234 c 0,22,23
 150 1043 150 1043 337 847 c 1,24,-1
 610 1055 l 1,25,26
 660 1018 660 1018 701 955 c 128,-1,27
 742 892 742 892 760 852 c 0,28,29
 802 759 802 759 802 654.5 c 128,-1,30
 802 550 802 550 724 424 c 1,31,32
 801 293 801 293 801 146 c 0,33,34
 801 -2 801 -2 680 -152 c 0,35,36
 560 -302 560 -302 400 -351 c 1,37,-1
 359 -316 l 1,38,39
 408 -306 408 -306 465 -277 c 1,40,41
 440 -225 440 -225 348 -167 c 1,42,-1
 270 -119 l 1,43,44
 121 -30 121 -30 121 77 c 0,45,46
 121 149 121 149 203 227 c 1,47,-1
 234 190 l 1,48,49
 170 128 170 128 170 84.5 c 0,50,51
 170 42 170 42 190 12 c 0,52,53
 226 -40 226 -40 289.5 -78 c 128,-1,54
 353 -116 353 -116 390 -140 c 0,55,56
 481 -200 481 -200 506 -254 c 1,57,58
 678 -146 678 -146 734 42 c 0,59,60
 752 100 752 100 752 159 c 0,61,62
 752 268 752 268 693 379 c 1,63,64
 571 219 571 219 401 166 c 1,65,-1
 360 201 l 1,66,67
 409 211 409 211 466 240 c 1,68,69
 442 292 442 292 350 350 c 1,70,-1
 271 398 l 1,71,72
 122 487 122 487 122 594 c 0,73,74
 122 666 122 666 204 744 c 1,75,-1
 235 707 l 1,76,77
 171 645 171 645 171 601.5 c 128,-1,78
 171 558 171 558 191.5 528.5 c 128,-1,79
 212 499 212 499 244 473.5 c 128,-1,80
 276 448 276 448 315 425 c 2,81,-1
 391 378 l 1,82,83
 482 318 482 318 507 263 c 1,0,1
697 466 m 1,84,85
 753 569 753 569 753 687 c 0,86,87
 753 808 753 808 652 943 c 0,88,89
 628 976 628 976 610 994 c 1,90,91
 592 982 592 982 560 958 c 2,92,-1
 367 817 l 1,93,-1
 540 647 l 2,94,95
 640 548 640 548 697 466 c 1,84,85
EndSplineSet
EndChar

StartChar: dieresis
Encoding: 168 168 102
Width: 598
Flags: HW
LayerCount: 2
Fore
SplineSet
428 1341 m 1,0,-1
 381 1356 l 1,1,-1
 457 1538 l 1,2,-1
 518 1513 l 1,3,-1
 428 1341 l 1,0,-1
149 1341 m 1,4,-1
 102 1356 l 1,5,-1
 178 1538 l 1,6,-1
 239 1513 l 1,7,-1
 149 1341 l 1,4,-1
EndSplineSet
EndChar

StartChar: copyright
Encoding: 169 169 103
Width: 1542
Flags: HW
LayerCount: 2
Fore
SplineSet
77 727 m 256,0,1
 77 871 77 871 131.5 997 c 128,-1,2
 186 1123 186 1123 280.5 1217.5 c 128,-1,3
 375 1312 375 1312 501 1366.5 c 128,-1,4
 627 1421 627 1421 771 1421 c 256,5,6
 915 1421 915 1421 1041 1366.5 c 128,-1,7
 1167 1312 1167 1312 1261.5 1217.5 c 128,-1,8
 1356 1123 1356 1123 1410.5 997 c 128,-1,9
 1465 871 1465 871 1465 727 c 256,10,11
 1465 583 1465 583 1410.5 457 c 128,-1,12
 1356 331 1356 331 1261.5 236.5 c 128,-1,13
 1167 142 1167 142 1041 87.5 c 128,-1,14
 915 33 915 33 771 33 c 256,15,16
 627 33 627 33 501 87.5 c 128,-1,17
 375 142 375 142 280.5 236.5 c 128,-1,18
 186 331 186 331 131.5 457 c 128,-1,19
 77 583 77 583 77 727 c 256,0,1
127 727 m 256,20,21
 127 594 127 594 177.5 476.5 c 128,-1,22
 228 359 228 359 315.5 271.5 c 128,-1,23
 403 184 403 184 520.5 133.5 c 128,-1,24
 638 83 638 83 771 83 c 256,25,26
 904 83 904 83 1021.5 133.5 c 128,-1,27
 1139 184 1139 184 1226.5 271.5 c 128,-1,28
 1314 359 1314 359 1364.5 476.5 c 128,-1,29
 1415 594 1415 594 1415 727 c 256,30,31
 1415 860 1415 860 1364.5 977.5 c 128,-1,32
 1314 1095 1314 1095 1226.5 1182.5 c 128,-1,33
 1139 1270 1139 1270 1021.5 1320.5 c 128,-1,34
 904 1371 904 1371 771 1371 c 256,35,36
 638 1371 638 1371 520.5 1320.5 c 128,-1,37
 403 1270 403 1270 315.5 1182.5 c 128,-1,38
 228 1095 228 1095 177.5 977.5 c 128,-1,39
 127 860 127 860 127 727 c 256,20,21
740 220 m 1,40,41
 508 286 508 286 508 522 c 2,42,-1
 508 799 l 2,43,44
 508 904 508 904 541.5 978.5 c 128,-1,45
 575 1053 575 1053 656 1110 c 2,46,-1
 830 1231 l 1,47,-1
 986 935 l 1,48,-1
 950 913 l 1,49,-1
 814 1161 l 1,50,-1
 685 1069 l 1,51,52
 558 981 558 981 558 799 c 2,53,-1
 558 522 l 2,54,55
 558 336 558 336 727 276 c 1,56,-1
 974 468 l 1,57,-1
 1008 429 l 1,58,-1
 740 220 l 1,40,41
EndSplineSet
EndChar

StartChar: ordfeminine
Encoding: 170 170 104
Width: 701
Flags: HW
LayerCount: 2
Fore
SplineSet
588 463 m 1,0,1
 507 523 507 523 475 598 c 1,2,-1
 291 463 l 1,3,4
 170 485 170 485 126 580 c 0,5,6
 110 614 110 614 110 660 c 2,7,-1
 110 779 l 2,8,9
 110 968 110 968 246 1071 c 1,10,-1
 461 1230 l 1,11,-1
 498 1210 l 1,12,-1
 498 738 l 2,13,14
 498 670 498 670 523.5 613 c 128,-1,15
 549 556 549 556 617 504 c 1,16,-1
 588 463 l 1,0,1
458 650 m 1,17,18
 449 688 449 688 449 738 c 2,19,-1
 449 1165 l 1,20,-1
 282 1037 l 2,21,22
 225 993 225 993 192.5 933.5 c 128,-1,23
 160 874 160 874 160 779 c 2,24,-1
 160 660 l 2,25,26
 160 549 160 549 276 517 c 1,27,-1
 458 650 l 1,17,18
EndSplineSet
EndChar

StartChar: guillemotleft
Encoding: 171 171 105
Width: 712
Flags: HW
LayerCount: 2
Fore
SplineSet
555 88 m 1,0,-1
 317 503 l 1,1,-1
 565 922 l 1,2,-1
 609 896 l 1,3,-1
 376 501 l 1,4,-1
 599 112 l 1,5,-1
 555 88 l 1,0,-1
315 88 m 1,6,-1
 77 503 l 1,7,-1
 325 922 l 1,8,-1
 369 896 l 1,9,-1
 136 501 l 1,10,-1
 359 112 l 1,11,-1
 315 88 l 1,6,-1
EndSplineSet
EndChar

StartChar: logicalnot
Encoding: 172 172 106
Width: 1125
Flags: HW
LayerCount: 2
Fore
SplineSet
980 1132 m 1,0,-1
 979 679 l 1,1,-1
 929 679 l 1,2,-1
 929 1082 l 1,3,-1
 120 1082 l 1,4,-1
 120 1132 l 1,5,-1
 980 1132 l 1,0,-1
EndSplineSet
EndChar

StartChar: registered
Encoding: 174 174 107
Width: 1542
Flags: HW
LayerCount: 2
Fore
SplineSet
77 727 m 256,0,1
 77 871 77 871 131.5 997 c 128,-1,2
 186 1123 186 1123 280.5 1217.5 c 128,-1,3
 375 1312 375 1312 501 1366.5 c 128,-1,4
 627 1421 627 1421 771 1421 c 256,5,6
 915 1421 915 1421 1041 1366.5 c 128,-1,7
 1167 1312 1167 1312 1261.5 1217.5 c 128,-1,8
 1356 1123 1356 1123 1410.5 997 c 128,-1,9
 1465 871 1465 871 1465 727 c 256,10,11
 1465 583 1465 583 1410.5 457 c 128,-1,12
 1356 331 1356 331 1261.5 236.5 c 128,-1,13
 1167 142 1167 142 1041 87.5 c 128,-1,14
 915 33 915 33 771 33 c 256,15,16
 627 33 627 33 501 87.5 c 128,-1,17
 375 142 375 142 280.5 236.5 c 128,-1,18
 186 331 186 331 131.5 457 c 128,-1,19
 77 583 77 583 77 727 c 256,0,1
916 1226 m 1,20,21
 1018 1110 1018 1110 1066 983 c 1,22,-1
 1025 951 l 1,23,24
 989 1060 989 1060 912 1154 c 1,25,-1
 705 939 l 1,26,-1
 705 86 l 1,27,28
 738 83 738 83 771 83 c 0,29,30
 904 83 904 83 1021.5 133.5 c 128,-1,31
 1139 184 1139 184 1226.5 271.5 c 128,-1,32
 1314 359 1314 359 1364.5 476.5 c 128,-1,33
 1415 594 1415 594 1415 727 c 256,34,35
 1415 860 1415 860 1364.5 977.5 c 128,-1,36
 1314 1095 1314 1095 1226.5 1182.5 c 128,-1,37
 1139 1270 1139 1270 1021.5 1320.5 c 128,-1,38
 904 1371 904 1371 771 1371 c 256,39,40
 638 1371 638 1371 520.5 1320.5 c 128,-1,41
 403 1270 403 1270 315.5 1182.5 c 128,-1,42
 228 1095 228 1095 177.5 977.5 c 128,-1,43
 127 860 127 860 127 734 c 0,44,45
 127 493 127 493 276.5 314 c 128,-1,46
 426 135 426 135 655 93 c 1,47,-1
 655 956 l 2,48,49
 655 1081 655 1081 561 1146 c 1,50,-1
 589 1188 l 1,51,52
 679 1130 679 1130 701 1006 c 1,53,-1
 916 1226 l 1,20,21
EndSplineSet
EndChar

StartChar: macron
Encoding: 175 175 108
Width: 769
Flags: HW
LayerCount: 2
Fore
SplineSet
759 1402 m 1,0,-1
 759 1358 l 1,1,-1
 10 1358 l 1,2,-1
 10 1402 l 1,3,-1
 759 1402 l 1,0,-1
EndSplineSet
EndChar

StartChar: degree
Encoding: 176 176 109
Width: 529
Flags: HW
LayerCount: 2
Fore
SplineSet
68 1498 m 256,0,1
 68 1580 68 1580 125.5 1637.5 c 128,-1,2
 183 1695 183 1695 264 1695 c 256,3,4
 346 1695 346 1695 403.5 1637.5 c 128,-1,5
 461 1580 461 1580 461 1498 c 256,6,7
 461 1417 461 1417 403.5 1359.5 c 128,-1,8
 346 1302 346 1302 264 1302 c 256,9,10
 183 1302 183 1302 125.5 1359.5 c 128,-1,11
 68 1417 68 1417 68 1498 c 256,0,1
118 1498 m 256,12,13
 118 1437 118 1437 160.5 1394.5 c 128,-1,14
 203 1352 203 1352 264 1352 c 256,15,16
 324 1352 324 1352 368 1394 c 0,17,18
 411 1436 411 1436 411 1498 c 256,19,20
 411 1559 411 1559 368 1602 c 128,-1,21
 325 1645 325 1645 264 1645 c 256,22,23
 202 1646 202 1646 160 1602 c 0,24,25
 118 1558 118 1558 118 1498 c 256,12,13
EndSplineSet
EndChar

StartChar: plusminus
Encoding: 177 177 110
Width: 1108
Flags: HW
LayerCount: 2
Fore
SplineSet
524 728 m 1,0,-1
 524 1132 l 1,1,-1
 574 1132 l 1,2,-1
 574 728 l 1,3,-1
 980 728 l 1,4,-1
 980 678 l 1,5,-1
 574 678 l 1,6,-1
 574 275 l 1,7,-1
 524 275 l 1,8,-1
 524 678 l 1,9,-1
 120 678 l 1,10,-1
 120 728 l 1,11,-1
 524 728 l 1,0,-1
127 79 m 1,12,-1
 127 123 l 1,13,-1
 987 123 l 1,14,-1
 987 79 l 1,15,-1
 127 79 l 1,12,-1
EndSplineSet
EndChar

StartChar: twosuperior
Encoding: 178 178 111
Width: 764
Flags: HW
LayerCount: 2
Fore
SplineSet
173 689 m 1,0,1
 173 681 173 681 185 660 c 1,2,-1
 132 660 l 1,3,4
 120 698 120 698 120 745 c 128,-1,5
 120 792 120 792 154 840 c 0,6,7
 210 919 210 919 352 1017 c 0,8,9
 412 1058 412 1058 464 1104 c 0,10,11
 584 1210 584 1210 585 1319 c 1,12,13
 585 1457 585 1457 476 1501 c 0,14,15
 436 1517 436 1517 386 1517 c 0,16,17
 294 1517 294 1517 229 1464.5 c 128,-1,18
 164 1412 164 1412 164 1330 c 256,19,20
 164 1288 164 1288 184.5 1264.5 c 128,-1,21
 205 1241 205 1241 234.5 1241 c 128,-1,22
 264 1241 264 1241 285.5 1263.5 c 128,-1,23
 307 1286 307 1286 307 1318 c 1,24,-1
 356 1318 l 1,25,26
 356 1265 356 1265 321 1228.5 c 128,-1,27
 286 1192 286 1192 235 1192 c 128,-1,28
 184 1192 184 1192 149.5 1228 c 128,-1,29
 115 1264 115 1264 115 1324 c 0,30,31
 115 1432 115 1432 194 1499 c 128,-1,32
 273 1566 273 1566 361 1566 c 0,33,34
 511 1566 511 1566 572.5 1496 c 128,-1,35
 634 1426 634 1426 634 1336.5 c 128,-1,36
 634 1247 634 1247 602.5 1191.5 c 128,-1,37
 571 1136 571 1136 523 1091 c 128,-1,38
 475 1046 475 1046 417.5 1007 c 128,-1,39
 360 968 360 968 308 928 c 0,40,41
 187 834 187 834 171 743 c 1,42,43
 221 755 221 755 259 755 c 0,44,45
 310 755 310 755 387 732 c 128,-1,46
 464 709 464 709 507.5 709 c 128,-1,47
 551 709 551 709 581 735 c 128,-1,48
 611 761 611 761 611 799.5 c 128,-1,49
 611 838 611 838 586.5 860.5 c 128,-1,50
 562 883 562 883 527 883 c 1,51,-1
 527 933 l 1,52,53
 583 933 583 933 622 896 c 128,-1,54
 661 859 661 859 661 816 c 0,55,56
 661 745 661 745 617 702.5 c 128,-1,57
 573 660 573 660 523 660 c 0,58,59
 521 660 521 660 520 659 c 0,60,61
 458 659 458 659 387 683 c 0,62,63
 315 707 315 707 265.5 707 c 128,-1,64
 216 707 216 707 173 689 c 1,0,1
EndSplineSet
EndChar

StartChar: threesuperior
Encoding: 179 179 112
Width: 815
Flags: HW
LayerCount: 2
Fore
SplineSet
512 1147 m 1,0,1
 723 1084 723 1084 723 898 c 0,2,3
 723 784 723 784 633 711 c 128,-1,4
 543 638 543 638 410.5 638 c 128,-1,5
 278 638 278 638 192 703.5 c 128,-1,6
 106 769 106 769 106 870 c 0,7,8
 106 933 106 933 138.5 967 c 128,-1,9
 171 1001 171 1001 207 1001 c 0,10,11
 265 1001 265 1001 299.5 968.5 c 128,-1,12
 334 936 334 936 334 888 c 1,13,-1
 284 888 l 1,14,15
 284 914 284 914 265 932.5 c 128,-1,16
 246 951 246 951 219.5 951 c 128,-1,17
 193 951 193 951 174.5 929.5 c 128,-1,18
 156 908 156 908 156 870 c 256,19,20
 156 790 156 790 225.5 739 c 128,-1,21
 295 688 295 688 409.5 688 c 128,-1,22
 524 688 524 688 599 748 c 0,23,24
 673 808 673 808 673 902 c 0,25,26
 673 1000 673 1000 586 1058 c 0,27,28
 500 1114 500 1114 373 1120 c 1,29,-1
 371 1170 l 1,30,31
 624 1197 624 1197 624 1359 c 0,32,33
 624 1442 624 1442 556.5 1487.5 c 128,-1,34
 489 1533 489 1533 388.5 1533 c 128,-1,35
 288 1533 288 1533 222 1486 c 128,-1,36
 156 1439 156 1439 156 1370 c 256,37,38
 156 1336 156 1336 172 1317.5 c 128,-1,39
 188 1299 188 1299 211 1299 c 256,40,41
 234 1299 234 1299 250 1315 c 128,-1,42
 266 1331 266 1331 266 1354 c 1,43,-1
 316 1354 l 1,44,45
 316 1309 316 1309 286 1279 c 128,-1,46
 256 1249 256 1249 211 1249 c 256,47,48
 166 1249 166 1249 136 1280.5 c 128,-1,49
 106 1312 106 1312 106 1364 c 0,50,51
 106 1463 106 1463 185 1523 c 0,52,53
 263 1583 263 1583 380 1583 c 0,54,-1
 384 1583 l 257,55,56
 584 1583 584 1583 652 1456 c 0,57,58
 674 1414 674 1414 674 1367 c 0,59,60
 674 1209 674 1209 512 1147 c 1,0,1
EndSplineSet
EndChar

StartChar: acute
Encoding: 180 180 113
Width: 380
Flags: HW
LayerCount: 2
Fore
SplineSet
136 1346 m 1,0,-1
 109 1390 l 1,1,-1
 387 1593 l 1,2,-1
 430 1534 l 1,3,-1
 136 1346 l 1,0,-1
EndSplineSet
EndChar

StartChar: mu
Encoding: 181 181 114
Width: 868
Flags: HW
LayerCount: 2
Fore
SplineSet
197 977 m 0,0,1
 197 1118 197 1118 79 1211 c 1,2,-1
 109 1251 l 1,3,4
 220 1165 220 1165 240 1053 c 0,5,6
 247 1009 247 1009 247 951 c 0,7,8
 247 915 247 915 244 872 c 0,9,10
 237 763 237 763 226 627.5 c 128,-1,11
 215 492 215 492 215 418 c 0,12,13
 215 206 215 206 356 41 c 1,14,-1
 638 260 l 1,15,-1
 638 1228 l 1,16,-1
 688 1228 l 1,17,-1
 688 206 l 2,18,19
 688 106 688 106 749 44 c 0,20,21
 766 26 766 26 782 16 c 1,22,-1
 754 -26 l 1,23,24
 681 18 681 18 650 118 c 0,25,26
 639 154 639 154 638 197 c 1,27,-1
 349 -28 l 1,28,29
 265 65 265 65 215 176 c 1,30,-1
 215 -3 l 2,31,32
 215 -193 215 -193 358 -313 c 1,33,-1
 325 -352 l 1,34,35
 166 -216 166 -216 166 -3 c 2,36,-1
 166 366 l 1,37,38
 165 374 165 374 165 382 c 2,39,-1
 165 397 l 2,40,41
 165 488 165 488 181 685 c 128,-1,42
 197 882 197 882 197 977 c 0,0,1
EndSplineSet
EndChar

StartChar: paragraph
Encoding: 182 182 115
Width: 1336
Flags: HW
LayerCount: 2
Fore
SplineSet
733 1487 m 2,0,1
 108 1487 108 1487 108 1089 c 0,2,3
 108 867 108 867 301 769 c 0,4,5
 356 741 356 741 414 717 c 2,6,-1
 526 669 l 1,7,8
 719 585 719 585 719 414 c 0,9,10
 719 315 719 315 643 258 c 128,-1,11
 567 201 567 201 463 201 c 1,12,-1
 463 251 l 1,13,14
 546 251 546 251 607.5 293.5 c 128,-1,15
 669 336 669 336 669 406.5 c 0,16,17
 668 476 668 476 642 518 c 0,18,19
 594 593 594 593 476 641 c 2,20,-1
 364 686 l 2,21,22
 219 745 219 745 165 803 c 128,-1,23
 111 861 111 861 84.5 927 c 128,-1,24
 58 993 58 993 58 1103 c 0,25,26
 58 1212 58 1212 109 1298 c 0,27,28
 251 1536 251 1536 733 1537 c 2,29,-1
 1270 1537 l 1,30,-1
 1270 1487 l 1,31,-1
 1144 1487 l 1,32,-1
 1144 102 l 2,33,34
 1144 -99 1144 -99 1001 -232 c 0,35,36
 958 -272 958 -272 909 -299 c 1,37,-1
 884 -254 l 1,38,39
 1032 -174 1032 -174 1079 -14 c 0,40,41
 1095 40 1095 40 1095 102 c 2,42,-1
 1095 1487 l 1,43,-1
 926 1487 l 1,44,-1
 926 0 l 1,45,-1
 876 0 l 1,46,-1
 876 1487 l 1,47,-1
 733 1487 l 2,0,1
EndSplineSet
EndChar

StartChar: periodcentered
Encoding: 183 183 116
Width: 351
Flags: HW
LayerCount: 2
Fore
SplineSet
190 731 m 1,0,-1
 140 735 l 1,1,-1
 163 1033 l 1,2,-1
 213 1029 l 1,3,-1
 190 731 l 1,0,-1
EndSplineSet
EndChar

StartChar: cedilla
Encoding: 184 184 117
Width: 362
Flags: HW
LayerCount: 2
Fore
SplineSet
84 -77 m 1,0,-1
 192 9 l 1,1,-1
 274 9 l 1,2,-1
 168 -75 l 1,3,4
 216 -87 216 -87 245 -127 c 128,-1,5
 274 -167 274 -167 274 -209 c 0,6,7
 274 -286 274 -286 227.5 -331 c 128,-1,8
 181 -376 181 -376 115 -376 c 1,9,-1
 115 -326 l 1,10,11
 159 -326 159 -326 191.5 -295 c 128,-1,12
 224 -264 224 -264 224 -219 c 128,-1,13
 224 -174 224 -174 191 -143.5 c 128,-1,14
 158 -113 158 -113 94 -113 c 1,15,-1
 84 -77 l 1,0,-1
EndSplineSet
EndChar

StartChar: onesuperior
Encoding: 185 185 118
Width: 422
Flags: HW
LayerCount: 2
Fore
SplineSet
181 661 m 1,0,1
 238 795 238 795 238 1077 c 2,2,-1
 238 1524 l 1,3,-1
 170 1469 l 1,4,5
 118 1429 118 1429 87 1377 c 1,6,-1
 42 1401 l 1,7,8
 76 1459 76 1459 134 1503 c 2,9,-1
 250 1589 l 1,10,-1
 288 1569 l 1,11,-1
 288 1077 l 2,12,13
 288 869 288 869 268.5 779 c 128,-1,14
 249 689 249 689 228 639 c 1,15,-1
 181 661 l 1,0,1
EndSplineSet
EndChar

StartChar: ordmasculine
Encoding: 186 186 119
Width: 626
Flags: HW
LayerCount: 2
Fore
SplineSet
356 1229 m 1,0,1
 526 1116 526 1116 526 963 c 2,2,-1
 526 841 l 2,3,4
 526 740 526 740 475 682 c 0,5,6
 453 657 453 657 417 630 c 2,7,-1
 192 464 l 1,8,-1
 138 491 l 1,9,-1
 138 908 l 2,10,11
 138 1065 138 1065 247 1147 c 2,12,-1
 356 1229 l 1,0,1
276 1106 m 1,13,14
 188 1040 188 1040 188 908 c 2,15,-1
 188 522 l 1,16,-1
 389 665 l 2,17,18
 441 703 441 703 459 745.5 c 128,-1,19
 477 788 477 788 477 841 c 2,20,-1
 477 963 l 2,21,22
 477 1082 477 1082 356 1168 c 1,23,-1
 276 1106 l 1,13,14
EndSplineSet
EndChar

StartChar: guillemotright
Encoding: 187 187 120
Width: 712
Flags: HW
LayerCount: 2
Fore
SplineSet
353 112 m 1,0,-1
 576 501 l 1,1,-1
 343 896 l 1,2,-1
 387 922 l 1,3,-1
 635 503 l 1,4,-1
 397 88 l 1,5,-1
 353 112 l 1,0,-1
113 112 m 1,6,-1
 336 501 l 1,7,-1
 103 896 l 1,8,-1
 147 922 l 1,9,-1
 395 503 l 1,10,-1
 157 88 l 1,11,-1
 113 112 l 1,6,-1
EndSplineSet
EndChar

StartChar: onequarter
Encoding: 188 188 121
Width: 1367
Flags: HW
LayerCount: 2
Fore
SplineSet
1079 1329 m 1,0,-1
 219 -25 l 1,1,-1
 181 1 l 1,2,-1
 1041 1357 l 1,3,-1
 1079 1329 l 1,0,-1
195 427 m 1,4,5
 252 561 252 561 252 843 c 2,6,-1
 252 1290 l 1,7,-1
 184 1235 l 1,8,9
 132 1195 132 1195 101 1143 c 1,10,-1
 56 1167 l 1,11,12
 90 1225 90 1225 148 1269 c 2,13,-1
 264 1355 l 1,14,-1
 302 1335 l 1,15,-1
 302 843 l 2,16,17
 302 635 302 635 282.5 545 c 128,-1,18
 263 455 263 455 242 405 c 1,19,-1
 195 427 l 1,4,5
1186 255 m 1,20,-1
 1309 255 l 1,21,-1
 1309 205 l 1,22,-1
 1186 205 l 1,23,-1
 1186 1 l 1,24,-1
 1136 1 l 1,25,-1
 1136 205 l 1,26,-1
 702 205 l 1,27,-1
 702 255 l 2,28,29
 702 337 702 337 748 437 c 1,30,-1
 770 483 l 1,31,-1
 1046 930 l 1,32,33
 1121 898 1121 898 1153.5 832.5 c 128,-1,34
 1186 767 1186 767 1186 664 c 2,35,-1
 1186 255 l 1,20,-1
805 442 m 2,36,37
 752 357 752 357 752 255 c 1,38,-1
 1136 255 l 1,39,-1
 1136 664 l 2,40,41
 1136 814 1136 814 1064 861 c 1,42,-1
 805 442 l 2,36,37
EndSplineSet
EndChar

StartChar: onehalf
Encoding: 189 189 122
Width: 1506
Flags: HW
LayerCount: 2
Fore
SplineSet
1079 1329 m 1,0,-1
 219 -25 l 1,1,-1
 181 1 l 1,2,-1
 1041 1357 l 1,3,-1
 1079 1329 l 1,0,-1
195 427 m 1,4,5
 252 561 252 561 252 843 c 2,6,-1
 252 1290 l 1,7,-1
 184 1235 l 1,8,9
 132 1195 132 1195 101 1143 c 1,10,-1
 56 1167 l 1,11,12
 90 1225 90 1225 148 1269 c 2,13,-1
 264 1355 l 1,14,-1
 302 1335 l 1,15,-1
 302 843 l 2,16,17
 302 635 302 635 282.5 545 c 128,-1,18
 263 455 263 455 242 405 c 1,19,-1
 195 427 l 1,4,5
937 27 m 1,20,21
 937 19 937 19 949 -2 c 1,22,-1
 896 -2 l 1,23,24
 884 36 884 36 884 83 c 128,-1,25
 884 130 884 130 918 178 c 0,26,27
 974 257 974 257 1116 355 c 0,28,29
 1176 396 1176 396 1228 442 c 0,30,31
 1348 548 1348 548 1349 657 c 1,32,33
 1349 795 1349 795 1240 839 c 0,34,35
 1200 855 1200 855 1150 855 c 0,36,37
 1058 855 1058 855 993 802.5 c 128,-1,38
 928 750 928 750 928 668 c 256,39,40
 928 626 928 626 948.5 602.5 c 128,-1,41
 969 579 969 579 998.5 579 c 128,-1,42
 1028 579 1028 579 1049.5 601.5 c 128,-1,43
 1071 624 1071 624 1071 656 c 1,44,-1
 1120 656 l 1,45,46
 1120 603 1120 603 1085 566.5 c 128,-1,47
 1050 530 1050 530 999 530 c 128,-1,48
 948 530 948 530 913.5 566 c 128,-1,49
 879 602 879 602 879 662 c 0,50,51
 879 770 879 770 958 837 c 128,-1,52
 1037 904 1037 904 1125 904 c 0,53,54
 1275 904 1275 904 1336.5 834 c 128,-1,55
 1398 764 1398 764 1398 674.5 c 128,-1,56
 1398 585 1398 585 1366.5 529.5 c 128,-1,57
 1335 474 1335 474 1287 429 c 128,-1,58
 1239 384 1239 384 1181.5 345 c 128,-1,59
 1124 306 1124 306 1072 266 c 0,60,61
 951 172 951 172 935 81 c 1,62,63
 985 93 985 93 1023 93 c 0,64,65
 1074 93 1074 93 1151 70 c 128,-1,66
 1228 47 1228 47 1271.5 47 c 128,-1,67
 1315 47 1315 47 1345 73 c 128,-1,68
 1375 99 1375 99 1375 137.5 c 128,-1,69
 1375 176 1375 176 1350.5 198.5 c 128,-1,70
 1326 221 1326 221 1291 221 c 1,71,-1
 1291 271 l 1,72,73
 1347 271 1347 271 1386 234 c 128,-1,74
 1425 197 1425 197 1425 154 c 0,75,76
 1425 83 1425 83 1380 38 c 1,77,78
 1336 -5 1336 -5 1271 -5 c 0,79,80
 1242 -5 1242 -5 1208 4 c 0,81,82
 1178 12 1178 12 1128.5 28.5 c 128,-1,83
 1079 45 1079 45 1029.5 45 c 128,-1,84
 980 45 980 45 937 27 c 1,20,21
EndSplineSet
EndChar

StartChar: threequarters
Encoding: 190 190 123
Width: 1671
Flags: HW
LayerCount: 2
Fore
SplineSet
1384 1329 m 1,0,-1
 524 -25 l 1,1,-1
 486 1 l 1,2,-1
 1346 1357 l 1,3,-1
 1384 1329 l 1,0,-1
1491 255 m 1,4,-1
 1614 255 l 1,5,-1
 1614 205 l 1,6,-1
 1491 205 l 1,7,-1
 1491 1 l 1,8,-1
 1441 1 l 1,9,-1
 1441 205 l 1,10,-1
 1007 205 l 1,11,-1
 1007 255 l 2,12,13
 1007 337 1007 337 1053 437 c 1,14,-1
 1075 483 l 1,15,-1
 1351 930 l 1,16,17
 1426 898 1426 898 1458.5 832.5 c 128,-1,18
 1491 767 1491 767 1491 664 c 2,19,-1
 1491 255 l 1,4,-1
1110 442 m 2,20,21
 1057 357 1057 357 1057 255 c 1,22,-1
 1441 255 l 1,23,-1
 1441 664 l 2,24,25
 1441 814 1441 814 1369 861 c 1,26,-1
 1110 442 l 2,20,21
503 922 m 1,27,28
 714 858 714 858 714 672 c 0,29,30
 714 558 714 558 624.5 486 c 0,31,32
 536 414 536 414 402 414 c 0,33,-1
 399 413 l 0,34,35
 267 412 267 412 182 478 c 0,36,37
 97 543 97 543 97 643 c 0,38,39
 97 708 97 708 129.5 742 c 128,-1,40
 162 776 162 776 198 776 c 0,41,42
 257 776 257 776 291.5 743.5 c 128,-1,43
 326 711 326 711 325 663 c 1,44,-1
 275 663 l 1,45,46
 275 689 275 689 256 707.5 c 128,-1,47
 237 726 237 726 210.5 726 c 128,-1,48
 184 726 184 726 165.5 704.5 c 128,-1,49
 147 683 147 683 147 645 c 256,50,51
 147 566 147 566 216.5 515 c 128,-1,52
 286 464 286 464 400 463 c 0,53,54
 402 463 402 463 404 463 c 0,55,56
 516 462 516 462 589 522 c 0,57,58
 664 582 664 582 664 679 c 128,-1,59
 664 776 664 776 578 832.5 c 128,-1,60
 492 889 492 889 364 895 c 1,61,-1
 362 945 l 1,62,63
 615 972 615 972 615 1134 c 1,64,65
 616 1217 616 1217 548.5 1262.5 c 128,-1,66
 481 1308 481 1308 379.5 1308 c 128,-1,67
 278 1308 278 1308 212 1261 c 0,68,69
 147 1215 147 1215 147 1147 c 0,70,71
 147 1111 147 1111 163 1092.5 c 128,-1,72
 179 1074 179 1074 202 1074 c 256,73,74
 225 1074 225 1074 241 1090 c 128,-1,75
 257 1106 257 1106 257 1129 c 1,76,-1
 307 1129 l 1,77,78
 307 1084 307 1084 277 1054 c 128,-1,79
 247 1024 247 1024 202 1024 c 256,80,81
 157 1024 157 1024 127 1055.5 c 0,82,83
 97 1086 97 1086 97 1138 c 0,84,85
 97 1236 97 1236 176 1297 c 128,-1,86
 255 1358 255 1358 375 1358 c 256,87,88
 574 1358 574 1358 642 1231 c 0,89,90
 665 1188 665 1188 665 1139 c 0,91,92
 665 1057 665 1057 620 1004 c 0,93,94
 575 949 575 949 503 922 c 1,27,28
EndSplineSet
EndChar

StartChar: Agrave
Encoding: 192 192 124
Width: 1434
Flags: HW
LayerCount: 2
Fore
SplineSet
788 634 m 1,0,-1
 907 524 l 1,1,-1
 1095 666 l 1,2,-1
 1095 1118 l 2,3,4
 1095 1425 1095 1425 1257 1529 c 0,5,6
 1316 1567 1316 1567 1403 1567 c 1,7,-1
 1403 1518 l 1,8,9
 1267 1518 1267 1518 1206 1404 c 128,-1,10
 1145 1290 1145 1290 1145 1118 c 2,11,-1
 1145 344 l 2,12,13
 1145 180 1145 180 1271 76 c 0,14,15
 1309 44 1309 44 1353 16 c 1,16,-1
 1325 -25 l 1,17,18
 1213 51 1213 51 1172 106 c 0,19,20
 1095 212 1095 212 1095 338 c 2,21,-1
 1095 607 l 1,22,-1
 905 459 l 1,23,-1
 758 594 l 1,24,25
 629 430 629 430 570 363 c 1,26,-1
 458 240 l 1,27,-1
 354 135 l 1,28,29
 246 32 246 32 164 -24 c 1,30,-1
 127 11 l 1,31,32
 310 148 310 148 508 365 c 0,33,34
 827 713 827 713 939 988 c 0,35,36
 977 1081 977 1081 977 1152 c 0,37,38
 977 1296 977 1296 856 1406.5 c 128,-1,39
 735 1517 735 1517 574.5 1517 c 128,-1,40
 414 1517 414 1517 338 1447.5 c 128,-1,41
 262 1378 262 1378 262 1300.5 c 128,-1,42
 262 1223 262 1223 286 1176 c 0,43,44
 324 1099 324 1099 420 1026 c 0,45,46
 460 994 460 994 495 958 c 0,47,48
 577 872 577 872 577 748 c 128,-1,49
 577 624 577 624 478 560 c 0,50,51
 404 512 404 512 326 512 c 0,52,53
 324 512 324 512 323 511 c 0,54,55
 195 511 195 511 128 576 c 0,56,57
 59 642 59 642 59 737 c 0,58,59
 59 830 59 830 125 895 c 0,60,61
 191 961 191 961 284 961 c 1,62,-1
 284 911 l 1,63,64
 212 911 212 911 160.5 859.5 c 128,-1,65
 109 808 109 808 109 733 c 0,66,67
 109 661 109 661 163 611 c 128,-1,68
 217 561 217 561 298 561 c 0,69,70
 300 561 300 561 301 561 c 0,71,72
 444 562 444 562 504 666 c 0,73,74
 528 705 528 705 528 762 c 0,75,76
 528 822 528 822 504 862 c 128,-1,77
 480 902 480 902 445 935.5 c 0,78,79
 410 970 410 970 370 1002 c 0,80,81
 212 1128 212 1128 212 1291 c 0,82,83
 212 1396 212 1396 302.5 1481 c 0,84,85
 394 1566 394 1566 570 1566 c 0,86,-1
 571 1567 l 0,87,88
 747 1568 747 1568 886 1448 c 0,89,90
 1026 1328 1026 1328 1026 1146 c 128,-1,91
 1026 964 1026 964 788 634 c 1,0,-1
753 1872 m 1,92,-1
 796 1931 l 1,93,-1
 1074 1728 l 1,94,-1
 1047 1684 l 1,95,-1
 753 1872 l 1,92,-1
EndSplineSet
EndChar

StartChar: Aacute
Encoding: 193 193 125
Width: 1434
Flags: HW
LayerCount: 2
Fore
SplineSet
788 634 m 1,0,-1
 907 524 l 1,1,-1
 1095 666 l 1,2,-1
 1095 1118 l 2,3,4
 1095 1425 1095 1425 1257 1529 c 0,5,6
 1316 1567 1316 1567 1403 1567 c 1,7,-1
 1403 1518 l 1,8,9
 1267 1518 1267 1518 1206 1404 c 128,-1,10
 1145 1290 1145 1290 1145 1118 c 2,11,-1
 1145 344 l 2,12,13
 1145 180 1145 180 1271 76 c 0,14,15
 1309 44 1309 44 1353 16 c 1,16,-1
 1325 -25 l 1,17,18
 1213 51 1213 51 1172 106 c 0,19,20
 1095 212 1095 212 1095 338 c 2,21,-1
 1095 607 l 1,22,-1
 905 459 l 1,23,-1
 758 594 l 1,24,25
 629 430 629 430 570 363 c 1,26,-1
 458 240 l 1,27,-1
 354 135 l 1,28,29
 246 32 246 32 164 -24 c 1,30,-1
 127 11 l 1,31,32
 310 148 310 148 508 365 c 0,33,34
 827 713 827 713 939 988 c 0,35,36
 977 1081 977 1081 977 1152 c 0,37,38
 977 1296 977 1296 856 1406.5 c 128,-1,39
 735 1517 735 1517 574.5 1517 c 128,-1,40
 414 1517 414 1517 338 1447.5 c 128,-1,41
 262 1378 262 1378 262 1300.5 c 128,-1,42
 262 1223 262 1223 286 1176 c 0,43,44
 324 1099 324 1099 420 1026 c 0,45,46
 460 994 460 994 495 958 c 0,47,48
 577 872 577 872 577 748 c 128,-1,49
 577 624 577 624 478 560 c 0,50,51
 404 512 404 512 326 512 c 0,52,53
 324 512 324 512 323 511 c 0,54,55
 195 511 195 511 128 576 c 0,56,57
 59 642 59 642 59 737 c 0,58,59
 59 830 59 830 125 895 c 0,60,61
 191 961 191 961 284 961 c 1,62,-1
 284 911 l 1,63,64
 212 911 212 911 160.5 859.5 c 128,-1,65
 109 808 109 808 109 733 c 0,66,67
 109 661 109 661 163 611 c 128,-1,68
 217 561 217 561 298 561 c 0,69,70
 300 561 300 561 301 561 c 0,71,72
 444 562 444 562 504 666 c 0,73,74
 528 705 528 705 528 762 c 0,75,76
 528 822 528 822 504 862 c 128,-1,77
 480 902 480 902 445 935.5 c 0,78,79
 410 970 410 970 370 1002 c 0,80,81
 212 1128 212 1128 212 1291 c 0,82,83
 212 1396 212 1396 302.5 1481 c 0,84,85
 394 1566 394 1566 570 1566 c 0,86,-1
 571 1567 l 0,87,88
 747 1568 747 1568 886 1448 c 0,89,90
 1026 1328 1026 1328 1026 1146 c 128,-1,91
 1026 964 1026 964 788 634 c 1,0,-1
1119 1684 m 1,92,-1
 1092 1728 l 1,93,-1
 1370 1931 l 1,94,-1
 1413 1872 l 1,95,-1
 1119 1684 l 1,92,-1
EndSplineSet
EndChar

StartChar: Acircumflex
Encoding: 194 194 126
Width: 1434
Flags: HW
LayerCount: 2
Fore
SplineSet
788 634 m 1,0,-1
 907 524 l 1,1,-1
 1095 666 l 1,2,-1
 1095 1118 l 2,3,4
 1095 1425 1095 1425 1257 1529 c 0,5,6
 1316 1567 1316 1567 1403 1567 c 1,7,-1
 1403 1518 l 1,8,9
 1267 1518 1267 1518 1206 1404 c 128,-1,10
 1145 1290 1145 1290 1145 1118 c 2,11,-1
 1145 344 l 2,12,13
 1145 180 1145 180 1271 76 c 0,14,15
 1309 44 1309 44 1353 16 c 1,16,-1
 1325 -25 l 1,17,18
 1213 51 1213 51 1172 106 c 0,19,20
 1095 212 1095 212 1095 338 c 2,21,-1
 1095 607 l 1,22,-1
 905 459 l 1,23,-1
 758 594 l 1,24,25
 629 430 629 430 570 363 c 1,26,-1
 458 240 l 1,27,-1
 354 135 l 1,28,29
 246 32 246 32 164 -24 c 1,30,-1
 127 11 l 1,31,32
 310 148 310 148 508 365 c 0,33,34
 827 713 827 713 939 988 c 0,35,36
 977 1081 977 1081 977 1152 c 0,37,38
 977 1296 977 1296 856 1406.5 c 128,-1,39
 735 1517 735 1517 574.5 1517 c 128,-1,40
 414 1517 414 1517 338 1447.5 c 128,-1,41
 262 1378 262 1378 262 1300.5 c 128,-1,42
 262 1223 262 1223 286 1176 c 0,43,44
 324 1099 324 1099 420 1026 c 0,45,46
 460 994 460 994 495 958 c 0,47,48
 577 872 577 872 577 748 c 128,-1,49
 577 624 577 624 478 560 c 0,50,51
 404 512 404 512 326 512 c 0,52,53
 324 512 324 512 323 511 c 0,54,55
 195 511 195 511 128 576 c 0,56,57
 59 642 59 642 59 737 c 0,58,59
 59 830 59 830 125 895 c 0,60,61
 191 961 191 961 284 961 c 1,62,-1
 284 911 l 1,63,64
 212 911 212 911 160.5 859.5 c 128,-1,65
 109 808 109 808 109 733 c 0,66,67
 109 661 109 661 163 611 c 128,-1,68
 217 561 217 561 298 561 c 0,69,70
 300 561 300 561 301 561 c 0,71,72
 444 562 444 562 504 666 c 0,73,74
 528 705 528 705 528 762 c 0,75,76
 528 822 528 822 504 862 c 128,-1,77
 480 902 480 902 445 935.5 c 0,78,79
 410 970 410 970 370 1002 c 0,80,81
 212 1128 212 1128 212 1291 c 0,82,83
 212 1396 212 1396 302.5 1481 c 0,84,85
 394 1566 394 1566 570 1566 c 0,86,-1
 571 1567 l 0,87,88
 747 1568 747 1568 886 1448 c 0,89,90
 1026 1328 1026 1328 1026 1146 c 128,-1,91
 1026 964 1026 964 788 634 c 1,0,-1
752 1726 m 1,92,-1
 1018 1934 l 1,93,-1
 1350 1727 l 1,94,-1
 1324 1685 l 1,95,-1
 1022 1873 l 1,96,97
 1014 1866 1014 1866 998 1854 c 2,98,-1
 782 1686 l 1,99,-1
 752 1726 l 1,92,-1
EndSplineSet
EndChar

StartChar: Atilde
Encoding: 195 195 127
Width: 1435
Flags: HW
LayerCount: 2
Fore
SplineSet
788 634 m 1,0,-1
 907 524 l 1,1,-1
 1095 666 l 1,2,-1
 1095 1118 l 2,3,4
 1095 1425 1095 1425 1257 1529 c 0,5,6
 1316 1567 1316 1567 1403 1567 c 1,7,-1
 1403 1518 l 1,8,9
 1267 1518 1267 1518 1206 1404 c 128,-1,10
 1145 1290 1145 1290 1145 1118 c 2,11,-1
 1145 344 l 2,12,13
 1145 180 1145 180 1271 76 c 0,14,15
 1309 44 1309 44 1353 16 c 1,16,-1
 1325 -25 l 1,17,18
 1213 51 1213 51 1172 106 c 0,19,20
 1095 212 1095 212 1095 338 c 2,21,-1
 1095 607 l 1,22,-1
 905 459 l 1,23,-1
 758 594 l 1,24,25
 629 430 629 430 570 363 c 1,26,-1
 458 240 l 1,27,-1
 354 135 l 1,28,29
 246 32 246 32 164 -24 c 1,30,-1
 127 11 l 1,31,32
 310 148 310 148 508 365 c 0,33,34
 827 713 827 713 939 988 c 0,35,36
 977 1081 977 1081 977 1152 c 0,37,38
 977 1296 977 1296 856 1406.5 c 128,-1,39
 735 1517 735 1517 574.5 1517 c 128,-1,40
 414 1517 414 1517 338 1447.5 c 128,-1,41
 262 1378 262 1378 262 1300.5 c 128,-1,42
 262 1223 262 1223 286 1176 c 0,43,44
 324 1099 324 1099 420 1026 c 0,45,46
 460 994 460 994 495 958 c 0,47,48
 577 872 577 872 577 748 c 128,-1,49
 577 624 577 624 478 560 c 0,50,51
 404 512 404 512 326 512 c 0,52,53
 324 512 324 512 323 511 c 0,54,55
 195 511 195 511 128 576 c 0,56,57
 59 642 59 642 59 737 c 0,58,59
 59 830 59 830 125 895 c 0,60,61
 191 961 191 961 284 961 c 1,62,-1
 284 911 l 1,63,64
 212 911 212 911 160.5 859.5 c 128,-1,65
 109 808 109 808 109 733 c 0,66,67
 109 661 109 661 163 611 c 128,-1,68
 217 561 217 561 298 561 c 0,69,70
 300 561 300 561 301 561 c 0,71,72
 444 562 444 562 504 666 c 0,73,74
 528 705 528 705 528 762 c 0,75,76
 528 822 528 822 504 862 c 128,-1,77
 480 902 480 902 445 935.5 c 0,78,79
 410 970 410 970 370 1002 c 0,80,81
 212 1128 212 1128 212 1291 c 0,82,83
 212 1396 212 1396 302.5 1481 c 0,84,85
 394 1566 394 1566 570 1566 c 0,86,-1
 571 1567 l 0,87,88
 747 1568 747 1568 886 1448 c 0,89,90
 1026 1328 1026 1328 1026 1146 c 128,-1,91
 1026 964 1026 964 788 634 c 1,0,-1
1413 1833 m 1,92,93
 1357 1727 1357 1727 1260 1682 c 0,94,95
 1230 1668 1230 1668 1179.5 1668 c 128,-1,96
 1129 1668 1129 1668 1029 1749 c 0,97,98
 1000 1773 1000 1773 971 1792 c 128,-1,99
 942 1811 942 1811 899.5 1811 c 128,-1,100
 857 1811 857 1811 810 1774 c 128,-1,101
 763 1737 763 1737 733 1680 c 1,102,-1
 689 1704 l 1,103,104
 748 1816 748 1816 844 1850 c 1,105,106
 877 1862 877 1862 908 1862 c 0,107,108
 952 1862 952 1862 990 1838 c 0,109,110
 1026 1815 1026 1815 1059.5 1788 c 128,-1,111
 1093 1761 1093 1761 1127.5 1739.5 c 128,-1,112
 1162 1718 1162 1718 1192 1718 c 0,113,114
 1243 1718 1243 1718 1291 1760.5 c 128,-1,115
 1339 1803 1339 1803 1369 1857 c 1,116,-1
 1413 1833 l 1,92,93
EndSplineSet
EndChar

StartChar: Adieresis
Encoding: 196 196 128
Width: 1434
Flags: HW
LayerCount: 2
Fore
SplineSet
788 634 m 1,0,-1
 907 524 l 1,1,-1
 1095 666 l 1,2,-1
 1095 1118 l 2,3,4
 1095 1425 1095 1425 1257 1529 c 0,5,6
 1316 1567 1316 1567 1403 1567 c 1,7,-1
 1403 1518 l 1,8,9
 1267 1518 1267 1518 1206 1404 c 128,-1,10
 1145 1290 1145 1290 1145 1118 c 2,11,-1
 1145 344 l 2,12,13
 1145 180 1145 180 1271 76 c 0,14,15
 1309 44 1309 44 1353 16 c 1,16,-1
 1325 -25 l 1,17,18
 1213 51 1213 51 1172 106 c 0,19,20
 1095 212 1095 212 1095 338 c 2,21,-1
 1095 607 l 1,22,-1
 905 459 l 1,23,-1
 758 594 l 1,24,25
 629 430 629 430 570 363 c 1,26,-1
 458 240 l 1,27,-1
 354 135 l 1,28,29
 246 32 246 32 164 -24 c 1,30,-1
 127 11 l 1,31,32
 310 148 310 148 508 365 c 0,33,34
 827 713 827 713 939 988 c 0,35,36
 977 1081 977 1081 977 1152 c 0,37,38
 977 1296 977 1296 856 1406.5 c 128,-1,39
 735 1517 735 1517 574.5 1517 c 128,-1,40
 414 1517 414 1517 338 1447.5 c 128,-1,41
 262 1378 262 1378 262 1300.5 c 128,-1,42
 262 1223 262 1223 286 1176 c 0,43,44
 324 1099 324 1099 420 1026 c 0,45,46
 460 994 460 994 495 958 c 0,47,48
 577 872 577 872 577 748 c 128,-1,49
 577 624 577 624 478 560 c 0,50,51
 404 512 404 512 326 512 c 0,52,53
 324 512 324 512 323 511 c 0,54,55
 195 511 195 511 128 576 c 0,56,57
 59 642 59 642 59 737 c 0,58,59
 59 830 59 830 125 895 c 0,60,61
 191 961 191 961 284 961 c 1,62,-1
 284 911 l 1,63,64
 212 911 212 911 160.5 859.5 c 128,-1,65
 109 808 109 808 109 733 c 0,66,67
 109 661 109 661 163 611 c 128,-1,68
 217 561 217 561 298 561 c 0,69,70
 300 561 300 561 301 561 c 0,71,72
 444 562 444 562 504 666 c 0,73,74
 528 705 528 705 528 762 c 0,75,76
 528 822 528 822 504 862 c 128,-1,77
 480 902 480 902 445 935.5 c 0,78,79
 410 970 410 970 370 1002 c 0,80,81
 212 1128 212 1128 212 1291 c 0,82,83
 212 1396 212 1396 302.5 1481 c 0,84,85
 394 1566 394 1566 570 1566 c 0,86,-1
 571 1567 l 0,87,88
 747 1568 747 1568 886 1448 c 0,89,90
 1026 1328 1026 1328 1026 1146 c 128,-1,91
 1026 964 1026 964 788 634 c 1,0,-1
1227 1679 m 1,92,-1
 1180 1694 l 1,93,-1
 1256 1876 l 1,94,-1
 1317 1851 l 1,95,-1
 1227 1679 l 1,92,-1
948 1679 m 1,96,-1
 901 1694 l 1,97,-1
 977 1876 l 1,98,-1
 1038 1851 l 1,99,-1
 948 1679 l 1,96,-1
EndSplineSet
EndChar

StartChar: AE
Encoding: 198 198 129
Width: 2371
Flags: HW
LayerCount: 2
Fore
SplineSet
1384 1567 m 0,0,1
 1555 1567 1555 1567 1581 1443 c 1,2,-1
 1664 1546 l 1,3,4
 1749 1292 1749 1292 1918 1292 c 0,5,6
 2016 1292 2016 1292 2073 1362.5 c 128,-1,7
 2130 1433 2130 1433 2130 1542 c 1,8,-1
 2180 1542 l 1,9,10
 2180 1337 2180 1337 2028 1265 c 0,11,12
 1980 1242 1980 1242 1922 1242 c 0,13,14
 1820 1242 1820 1242 1750.5 1300 c 128,-1,15
 1681 1358 1681 1358 1645 1444 c 1,16,-1
 1506 1271 l 1,17,18
 1454 1208 1454 1208 1454 1159.5 c 128,-1,19
 1454 1111 1454 1111 1470 1081 c 0,20,21
 1501 1025 1501 1025 1576 980 c 1,22,-1
 1649 938 l 1,23,24
 1771 870 1771 870 1828 818 c 1,25,26
 1862 919 1862 919 1893 960 c 0,27,28
 1954 1039 1954 1039 2033 1039 c 256,29,30
 2093 1039 2093 1039 2133 1004.5 c 128,-1,31
 2173 970 2173 970 2195 969 c 1,32,33
 2254 969 2254 969 2254 1093 c 1,34,-1
 2304 1093 l 1,35,36
 2304 1013 2304 1013 2289 981 c 0,37,38
 2260 919 2260 919 2195 919 c 0,39,40
 2158 919 2158 919 2128.5 943 c 128,-1,41
 2099 967 2099 967 2080 978 c 128,-1,42
 2061 989 2061 989 2030 989 c 0,43,44
 1974 989 1974 989 1935 929.5 c 128,-1,45
 1896 870 1896 870 1867 775 c 1,46,47
 1927 695 1927 695 1927 588 c 128,-1,48
 1927 481 1927 481 1855 396 c 128,-1,49
 1783 311 1783 311 1662 311 c 128,-1,50
 1541 311 1541 311 1469.5 378.5 c 128,-1,51
 1398 446 1398 446 1398 544 c 128,-1,52
 1398 642 1398 642 1450 714 c 1,53,-1
 1488 685 l 1,54,55
 1448 629 1448 629 1448 571 c 0,56,57
 1448 469 1448 469 1505.5 415 c 128,-1,58
 1563 361 1563 361 1661.5 361 c 0,59,60
 1760 360 1760 360 1818 430 c 128,-1,61
 1876 500 1876 500 1877 578 c 0,62,63
 1877 650 1877 650 1854 694 c 0,64,65
 1831 740 1831 740 1788 783 c 0,66,67
 1744 826 1744 826 1664 872 c 0,68,69
 1515 956 1515 956 1473 997 c 0,70,71
 1404 1064 1404 1064 1404 1143 c 128,-1,72
 1404 1222 1404 1222 1444 1274 c 1,73,-1
 1526 1376 l 1,74,75
 1535 1392 1535 1392 1535 1412 c 0,76,77
 1535 1456 1535 1456 1502.5 1487 c 128,-1,78
 1470 1518 1470 1518 1402 1518 c 0,79,80
 1271 1518 1271 1518 1210.5 1404 c 128,-1,81
 1150 1290 1150 1290 1150 1118 c 2,82,-1
 1150 446 l 2,83,84
 1150 262 1150 262 1279 156 c 128,-1,85
 1408 50 1408 50 1632.5 50 c 128,-1,86
 1857 50 1857 50 2024 197 c 0,87,88
 2154 311 2154 311 2227 501 c 1,89,-1
 2273 483 l 1,90,91
 2150 160 2150 160 1868 44 c 0,92,93
 1761 0 1761 0 1629 0 c 0,94,95
 1375 0 1375 0 1237.5 115.5 c 128,-1,96
 1100 231 1100 231 1100 440 c 2,97,-1
 1100 607 l 1,98,-1
 910 459 l 1,99,-1
 763 594 l 1,100,101
 556 318 556 318 322 116 c 0,102,103
 248 52 248 52 185 10 c 1,104,-1
 148 45 l 1,105,106
 447 271 447 271 714.5 606 c 128,-1,107
 982 941 982 941 982 1151 c 0,108,109
 982 1300 982 1300 866.5 1397 c 0,110,111
 750 1494 750 1494 574 1494 c 0,112,-1
 571 1495 l 0,113,114
 397 1494 397 1494 309 1438 c 0,115,116
 220 1382 220 1382 220 1281.5 c 128,-1,117
 220 1181 220 1181 310 1107 c 1,118,-1
 431 1012 l 2,119,120
 550 919 550 919 550 805 c 128,-1,121
 550 691 550 691 478.5 621 c 128,-1,122
 407 551 407 551 304 551 c 256,123,124
 201 551 201 551 130.5 621.5 c 128,-1,125
 60 692 60 692 60 795 c 0,126,127
 60 860 60 860 83 901 c 1,128,-1
 128 881 l 1,129,130
 109 842 109 842 109 798 c 0,131,132
 109 713 109 713 165.5 656.5 c 128,-1,133
 222 600 222 600 304 600 c 128,-1,134
 386 600 386 600 443 657 c 128,-1,135
 500 714 500 714 500 803 c 128,-1,136
 500 892 500 892 394 978 c 1,137,-1
 274 1072 l 1,138,139
 172 1155 172 1155 171 1284 c 0,140,141
 170 1411 170 1411 270 1477 c 0,142,143
 370 1544 370 1544 562.5 1544 c 128,-1,144
 755 1544 755 1544 893 1437 c 128,-1,145
 1031 1330 1031 1330 1031 1147 c 128,-1,146
 1031 964 1031 964 793 634 c 1,147,-1
 912 524 l 1,148,-1
 1100 666 l 1,149,-1
 1100 1118 l 2,150,151
 1100 1425 1100 1425 1262 1529 c 0,152,153
 1320 1567 1320 1567 1384 1567 c 0,0,1
EndSplineSet
EndChar

StartChar: Ccedilla
Encoding: 199 199 130
Width: 1501
Flags: HW
LayerCount: 2
Fore
SplineSet
925 1484 m 1,0,1
 850 1509 850 1509 734 1509 c 128,-1,2
 618 1509 618 1509 510.5 1457 c 128,-1,3
 403 1405 403 1405 321 1308 c 0,4,5
 142 1096 142 1096 142 775 c 128,-1,6
 142 454 142 454 308 246 c 0,7,8
 420 106 420 106 594 50 c 0,9,10
 682 22 682 22 776.5 22 c 128,-1,11
 871 22 871 22 944.5 43 c 128,-1,12
 1018 64 1018 64 1080 98 c 0,13,14
 1192 161 1192 161 1270 255.5 c 128,-1,15
 1348 350 1348 350 1382 436 c 1,16,-1
 1428 418 l 1,17,18
 1367 268 1367 268 1228 142 c 0,19,20
 1046 -23 1046 -23 799 -28 c 1,21,-1
 740 -75 l 1,22,23
 788 -87 788 -87 817 -127 c 128,-1,24
 846 -167 846 -167 846 -209 c 0,25,26
 846 -286 846 -286 799.5 -331 c 128,-1,27
 753 -376 753 -376 687 -376 c 1,28,-1
 687 -326 l 1,29,30
 731 -326 731 -326 763.5 -295 c 128,-1,31
 796 -264 796 -264 796 -219 c 128,-1,32
 796 -174 796 -174 763 -143.5 c 128,-1,33
 730 -113 730 -113 666 -113 c 1,34,-1
 656 -77 l 1,35,-1
 720 -25 l 1,36,37
 423 -2 423 -2 257.5 221 c 128,-1,38
 92 444 92 444 92 756 c 0,39,40
 92 1120 92 1120 282 1346 c 0,41,42
 462 1559 462 1559 735 1559 c 0,43,44
 849 1559 849 1559 908.5 1539.5 c 128,-1,45
 968 1520 968 1520 987 1505 c 1,46,47
 1042 1290 1042 1290 1195.5 1290 c 128,-1,48
 1349 1290 1349 1290 1388 1473 c 1,49,-1
 1436 1463 l 1,50,51
 1390 1240 1390 1240 1196 1240 c 0,52,53
 1046 1240 1046 1240 975 1388 c 1,54,-1
 975 1305 l 1,55,56
 974 1180 974 1180 834 1078 c 1,57,-1
 664 959 l 1,58,59
 512 849 512 849 512 698.5 c 128,-1,60
 512 548 512 548 648 488 c 0,61,62
 695 467 695 467 763 467 c 0,63,64
 766 467 766 467 769 467 c 1,65,-1
 769 417 l 1,66,67
 767 417 767 417 766 417 c 0,68,69
 609 417 609 417 529 510 c 0,70,71
 462 587 462 587 462 705 c 0,72,73
 462 874 462 874 629 996 c 1,74,-1
 798 1114 l 1,75,76
 926 1205 926 1205 925 1305 c 1,77,-1
 925 1484 l 1,0,1
EndSplineSet
EndChar

StartChar: Egrave
Encoding: 200 200 131
Width: 1480
Flags: HW
LayerCount: 2
Fore
SplineSet
596 684 m 1,0,1
 556 628 556 628 556 570 c 0,2,3
 556 468 556 468 613.5 414 c 128,-1,4
 671 360 671 360 769.5 360 c 128,-1,5
 868 360 868 360 926 430 c 128,-1,6
 984 500 984 500 985 577 c 0,7,8
 985 650 985 650 962 694 c 0,9,10
 939 740 939 740 896 782.5 c 0,11,12
 852 824 852 824 772 870 c 0,13,14
 623 954 623 954 581 996 c 0,15,16
 512 1063 512 1063 512 1141.5 c 128,-1,17
 512 1220 512 1220 552 1272 c 2,18,-1
 574 1301 l 1,19,20
 607 1341 607 1341 612.5 1368 c 0,21,22
 618 1394 618 1394 618 1416 c 0,23,24
 618 1458 618 1458 584 1488 c 1,25,26
 549 1516 549 1516 490.5 1516 c 128,-1,27
 432 1516 432 1516 370 1471 c 128,-1,28
 308 1426 308 1426 258 1334 c 0,29,30
 148 1130 148 1130 148 775 c 128,-1,31
 148 420 148 420 335 223 c 0,32,33
 500 49 500 49 732.5 49 c 128,-1,34
 965 49 965 49 1132 196 c 0,35,36
 1262 310 1262 310 1335 500 c 1,37,-1
 1381 482 l 1,38,39
 1258 159 1258 159 976 43 c 0,40,41
 869 -1 869 -1 761.5 -1 c 128,-1,42
 654 -1 654 -1 578 19 c 0,43,44
 502 38 502 38 432 80 c 0,45,46
 281 170 281 170 189.5 345 c 128,-1,47
 98 520 98 520 98 748.5 c 128,-1,48
 98 977 98 977 133 1125.5 c 128,-1,49
 168 1274 168 1274 224.5 1372 c 128,-1,50
 281 1470 281 1470 352 1518 c 128,-1,51
 423 1566 423 1566 478 1566 c 0,52,53
 570 1566 570 1566 619 1523 c 128,-1,54
 668 1480 668 1480 668 1417 c 2,55,-1
 668 1416 l 1,56,-1
 772 1545 l 1,57,58
 857 1291 857 1291 1026 1291 c 1,59,-1
 1029 1291 l 0,60,61
 1125 1290 1125 1290 1181 1360 c 0,62,63
 1238 1430 1238 1430 1238 1541 c 1,64,-1
 1288 1541 l 1,65,66
 1288 1336 1288 1336 1136 1264 c 0,67,68
 1088 1241 1088 1241 1030 1241 c 0,69,70
 929 1241 929 1241 859 1299.5 c 128,-1,71
 789 1358 789 1358 753 1443 c 1,72,-1
 624 1283 l 2,73,74
 622 1279 622 1279 619 1276 c 128,-1,75
 616 1273 616 1273 606 1260 c 0,76,77
 562 1206 562 1206 562 1158 c 128,-1,78
 562 1110 562 1110 578 1080 c 0,79,80
 609 1024 609 1024 684 979 c 1,81,-1
 757 937 l 1,82,83
 879 869 879 869 936 817 c 1,84,85
 970 918 970 918 1001 959 c 0,86,87
 1062 1038 1062 1038 1141 1038 c 256,88,89
 1200 1038 1200 1038 1240.5 1003 c 128,-1,90
 1281 968 1281 968 1303 968 c 0,91,92
 1362 968 1362 968 1362 1092 c 1,93,-1
 1412 1092 l 1,94,95
 1412 1012 1412 1012 1397 980 c 0,96,97
 1368 918 1368 918 1303 918 c 0,98,99
 1266 918 1266 918 1236.5 942 c 128,-1,100
 1207 966 1207 966 1188 977 c 128,-1,101
 1169 988 1169 988 1138 988 c 0,102,103
 1081 988 1081 988 1042.5 929 c 128,-1,104
 1004 870 1004 870 975 774 c 1,105,106
 1035 694 1035 694 1035 587 c 128,-1,107
 1035 480 1035 480 963 395 c 128,-1,108
 891 310 891 310 770 310 c 128,-1,109
 649 310 649 310 577.5 377.5 c 128,-1,110
 506 445 506 445 506 543 c 128,-1,111
 506 641 506 641 558 713 c 1,112,-1
 596 684 l 1,0,1
687 1872 m 1,113,-1
 730 1931 l 1,114,-1
 1008 1728 l 1,115,-1
 981 1684 l 1,116,-1
 687 1872 l 1,113,-1
EndSplineSet
EndChar

StartChar: Eacute
Encoding: 201 201 132
Width: 1480
Flags: HW
LayerCount: 2
Fore
SplineSet
596 684 m 1,0,1
 556 628 556 628 556 570 c 0,2,3
 556 468 556 468 613.5 414 c 128,-1,4
 671 360 671 360 769.5 360 c 128,-1,5
 868 360 868 360 926 430 c 128,-1,6
 984 500 984 500 985 577 c 0,7,8
 985 650 985 650 962 694 c 0,9,10
 939 740 939 740 896 782.5 c 0,11,12
 852 824 852 824 772 870 c 0,13,14
 623 954 623 954 581 996 c 0,15,16
 512 1063 512 1063 512 1141.5 c 128,-1,17
 512 1220 512 1220 552 1272 c 2,18,-1
 574 1301 l 1,19,20
 607 1341 607 1341 612.5 1368 c 0,21,22
 618 1394 618 1394 618 1416 c 0,23,24
 618 1458 618 1458 584 1488 c 1,25,26
 549 1516 549 1516 490.5 1516 c 128,-1,27
 432 1516 432 1516 370 1471 c 128,-1,28
 308 1426 308 1426 258 1334 c 0,29,30
 148 1130 148 1130 148 775 c 128,-1,31
 148 420 148 420 335 223 c 0,32,33
 500 49 500 49 732.5 49 c 128,-1,34
 965 49 965 49 1132 196 c 0,35,36
 1262 310 1262 310 1335 500 c 1,37,-1
 1381 482 l 1,38,39
 1258 159 1258 159 976 43 c 0,40,41
 869 -1 869 -1 761.5 -1 c 128,-1,42
 654 -1 654 -1 578 19 c 0,43,44
 502 38 502 38 432 80 c 0,45,46
 281 170 281 170 189.5 345 c 128,-1,47
 98 520 98 520 98 748.5 c 128,-1,48
 98 977 98 977 133 1125.5 c 128,-1,49
 168 1274 168 1274 224.5 1372 c 128,-1,50
 281 1470 281 1470 352 1518 c 128,-1,51
 423 1566 423 1566 478 1566 c 0,52,53
 570 1566 570 1566 619 1523 c 128,-1,54
 668 1480 668 1480 668 1417 c 2,55,-1
 668 1416 l 1,56,-1
 772 1545 l 1,57,58
 857 1291 857 1291 1026 1291 c 1,59,-1
 1029 1291 l 0,60,61
 1125 1290 1125 1290 1181 1360 c 0,62,63
 1238 1430 1238 1430 1238 1541 c 1,64,-1
 1288 1541 l 1,65,66
 1288 1336 1288 1336 1136 1264 c 0,67,68
 1088 1241 1088 1241 1030 1241 c 0,69,70
 929 1241 929 1241 859 1299.5 c 128,-1,71
 789 1358 789 1358 753 1443 c 1,72,-1
 624 1283 l 2,73,74
 622 1279 622 1279 619 1276 c 128,-1,75
 616 1273 616 1273 606 1260 c 0,76,77
 562 1206 562 1206 562 1158 c 128,-1,78
 562 1110 562 1110 578 1080 c 0,79,80
 609 1024 609 1024 684 979 c 1,81,-1
 757 937 l 1,82,83
 879 869 879 869 936 817 c 1,84,85
 970 918 970 918 1001 959 c 0,86,87
 1062 1038 1062 1038 1141 1038 c 256,88,89
 1200 1038 1200 1038 1240.5 1003 c 128,-1,90
 1281 968 1281 968 1303 968 c 0,91,92
 1362 968 1362 968 1362 1092 c 1,93,-1
 1412 1092 l 1,94,95
 1412 1012 1412 1012 1397 980 c 0,96,97
 1368 918 1368 918 1303 918 c 0,98,99
 1266 918 1266 918 1236.5 942 c 128,-1,100
 1207 966 1207 966 1188 977 c 128,-1,101
 1169 988 1169 988 1138 988 c 0,102,103
 1081 988 1081 988 1042.5 929 c 128,-1,104
 1004 870 1004 870 975 774 c 1,105,106
 1035 694 1035 694 1035 587 c 128,-1,107
 1035 480 1035 480 963 395 c 128,-1,108
 891 310 891 310 770 310 c 128,-1,109
 649 310 649 310 577.5 377.5 c 128,-1,110
 506 445 506 445 506 543 c 128,-1,111
 506 641 506 641 558 713 c 1,112,-1
 596 684 l 1,0,1
962 1684 m 1,113,-1
 935 1728 l 1,114,-1
 1213 1931 l 1,115,-1
 1256 1872 l 1,116,-1
 962 1684 l 1,113,-1
EndSplineSet
EndChar

StartChar: Ecircumflex
Encoding: 202 202 133
Width: 1480
Flags: HW
LayerCount: 2
Fore
SplineSet
596 684 m 1,0,1
 556 628 556 628 556 570 c 0,2,3
 556 468 556 468 613.5 414 c 128,-1,4
 671 360 671 360 769.5 360 c 128,-1,5
 868 360 868 360 926 430 c 128,-1,6
 984 500 984 500 985 577 c 0,7,8
 985 650 985 650 962 694 c 0,9,10
 939 740 939 740 896 782.5 c 0,11,12
 852 824 852 824 772 870 c 0,13,14
 623 954 623 954 581 996 c 0,15,16
 512 1063 512 1063 512 1141.5 c 128,-1,17
 512 1220 512 1220 552 1272 c 2,18,-1
 574 1301 l 1,19,20
 607 1341 607 1341 612.5 1368 c 0,21,22
 618 1394 618 1394 618 1416 c 0,23,24
 618 1458 618 1458 584 1488 c 1,25,26
 549 1516 549 1516 490.5 1516 c 128,-1,27
 432 1516 432 1516 370 1471 c 128,-1,28
 308 1426 308 1426 258 1334 c 0,29,30
 148 1130 148 1130 148 775 c 128,-1,31
 148 420 148 420 335 223 c 0,32,33
 500 49 500 49 732.5 49 c 128,-1,34
 965 49 965 49 1132 196 c 0,35,36
 1262 310 1262 310 1335 500 c 1,37,-1
 1381 482 l 1,38,39
 1258 159 1258 159 976 43 c 0,40,41
 869 -1 869 -1 761.5 -1 c 128,-1,42
 654 -1 654 -1 578 19 c 0,43,44
 502 38 502 38 432 80 c 0,45,46
 281 170 281 170 189.5 345 c 128,-1,47
 98 520 98 520 98 748.5 c 128,-1,48
 98 977 98 977 133 1125.5 c 128,-1,49
 168 1274 168 1274 224.5 1372 c 128,-1,50
 281 1470 281 1470 352 1518 c 128,-1,51
 423 1566 423 1566 478 1566 c 0,52,53
 570 1566 570 1566 619 1523 c 128,-1,54
 668 1480 668 1480 668 1417 c 2,55,-1
 668 1416 l 1,56,-1
 772 1545 l 1,57,58
 857 1291 857 1291 1026 1291 c 1,59,-1
 1029 1291 l 0,60,61
 1125 1290 1125 1290 1181 1360 c 0,62,63
 1238 1430 1238 1430 1238 1541 c 1,64,-1
 1288 1541 l 1,65,66
 1288 1336 1288 1336 1136 1264 c 0,67,68
 1088 1241 1088 1241 1030 1241 c 0,69,70
 929 1241 929 1241 859 1299.5 c 128,-1,71
 789 1358 789 1358 753 1443 c 1,72,-1
 624 1283 l 2,73,74
 622 1279 622 1279 619 1276 c 128,-1,75
 616 1273 616 1273 606 1260 c 0,76,77
 562 1206 562 1206 562 1158 c 128,-1,78
 562 1110 562 1110 578 1080 c 0,79,80
 609 1024 609 1024 684 979 c 1,81,-1
 757 937 l 1,82,83
 879 869 879 869 936 817 c 1,84,85
 970 918 970 918 1001 959 c 0,86,87
 1062 1038 1062 1038 1141 1038 c 256,88,89
 1200 1038 1200 1038 1240.5 1003 c 128,-1,90
 1281 968 1281 968 1303 968 c 0,91,92
 1362 968 1362 968 1362 1092 c 1,93,-1
 1412 1092 l 1,94,95
 1412 1012 1412 1012 1397 980 c 0,96,97
 1368 918 1368 918 1303 918 c 0,98,99
 1266 918 1266 918 1236.5 942 c 128,-1,100
 1207 966 1207 966 1188 977 c 128,-1,101
 1169 988 1169 988 1138 988 c 0,102,103
 1081 988 1081 988 1042.5 929 c 128,-1,104
 1004 870 1004 870 975 774 c 1,105,106
 1035 694 1035 694 1035 587 c 128,-1,107
 1035 480 1035 480 963 395 c 128,-1,108
 891 310 891 310 770 310 c 128,-1,109
 649 310 649 310 577.5 377.5 c 128,-1,110
 506 445 506 445 506 543 c 128,-1,111
 506 641 506 641 558 713 c 1,112,-1
 596 684 l 1,0,1
672 1726 m 1,113,-1
 938 1934 l 1,114,-1
 1270 1727 l 1,115,-1
 1244 1685 l 1,116,-1
 942 1873 l 1,117,118
 934 1866 934 1866 918 1854 c 2,119,-1
 702 1686 l 1,120,-1
 672 1726 l 1,113,-1
EndSplineSet
EndChar

StartChar: Edieresis
Encoding: 203 203 134
Width: 1480
Flags: HW
LayerCount: 2
Fore
SplineSet
596 684 m 1,0,1
 556 628 556 628 556 570 c 0,2,3
 556 468 556 468 613.5 414 c 128,-1,4
 671 360 671 360 769.5 360 c 128,-1,5
 868 360 868 360 926 430 c 128,-1,6
 984 500 984 500 985 577 c 0,7,8
 985 650 985 650 962 694 c 0,9,10
 939 740 939 740 896 782.5 c 0,11,12
 852 824 852 824 772 870 c 0,13,14
 623 954 623 954 581 996 c 0,15,16
 512 1063 512 1063 512 1141.5 c 128,-1,17
 512 1220 512 1220 552 1272 c 2,18,-1
 574 1301 l 1,19,20
 607 1341 607 1341 612.5 1368 c 0,21,22
 618 1394 618 1394 618 1416 c 0,23,24
 618 1458 618 1458 584 1488 c 1,25,26
 549 1516 549 1516 490.5 1516 c 128,-1,27
 432 1516 432 1516 370 1471 c 128,-1,28
 308 1426 308 1426 258 1334 c 0,29,30
 148 1130 148 1130 148 775 c 128,-1,31
 148 420 148 420 335 223 c 0,32,33
 500 49 500 49 732.5 49 c 128,-1,34
 965 49 965 49 1132 196 c 0,35,36
 1262 310 1262 310 1335 500 c 1,37,-1
 1381 482 l 1,38,39
 1258 159 1258 159 976 43 c 0,40,41
 869 -1 869 -1 761.5 -1 c 128,-1,42
 654 -1 654 -1 578 19 c 0,43,44
 502 38 502 38 432 80 c 0,45,46
 281 170 281 170 189.5 345 c 128,-1,47
 98 520 98 520 98 748.5 c 128,-1,48
 98 977 98 977 133 1125.5 c 128,-1,49
 168 1274 168 1274 224.5 1372 c 128,-1,50
 281 1470 281 1470 352 1518 c 128,-1,51
 423 1566 423 1566 478 1566 c 0,52,53
 570 1566 570 1566 619 1523 c 128,-1,54
 668 1480 668 1480 668 1417 c 2,55,-1
 668 1416 l 1,56,-1
 772 1545 l 1,57,58
 857 1291 857 1291 1026 1291 c 1,59,-1
 1029 1291 l 0,60,61
 1125 1290 1125 1290 1181 1360 c 0,62,63
 1238 1430 1238 1430 1238 1541 c 1,64,-1
 1288 1541 l 1,65,66
 1288 1336 1288 1336 1136 1264 c 0,67,68
 1088 1241 1088 1241 1030 1241 c 0,69,70
 929 1241 929 1241 859 1299.5 c 128,-1,71
 789 1358 789 1358 753 1443 c 1,72,-1
 624 1283 l 2,73,74
 622 1279 622 1279 619 1276 c 128,-1,75
 616 1273 616 1273 606 1260 c 0,76,77
 562 1206 562 1206 562 1158 c 128,-1,78
 562 1110 562 1110 578 1080 c 0,79,80
 609 1024 609 1024 684 979 c 1,81,-1
 757 937 l 1,82,83
 879 869 879 869 936 817 c 1,84,85
 970 918 970 918 1001 959 c 0,86,87
 1062 1038 1062 1038 1141 1038 c 256,88,89
 1200 1038 1200 1038 1240.5 1003 c 128,-1,90
 1281 968 1281 968 1303 968 c 0,91,92
 1362 968 1362 968 1362 1092 c 1,93,-1
 1412 1092 l 1,94,95
 1412 1012 1412 1012 1397 980 c 0,96,97
 1368 918 1368 918 1303 918 c 0,98,99
 1266 918 1266 918 1236.5 942 c 128,-1,100
 1207 966 1207 966 1188 977 c 128,-1,101
 1169 988 1169 988 1138 988 c 0,102,103
 1081 988 1081 988 1042.5 929 c 128,-1,104
 1004 870 1004 870 975 774 c 1,105,106
 1035 694 1035 694 1035 587 c 128,-1,107
 1035 480 1035 480 963 395 c 128,-1,108
 891 310 891 310 770 310 c 128,-1,109
 649 310 649 310 577.5 377.5 c 128,-1,110
 506 445 506 445 506 543 c 128,-1,111
 506 641 506 641 558 713 c 1,112,-1
 596 684 l 1,0,1
1165 1679 m 1,113,-1
 1118 1694 l 1,114,-1
 1194 1876 l 1,115,-1
 1255 1851 l 1,116,-1
 1165 1679 l 1,113,-1
886 1679 m 1,117,-1
 839 1694 l 1,118,-1
 915 1876 l 1,119,-1
 976 1851 l 1,120,-1
 886 1679 l 1,117,-1
EndSplineSet
EndChar

StartChar: Igrave
Encoding: 204 204 135
Width: 1592
Flags: HW
LayerCount: 2
Fore
SplineSet
972 94 m 1,0,1
 1065 47 1065 47 1145 47 c 0,2,3
 1204 46 1204 46 1256 72 c 0,4,5
 1378 132 1378 132 1424 247 c 0,6,7
 1446 301 1446 301 1446 362 c 0,8,9
 1446 490 1446 490 1365.5 566 c 128,-1,10
 1285 642 1285 642 1157 643 c 1,11,-1
 1157 693 l 1,12,13
 1159 693 1159 693 1160 693 c 0,14,15
 1310 694 1310 694 1402 604 c 0,16,17
 1496 514 1496 514 1496 369 c 128,-1,18
 1496 224 1496 224 1393 111 c 128,-1,19
 1290 -2 1290 -2 1148 -3 c 0,20,21
 1147 -3 1147 -3 1145 -3 c 0,22,23
 1004 -3 1004 -3 856 104 c 1,24,-1
 684 232 l 1,25,26
 531 343 531 343 393 343 c 0,27,28
 392 343 392 343 391 343 c 1,29,30
 390 343 390 343 388 343 c 0,31,32
 202 343 202 343 156 218 c 0,33,34
 143 182 143 182 143 148 c 0,35,36
 143 86 143 86 179 48 c 128,-1,37
 215 10 215 10 264 9 c 1,38,-1
 264 -41 l 1,39,40
 194 -41 194 -41 143.5 9.5 c 128,-1,41
 93 60 93 60 93 145 c 0,42,43
 93 312 93 312 251 372 c 0,44,45
 307 394 307 394 376 394 c 0,46,47
 378 394 378 394 380 394 c 0,48,49
 550 393 550 393 710 274 c 2,50,-1
 800 208 l 1,51,52
 862 159 862 159 926 120 c 1,53,54
 1013 199 1013 199 1013 319 c 0,55,56
 1013 470 1013 470 900 628 c 1,57,-1
 782 788 l 1,58,59
 692 914 692 914 692 1026 c 1,60,-1
 936 1217 l 1,61,62
 904 1237 904 1237 870 1267 c 2,63,-1
 726 1396 l 1,64,65
 589 1516 589 1516 453.5 1516 c 128,-1,66
 318 1516 318 1516 230 1419 c 128,-1,67
 142 1322 142 1322 142 1197 c 128,-1,68
 142 1072 142 1072 222.5 996 c 128,-1,69
 303 920 303 920 432 920 c 1,70,-1
 432 870 l 1,71,72
 280 870 280 870 186.5 960.5 c 128,-1,73
 93 1051 93 1051 93 1195.5 c 128,-1,74
 93 1340 93 1340 196 1453 c 128,-1,75
 299 1566 299 1566 442.5 1566 c 128,-1,76
 586 1566 586 1566 716 1466 c 0,77,78
 772 1424 772 1424 824 1374 c 128,-1,79
 876 1324 876 1324 932 1282 c 0,80,81
 1063 1183 1063 1183 1195 1183 c 0,82,-1
 1198 1183 l 1,83,-1
 1201 1183 l 0,84,85
 1387 1183 1387 1183 1433 1308 c 0,86,87
 1446 1344 1446 1344 1446 1378 c 0,88,89
 1446 1440 1446 1440 1410 1478 c 128,-1,90
 1374 1516 1374 1516 1325 1517 c 1,91,-1
 1325 1567 l 1,92,93
 1395 1567 1395 1567 1445.5 1516.5 c 128,-1,94
 1496 1466 1496 1466 1496 1381 c 0,95,96
 1496 1214 1496 1214 1338 1154 c 0,97,98
 1282 1132 1282 1132 1194 1132 c 0,99,-1
 1190 1132 l 0,100,101
 1098 1132 1098 1132 984 1190 c 1,102,-1
 742 1002 l 1,103,104
 748 922 748 922 830 808 c 2,105,-1
 942 654 l 1,106,107
 1062 485 1062 485 1063 316 c 0,108,109
 1063 187 1063 187 972 94 c 1,0,1
652 1872 m 1,110,-1
 695 1931 l 1,111,-1
 973 1728 l 1,112,-1
 946 1684 l 1,113,-1
 652 1872 l 1,110,-1
EndSplineSet
EndChar

StartChar: Iacute
Encoding: 205 205 136
Width: 1592
Flags: HW
LayerCount: 2
Fore
SplineSet
972 94 m 1,0,1
 1065 47 1065 47 1145 47 c 0,2,3
 1204 46 1204 46 1256 72 c 0,4,5
 1378 132 1378 132 1424 247 c 0,6,7
 1446 301 1446 301 1446 362 c 0,8,9
 1446 490 1446 490 1365.5 566 c 128,-1,10
 1285 642 1285 642 1157 643 c 1,11,-1
 1157 693 l 1,12,13
 1159 693 1159 693 1160 693 c 0,14,15
 1310 694 1310 694 1402 604 c 0,16,17
 1496 514 1496 514 1496 369 c 128,-1,18
 1496 224 1496 224 1393 111 c 128,-1,19
 1290 -2 1290 -2 1148 -3 c 0,20,21
 1147 -3 1147 -3 1145 -3 c 0,22,23
 1004 -3 1004 -3 856 104 c 1,24,-1
 684 232 l 1,25,26
 531 343 531 343 393 343 c 0,27,28
 392 343 392 343 391 343 c 1,29,30
 390 343 390 343 388 343 c 0,31,32
 202 343 202 343 156 218 c 0,33,34
 143 182 143 182 143 148 c 0,35,36
 143 86 143 86 179 48 c 128,-1,37
 215 10 215 10 264 9 c 1,38,-1
 264 -41 l 1,39,40
 194 -41 194 -41 143.5 9.5 c 128,-1,41
 93 60 93 60 93 145 c 0,42,43
 93 312 93 312 251 372 c 0,44,45
 307 394 307 394 376 394 c 0,46,47
 378 394 378 394 380 394 c 0,48,49
 550 393 550 393 710 274 c 2,50,-1
 800 208 l 1,51,52
 862 159 862 159 926 120 c 1,53,54
 1013 199 1013 199 1013 319 c 0,55,56
 1013 470 1013 470 900 628 c 1,57,-1
 782 788 l 1,58,59
 692 914 692 914 692 1026 c 1,60,-1
 936 1217 l 1,61,62
 904 1237 904 1237 870 1267 c 2,63,-1
 726 1396 l 1,64,65
 589 1516 589 1516 453.5 1516 c 128,-1,66
 318 1516 318 1516 230 1419 c 128,-1,67
 142 1322 142 1322 142 1197 c 128,-1,68
 142 1072 142 1072 222.5 996 c 128,-1,69
 303 920 303 920 432 920 c 1,70,-1
 432 870 l 1,71,72
 280 870 280 870 186.5 960.5 c 128,-1,73
 93 1051 93 1051 93 1195.5 c 128,-1,74
 93 1340 93 1340 196 1453 c 128,-1,75
 299 1566 299 1566 442.5 1566 c 128,-1,76
 586 1566 586 1566 716 1466 c 0,77,78
 772 1424 772 1424 824 1374 c 128,-1,79
 876 1324 876 1324 932 1282 c 0,80,81
 1063 1183 1063 1183 1195 1183 c 0,82,-1
 1198 1183 l 1,83,-1
 1201 1183 l 0,84,85
 1387 1183 1387 1183 1433 1308 c 0,86,87
 1446 1344 1446 1344 1446 1378 c 0,88,89
 1446 1440 1446 1440 1410 1478 c 128,-1,90
 1374 1516 1374 1516 1325 1517 c 1,91,-1
 1325 1567 l 1,92,93
 1395 1567 1395 1567 1445.5 1516.5 c 128,-1,94
 1496 1466 1496 1466 1496 1381 c 0,95,96
 1496 1214 1496 1214 1338 1154 c 0,97,98
 1282 1132 1282 1132 1194 1132 c 0,99,-1
 1190 1132 l 0,100,101
 1098 1132 1098 1132 984 1190 c 1,102,-1
 742 1002 l 1,103,104
 748 922 748 922 830 808 c 2,105,-1
 942 654 l 1,106,107
 1062 485 1062 485 1063 316 c 0,108,109
 1063 187 1063 187 972 94 c 1,0,1
1019 1684 m 1,110,-1
 992 1728 l 1,111,-1
 1270 1931 l 1,112,-1
 1313 1872 l 1,113,-1
 1019 1684 l 1,110,-1
EndSplineSet
EndChar

StartChar: Icircumflex
Encoding: 206 206 137
Width: 1592
Flags: HW
LayerCount: 2
Fore
SplineSet
972 94 m 1,0,1
 1065 47 1065 47 1145 47 c 0,2,3
 1204 46 1204 46 1256 72 c 0,4,5
 1378 132 1378 132 1424 247 c 0,6,7
 1446 301 1446 301 1446 362 c 0,8,9
 1446 490 1446 490 1365.5 566 c 128,-1,10
 1285 642 1285 642 1157 643 c 1,11,-1
 1157 693 l 1,12,13
 1159 693 1159 693 1160 693 c 0,14,15
 1310 694 1310 694 1402 604 c 0,16,17
 1496 514 1496 514 1496 369 c 128,-1,18
 1496 224 1496 224 1393 111 c 128,-1,19
 1290 -2 1290 -2 1148 -3 c 0,20,21
 1147 -3 1147 -3 1145 -3 c 0,22,23
 1004 -3 1004 -3 856 104 c 1,24,-1
 684 232 l 1,25,26
 531 343 531 343 393 343 c 0,27,28
 392 343 392 343 391 343 c 1,29,30
 390 343 390 343 388 343 c 0,31,32
 202 343 202 343 156 218 c 0,33,34
 143 182 143 182 143 148 c 0,35,36
 143 86 143 86 179 48 c 128,-1,37
 215 10 215 10 264 9 c 1,38,-1
 264 -41 l 1,39,40
 194 -41 194 -41 143.5 9.5 c 128,-1,41
 93 60 93 60 93 145 c 0,42,43
 93 312 93 312 251 372 c 0,44,45
 307 394 307 394 376 394 c 0,46,47
 378 394 378 394 380 394 c 0,48,49
 550 393 550 393 710 274 c 2,50,-1
 800 208 l 1,51,52
 862 159 862 159 926 120 c 1,53,54
 1013 199 1013 199 1013 319 c 0,55,56
 1013 470 1013 470 900 628 c 1,57,-1
 782 788 l 1,58,59
 692 914 692 914 692 1026 c 1,60,-1
 936 1217 l 1,61,62
 904 1237 904 1237 870 1267 c 2,63,-1
 726 1396 l 1,64,65
 589 1516 589 1516 453.5 1516 c 128,-1,66
 318 1516 318 1516 230 1419 c 128,-1,67
 142 1322 142 1322 142 1197 c 128,-1,68
 142 1072 142 1072 222.5 996 c 128,-1,69
 303 920 303 920 432 920 c 1,70,-1
 432 870 l 1,71,72
 280 870 280 870 186.5 960.5 c 128,-1,73
 93 1051 93 1051 93 1195.5 c 128,-1,74
 93 1340 93 1340 196 1453 c 128,-1,75
 299 1566 299 1566 442.5 1566 c 128,-1,76
 586 1566 586 1566 716 1466 c 0,77,78
 772 1424 772 1424 824 1374 c 128,-1,79
 876 1324 876 1324 932 1282 c 0,80,81
 1063 1183 1063 1183 1195 1183 c 0,82,-1
 1198 1183 l 1,83,-1
 1201 1183 l 0,84,85
 1387 1183 1387 1183 1433 1308 c 0,86,87
 1446 1344 1446 1344 1446 1378 c 0,88,89
 1446 1440 1446 1440 1410 1478 c 128,-1,90
 1374 1516 1374 1516 1325 1517 c 1,91,-1
 1325 1567 l 1,92,93
 1395 1567 1395 1567 1445.5 1516.5 c 128,-1,94
 1496 1466 1496 1466 1496 1381 c 0,95,96
 1496 1214 1496 1214 1338 1154 c 0,97,98
 1282 1132 1282 1132 1194 1132 c 0,99,-1
 1190 1132 l 0,100,101
 1098 1132 1098 1132 984 1190 c 1,102,-1
 742 1002 l 1,103,104
 748 922 748 922 830 808 c 2,105,-1
 942 654 l 1,106,107
 1062 485 1062 485 1063 316 c 0,108,109
 1063 187 1063 187 972 94 c 1,0,1
673 1726 m 1,110,-1
 939 1934 l 1,111,-1
 1271 1727 l 1,112,-1
 1245 1685 l 1,113,-1
 943 1873 l 1,114,-1
 703 1686 l 1,115,-1
 673 1726 l 1,110,-1
EndSplineSet
EndChar

StartChar: Idieresis
Encoding: 207 207 138
Width: 1592
Flags: HW
LayerCount: 2
Fore
SplineSet
972 94 m 1,0,1
 1065 47 1065 47 1145 47 c 0,2,3
 1204 46 1204 46 1256 72 c 0,4,5
 1378 132 1378 132 1424 247 c 0,6,7
 1446 301 1446 301 1446 362 c 0,8,9
 1446 490 1446 490 1365.5 566 c 128,-1,10
 1285 642 1285 642 1157 643 c 1,11,-1
 1157 693 l 1,12,13
 1159 693 1159 693 1160 693 c 0,14,15
 1310 694 1310 694 1402 604 c 0,16,17
 1496 514 1496 514 1496 369 c 128,-1,18
 1496 224 1496 224 1393 111 c 128,-1,19
 1290 -2 1290 -2 1148 -3 c 0,20,21
 1147 -3 1147 -3 1145 -3 c 0,22,23
 1004 -3 1004 -3 856 104 c 1,24,-1
 684 232 l 1,25,26
 531 343 531 343 393 343 c 0,27,28
 392 343 392 343 391 343 c 1,29,30
 390 343 390 343 388 343 c 0,31,32
 202 343 202 343 156 218 c 0,33,34
 143 182 143 182 143 148 c 0,35,36
 143 86 143 86 179 48 c 128,-1,37
 215 10 215 10 264 9 c 1,38,-1
 264 -41 l 1,39,40
 194 -41 194 -41 143.5 9.5 c 128,-1,41
 93 60 93 60 93 145 c 0,42,43
 93 312 93 312 251 372 c 0,44,45
 307 394 307 394 376 394 c 0,46,47
 378 394 378 394 380 394 c 0,48,49
 550 393 550 393 710 274 c 2,50,-1
 800 208 l 1,51,52
 862 159 862 159 926 120 c 1,53,54
 1013 199 1013 199 1013 319 c 0,55,56
 1013 470 1013 470 900 628 c 1,57,-1
 782 788 l 1,58,59
 692 914 692 914 692 1026 c 1,60,-1
 936 1217 l 1,61,62
 904 1237 904 1237 870 1267 c 2,63,-1
 726 1396 l 1,64,65
 589 1516 589 1516 453.5 1516 c 128,-1,66
 318 1516 318 1516 230 1419 c 128,-1,67
 142 1322 142 1322 142 1197 c 128,-1,68
 142 1072 142 1072 222.5 996 c 128,-1,69
 303 920 303 920 432 920 c 1,70,-1
 432 870 l 1,71,72
 280 870 280 870 186.5 960.5 c 128,-1,73
 93 1051 93 1051 93 1195.5 c 128,-1,74
 93 1340 93 1340 196 1453 c 128,-1,75
 299 1566 299 1566 442.5 1566 c 128,-1,76
 586 1566 586 1566 716 1466 c 0,77,78
 772 1424 772 1424 824 1374 c 128,-1,79
 876 1324 876 1324 932 1282 c 0,80,81
 1063 1183 1063 1183 1195 1183 c 0,82,-1
 1198 1183 l 1,83,-1
 1201 1183 l 0,84,85
 1387 1183 1387 1183 1433 1308 c 0,86,87
 1446 1344 1446 1344 1446 1378 c 0,88,89
 1446 1440 1446 1440 1410 1478 c 128,-1,90
 1374 1516 1374 1516 1325 1517 c 1,91,-1
 1325 1567 l 1,92,93
 1395 1567 1395 1567 1445.5 1516.5 c 128,-1,94
 1496 1466 1496 1466 1496 1381 c 0,95,96
 1496 1214 1496 1214 1338 1154 c 0,97,98
 1282 1132 1282 1132 1194 1132 c 0,99,-1
 1190 1132 l 0,100,101
 1098 1132 1098 1132 984 1190 c 1,102,-1
 742 1002 l 1,103,104
 748 922 748 922 830 808 c 2,105,-1
 942 654 l 1,106,107
 1062 485 1062 485 1063 316 c 0,108,109
 1063 187 1063 187 972 94 c 1,0,1
1155 1679 m 1,110,-1
 1108 1694 l 1,111,-1
 1184 1876 l 1,112,-1
 1245 1851 l 1,113,-1
 1155 1679 l 1,110,-1
876 1679 m 1,114,-1
 829 1694 l 1,115,-1
 905 1876 l 1,116,-1
 966 1851 l 1,117,-1
 876 1679 l 1,114,-1
EndSplineSet
EndChar

StartChar: Eth
Encoding: 208 208 139
Width: 1686
Flags: HW
LayerCount: 2
Fore
SplineSet
790 1510 m 1,0,1
 738 1518 738 1518 647 1518 c 128,-1,2
 556 1518 556 1518 454 1487 c 128,-1,3
 352 1456 352 1456 282 1402 c 0,4,5
 136 1291 136 1291 136 1129 c 0,6,7
 136 1025 136 1025 198 949.5 c 128,-1,8
 260 874 260 874 372 874 c 1,9,-1
 372 824 l 1,10,11
 238 824 238 824 162 916 c 128,-1,12
 86 1008 86 1008 86 1114 c 0,13,14
 86 1315 86 1315 248.5 1441.5 c 128,-1,15
 411 1568 411 1568 672.5 1568 c 128,-1,16
 934 1568 934 1568 1146.5 1435.5 c 128,-1,17
 1359 1303 1359 1303 1481.5 1097 c 128,-1,18
 1604 891 1604 891 1604 680 c 0,19,20
 1604 405 1604 405 1449 206 c 0,21,22
 1350 78 1350 78 1202 26 c 0,23,24
 1127 0 1127 0 1057 0 c 0,25,26
 948 0 948 0 852 64 c 0,27,28
 784 108 784 108 724 172 c 0,29,30
 619 282 619 282 549 328 c 128,-1,31
 479 374 479 374 416 374 c 0,32,33
 304 374 304 374 235 318 c 0,34,35
 165 261 165 261 165 167 c 0,36,37
 166 116 166 116 196 84 c 0,38,39
 228 50 228 50 262 50 c 0,40,41
 318 50 318 50 351 81.5 c 128,-1,42
 384 113 384 113 384 158 c 1,43,-1
 434 158 l 1,44,45
 434 91 434 91 387.5 45.5 c 128,-1,46
 341 0 341 0 275 0 c 256,47,48
 208 0 208 0 161.5 48 c 128,-1,49
 115 96 115 96 115 163 c 0,50,51
 115 287 115 287 200 355.5 c 128,-1,52
 285 424 285 424 409.5 424 c 128,-1,53
 534 424 534 424 660 308 c 0,54,55
 697 274 697 274 732 238 c 2,56,-1
 802 168 l 1,57,58
 922 50 922 50 1040 50 c 0,59,60
 1040 50 l 0,61,62
 1267 51 1267 51 1410.5 237.5 c 128,-1,63
 1554 424 1554 424 1554 686.5 c 128,-1,64
 1554 949 1554 949 1354 1192 c 128,-1,65
 1154 1435 1154 1435 852 1500 c 1,66,-1
 479 1144 l 1,67,68
 488 1082 488 1082 587 978 c 0,69,70
 626 937 626 937 663 892.5 c 128,-1,71
 700 848 700 848 720 794 c 1,72,-1
 1135 794 l 1,73,-1
 1135 750 l 1,74,-1
 731 750 l 1,75,76
 735 731 735 731 735 687.5 c 128,-1,77
 735 644 735 644 712.5 601 c 128,-1,78
 690 558 690 558 656 532 c 0,79,80
 593 482 593 482 513 482 c 0,81,-1
 511 482 l 0,82,83
 430 482 430 482 379 527 c 128,-1,84
 328 572 328 572 328 641 c 256,85,86
 328 706 328 706 373.5 750 c 128,-1,87
 419 794 419 794 486 794 c 2,88,-1
 666 794 l 1,89,90
 648 836 648 836 616 872 c 2,91,-1
 505 994 l 2,92,93
 429 1079 429 1079 429 1164 c 1,94,-1
 790 1510 l 1,0,1
491 533 m 0,95,96
 621 534 621 534 668 626 c 0,97,98
 685 660 685 660 685 693.5 c 128,-1,99
 685 727 685 727 680 750 c 1,100,-1
 486 750 l 2,101,102
 440 750 440 750 409 717.5 c 128,-1,103
 378 685 378 685 378 640.5 c 128,-1,104
 378 596 378 596 412 564.5 c 128,-1,105
 446 533 446 533 491 533 c 0,95,96
EndSplineSet
EndChar

StartChar: Ntilde
Encoding: 209 209 140
Width: 1736
Flags: HW
LayerCount: 2
Fore
SplineSet
98 7 m 1,0,1
 249 206 249 206 382 206 c 128,-1,2
 515 206 515 206 551 74 c 1,3,4
 833 464 833 464 886 776 c 0,5,6
 903 876 903 876 903 986 c 128,-1,7
 903 1096 903 1096 870 1195.5 c 128,-1,8
 837 1295 837 1295 783 1366.5 c 128,-1,9
 729 1438 729 1438 661 1477.5 c 128,-1,10
 593 1517 593 1517 525 1517 c 0,11,12
 400 1517 400 1517 329.5 1446.5 c 128,-1,13
 259 1376 259 1376 259 1299.5 c 0,14,15
 258 1223 258 1223 282 1176 c 0,16,17
 320 1099 320 1099 416 1026 c 0,18,19
 456 994 456 994 492 958 c 0,20,21
 574 872 574 872 574 748 c 128,-1,22
 574 624 574 624 475 560 c 0,23,24
 402 512 402 512 324 512 c 0,25,26
 322 512 322 512 320 511 c 0,27,28
 191 511 191 511 124 576 c 0,29,30
 56 642 56 642 56 735.5 c 128,-1,31
 56 829 56 829 122 895 c 128,-1,32
 188 961 188 961 281 961 c 1,33,-1
 281 911 l 1,34,35
 209 911 209 911 157.5 859.5 c 128,-1,36
 106 808 106 808 106 736 c 256,37,38
 106 662 106 662 161 611 c 0,39,40
 215 561 215 561 295 561 c 0,41,42
 297 561 297 561 298 561 c 0,43,44
 440 562 440 562 500 666 c 0,45,46
 524 706 524 706 524 764.5 c 128,-1,47
 524 823 524 823 500.5 862.5 c 128,-1,48
 477 902 477 902 442 935.5 c 0,49,50
 406 970 406 970 366 1002 c 0,51,52
 208 1128 208 1128 209 1291 c 0,53,54
 209 1392 209 1392 292.5 1479 c 128,-1,55
 376 1566 376 1566 535.5 1566 c 128,-1,56
 695 1566 695 1566 825 1390 c 0,57,58
 866 1334 866 1334 897 1267 c 2,59,-1
 1267 454 l 1,60,61
 1261 517 1261 517 1261 605 c 0,62,63
 1261 790 1261 790 1326 945 c 128,-1,64
 1391 1100 1391 1100 1530 1256 c 0,65,66
 1700 1448 1700 1448 1700 1568 c 1,67,-1
 1750 1568 l 1,68,69
 1750 1489 1750 1489 1710.5 1415 c 0,70,71
 1671 1340 1671 1340 1584 1244 c 0,72,73
 1425 1067 1425 1067 1368 927 c 0,74,75
 1311 786 1311 786 1311 605 c 0,76,77
 1311 303 1311 303 1416 162 c 0,78,79
 1500 50 1500 50 1627 50 c 1,80,-1
 1627 0 l 1,81,82
 1479 0 1479 0 1380 124 c 0,83,84
 1344 170 1344 170 1317 238 c 1,85,-1
 950 1037 l 1,86,87
 953 1007 953 1007 953 940 c 0,88,89
 953 760 953 760 863.5 528 c 128,-1,90
 774 296 774 296 547 -16 c 1,91,-1
 506 0 l 1,92,93
 486 156 486 156 373 156 c 0,94,95
 272 156 272 156 138 -23 c 1,96,-1
 98 7 l 1,0,1
1610 1833 m 1,97,98
 1554 1727 1554 1727 1457 1682 c 0,99,100
 1426 1668 1426 1668 1375.5 1668 c 128,-1,101
 1325 1668 1325 1668 1226 1749 c 0,102,103
 1197 1773 1197 1773 1168 1792 c 128,-1,104
 1139 1811 1139 1811 1096.5 1811 c 128,-1,105
 1054 1811 1054 1811 1007 1774 c 128,-1,106
 960 1737 960 1737 930 1680 c 1,107,-1
 886 1704 l 1,108,109
 945 1816 945 1816 1041 1850 c 1,110,111
 1074 1862 1074 1862 1105 1862 c 0,112,113
 1148 1862 1148 1862 1186 1838 c 0,114,115
 1222 1815 1222 1815 1256 1788 c 128,-1,116
 1290 1761 1290 1761 1324.5 1739.5 c 0,117,118
 1360 1718 1360 1718 1390 1718 c 0,119,120
 1442 1718 1442 1718 1489.5 1760.5 c 128,-1,121
 1537 1803 1537 1803 1566 1857 c 1,122,-1
 1610 1833 l 1,97,98
EndSplineSet
EndChar

StartChar: Ograve
Encoding: 210 210 141
Width: 1659
Flags: HW
LayerCount: 2
Fore
SplineSet
214 1206 m 0,0,1
 214 1568 214 1568 788 1568 c 0,2,3
 1003 1568 1003 1568 1186 1462 c 0,4,5
 1462 1302 1462 1302 1550 995 c 0,6,7
 1578 895 1578 895 1578 786 c 256,8,9
 1578 462 1578 462 1348 230 c 0,10,11
 1202 84 1202 84 1000 28 c 0,12,13
 900 0 900 0 789 0 c 0,14,15
 568 0 568 0 381.5 114.5 c 128,-1,16
 195 229 195 229 97 416 c 1,17,-1
 141 440 l 1,18,19
 235 263 235 263 410 156.5 c 128,-1,20
 585 50 585 50 787.5 50 c 128,-1,21
 990 50 990 50 1159 147 c 128,-1,22
 1328 244 1328 244 1428 414.5 c 128,-1,23
 1528 585 1528 585 1528 786 c 256,24,25
 1528 986 1528 986 1428 1153 c 128,-1,26
 1328 1320 1328 1320 1158.5 1419 c 128,-1,27
 989 1518 989 1518 788 1518 c 0,28,29
 264 1518 264 1518 264 1208 c 0,30,31
 264 1086 264 1086 361 970 c 128,-1,32
 458 854 458 854 458 706 c 0,33,34
 458 616 458 616 394 553.5 c 128,-1,35
 330 491 330 491 242 491 c 256,36,37
 153 491 153 491 90 554 c 128,-1,38
 27 617 27 617 27 706 c 1,39,-1
 77 706 l 1,40,41
 77 638 77 638 125.5 589.5 c 128,-1,42
 174 541 174 541 242 541 c 256,43,44
 311 541 311 541 359.5 589.5 c 128,-1,45
 408 638 408 638 408 702.5 c 128,-1,46
 408 767 408 767 393.5 811 c 128,-1,47
 379 855 379 855 357.5 890 c 128,-1,48
 336 925 336 925 311 956 c 128,-1,49
 286 987 286 987 264 1022 c 0,50,51
 214 1104 214 1104 214 1206 c 0,0,1
545 1872 m 1,52,-1
 588 1931 l 1,53,-1
 866 1728 l 1,54,-1
 839 1684 l 1,55,-1
 545 1872 l 1,52,-1
EndSplineSet
EndChar

StartChar: Oacute
Encoding: 211 211 142
Width: 1659
Flags: HW
LayerCount: 2
Fore
SplineSet
214 1206 m 0,0,1
 214 1568 214 1568 788 1568 c 0,2,3
 1003 1568 1003 1568 1186 1462 c 0,4,5
 1462 1302 1462 1302 1550 995 c 0,6,7
 1578 895 1578 895 1578 786 c 256,8,9
 1578 462 1578 462 1348 230 c 0,10,11
 1202 84 1202 84 1000 28 c 0,12,13
 900 0 900 0 789 0 c 0,14,15
 568 0 568 0 381.5 114.5 c 128,-1,16
 195 229 195 229 97 416 c 1,17,-1
 141 440 l 1,18,19
 235 263 235 263 410 156.5 c 128,-1,20
 585 50 585 50 787.5 50 c 128,-1,21
 990 50 990 50 1159 147 c 128,-1,22
 1328 244 1328 244 1428 414.5 c 128,-1,23
 1528 585 1528 585 1528 786 c 256,24,25
 1528 986 1528 986 1428 1153 c 128,-1,26
 1328 1320 1328 1320 1158.5 1419 c 128,-1,27
 989 1518 989 1518 788 1518 c 0,28,29
 264 1518 264 1518 264 1208 c 0,30,31
 264 1086 264 1086 361 970 c 128,-1,32
 458 854 458 854 458 706 c 0,33,34
 458 616 458 616 394 553.5 c 128,-1,35
 330 491 330 491 242 491 c 256,36,37
 153 491 153 491 90 554 c 128,-1,38
 27 617 27 617 27 706 c 1,39,-1
 77 706 l 1,40,41
 77 638 77 638 125.5 589.5 c 128,-1,42
 174 541 174 541 242 541 c 256,43,44
 311 541 311 541 359.5 589.5 c 128,-1,45
 408 638 408 638 408 702.5 c 128,-1,46
 408 767 408 767 393.5 811 c 128,-1,47
 379 855 379 855 357.5 890 c 128,-1,48
 336 925 336 925 311 956 c 128,-1,49
 286 987 286 987 264 1022 c 0,50,51
 214 1104 214 1104 214 1206 c 0,0,1
782 1684 m 1,52,-1
 755 1728 l 1,53,-1
 1033 1931 l 1,54,-1
 1076 1872 l 1,55,-1
 782 1684 l 1,52,-1
EndSplineSet
EndChar

StartChar: Ocircumflex
Encoding: 212 212 143
Width: 1659
Flags: HW
LayerCount: 2
Fore
SplineSet
214 1206 m 0,0,1
 214 1568 214 1568 788 1568 c 0,2,3
 1003 1568 1003 1568 1186 1462 c 0,4,5
 1462 1302 1462 1302 1550 995 c 0,6,7
 1578 895 1578 895 1578 786 c 256,8,9
 1578 462 1578 462 1348 230 c 0,10,11
 1202 84 1202 84 1000 28 c 0,12,13
 900 0 900 0 789 0 c 0,14,15
 568 0 568 0 381.5 114.5 c 128,-1,16
 195 229 195 229 97 416 c 1,17,-1
 141 440 l 1,18,19
 235 263 235 263 410 156.5 c 128,-1,20
 585 50 585 50 787.5 50 c 128,-1,21
 990 50 990 50 1159 147 c 128,-1,22
 1328 244 1328 244 1428 414.5 c 128,-1,23
 1528 585 1528 585 1528 786 c 256,24,25
 1528 986 1528 986 1428 1153 c 128,-1,26
 1328 1320 1328 1320 1158.5 1419 c 128,-1,27
 989 1518 989 1518 788 1518 c 0,28,29
 264 1518 264 1518 264 1208 c 0,30,31
 264 1086 264 1086 361 970 c 128,-1,32
 458 854 458 854 458 706 c 0,33,34
 458 616 458 616 394 553.5 c 128,-1,35
 330 491 330 491 242 491 c 256,36,37
 153 491 153 491 90 554 c 128,-1,38
 27 617 27 617 27 706 c 1,39,-1
 77 706 l 1,40,41
 77 638 77 638 125.5 589.5 c 128,-1,42
 174 541 174 541 242 541 c 256,43,44
 311 541 311 541 359.5 589.5 c 128,-1,45
 408 638 408 638 408 702.5 c 128,-1,46
 408 767 408 767 393.5 811 c 128,-1,47
 379 855 379 855 357.5 890 c 128,-1,48
 336 925 336 925 311 956 c 128,-1,49
 286 987 286 987 264 1022 c 0,50,51
 214 1104 214 1104 214 1206 c 0,0,1
508 1726 m 1,52,-1
 774 1934 l 1,53,-1
 1106 1727 l 1,54,-1
 1080 1685 l 1,55,-1
 778 1873 l 1,56,57
 770 1866 770 1866 754 1854 c 2,58,-1
 538 1686 l 1,59,-1
 508 1726 l 1,52,-1
EndSplineSet
EndChar

StartChar: Otilde
Encoding: 213 213 144
Width: 1659
Flags: HW
LayerCount: 2
Fore
SplineSet
214 1206 m 0,0,1
 214 1568 214 1568 788 1568 c 0,2,3
 1003 1568 1003 1568 1186 1462 c 0,4,5
 1462 1302 1462 1302 1550 995 c 0,6,7
 1578 895 1578 895 1578 786 c 256,8,9
 1578 462 1578 462 1348 230 c 0,10,11
 1202 84 1202 84 1000 28 c 0,12,13
 900 0 900 0 789 0 c 0,14,15
 568 0 568 0 381.5 114.5 c 128,-1,16
 195 229 195 229 97 416 c 1,17,-1
 141 440 l 1,18,19
 235 263 235 263 410 156.5 c 128,-1,20
 585 50 585 50 787.5 50 c 128,-1,21
 990 50 990 50 1159 147 c 128,-1,22
 1328 244 1328 244 1428 414.5 c 128,-1,23
 1528 585 1528 585 1528 786 c 256,24,25
 1528 986 1528 986 1428 1153 c 128,-1,26
 1328 1320 1328 1320 1158.5 1419 c 128,-1,27
 989 1518 989 1518 788 1518 c 0,28,29
 264 1518 264 1518 264 1208 c 0,30,31
 264 1086 264 1086 361 970 c 128,-1,32
 458 854 458 854 458 706 c 0,33,34
 458 616 458 616 394 553.5 c 128,-1,35
 330 491 330 491 242 491 c 256,36,37
 153 491 153 491 90 554 c 128,-1,38
 27 617 27 617 27 706 c 1,39,-1
 77 706 l 1,40,41
 77 638 77 638 125.5 589.5 c 128,-1,42
 174 541 174 541 242 541 c 256,43,44
 311 541 311 541 359.5 589.5 c 128,-1,45
 408 638 408 638 408 702.5 c 128,-1,46
 408 767 408 767 393.5 811 c 128,-1,47
 379 855 379 855 357.5 890 c 128,-1,48
 336 925 336 925 311 956 c 128,-1,49
 286 987 286 987 264 1022 c 0,50,51
 214 1104 214 1104 214 1206 c 0,0,1
1162 1833 m 1,52,53
 1106 1727 1106 1727 1009 1682 c 0,54,55
 978 1668 978 1668 927.5 1668 c 128,-1,56
 877 1668 877 1668 778 1749 c 0,57,58
 749 1773 749 1773 720 1792 c 128,-1,59
 691 1811 691 1811 648.5 1811 c 128,-1,60
 606 1811 606 1811 559 1774 c 128,-1,61
 512 1737 512 1737 482 1680 c 1,62,-1
 438 1704 l 1,63,64
 497 1816 497 1816 593 1850 c 1,65,66
 626 1862 626 1862 657 1862 c 0,67,68
 700 1862 700 1862 738 1838 c 0,69,70
 774 1815 774 1815 808 1788 c 128,-1,71
 842 1761 842 1761 876.5 1739.5 c 0,72,73
 912 1718 912 1718 942 1718 c 0,74,75
 994 1718 994 1718 1041.5 1760.5 c 128,-1,76
 1089 1803 1089 1803 1118 1857 c 1,77,-1
 1162 1833 l 1,52,53
EndSplineSet
EndChar

StartChar: Odieresis
Encoding: 214 214 145
Width: 1659
Flags: HW
LayerCount: 2
Fore
SplineSet
214 1206 m 0,0,1
 214 1568 214 1568 788 1568 c 0,2,3
 1003 1568 1003 1568 1186 1462 c 0,4,5
 1462 1302 1462 1302 1550 995 c 0,6,7
 1578 895 1578 895 1578 786 c 256,8,9
 1578 462 1578 462 1348 230 c 0,10,11
 1202 84 1202 84 1000 28 c 0,12,13
 900 0 900 0 789 0 c 0,14,15
 568 0 568 0 381.5 114.5 c 128,-1,16
 195 229 195 229 97 416 c 1,17,-1
 141 440 l 1,18,19
 235 263 235 263 410 156.5 c 128,-1,20
 585 50 585 50 787.5 50 c 128,-1,21
 990 50 990 50 1159 147 c 128,-1,22
 1328 244 1328 244 1428 414.5 c 128,-1,23
 1528 585 1528 585 1528 786 c 256,24,25
 1528 986 1528 986 1428 1153 c 128,-1,26
 1328 1320 1328 1320 1158.5 1419 c 128,-1,27
 989 1518 989 1518 788 1518 c 0,28,29
 264 1518 264 1518 264 1208 c 0,30,31
 264 1086 264 1086 361 970 c 128,-1,32
 458 854 458 854 458 706 c 0,33,34
 458 616 458 616 394 553.5 c 128,-1,35
 330 491 330 491 242 491 c 256,36,37
 153 491 153 491 90 554 c 128,-1,38
 27 617 27 617 27 706 c 1,39,-1
 77 706 l 1,40,41
 77 638 77 638 125.5 589.5 c 128,-1,42
 174 541 174 541 242 541 c 256,43,44
 311 541 311 541 359.5 589.5 c 128,-1,45
 408 638 408 638 408 702.5 c 128,-1,46
 408 767 408 767 393.5 811 c 128,-1,47
 379 855 379 855 357.5 890 c 128,-1,48
 336 925 336 925 311 956 c 128,-1,49
 286 987 286 987 264 1022 c 0,50,51
 214 1104 214 1104 214 1206 c 0,0,1
991 1679 m 1,52,-1
 944 1694 l 1,53,-1
 1020 1876 l 1,54,-1
 1081 1851 l 1,55,-1
 991 1679 l 1,52,-1
712 1679 m 1,56,-1
 665 1694 l 1,57,-1
 741 1876 l 1,58,-1
 802 1851 l 1,59,-1
 712 1679 l 1,56,-1
EndSplineSet
EndChar

StartChar: multiply
Encoding: 215 215 146
Width: 946
Flags: HW
LayerCount: 2
Fore
SplineSet
166 1016 m 1,0,-1
 472 777 l 1,1,-1
 779 1016 l 1,2,-1
 809 976 l 1,3,-1
 513 746 l 1,4,-1
 809 516 l 1,5,-1
 779 476 l 1,6,-1
 472 714 l 1,7,-1
 166 476 l 1,8,-1
 136 516 l 1,9,-1
 432 746 l 1,10,-1
 136 976 l 1,11,-1
 166 1016 l 1,0,-1
EndSplineSet
EndChar

StartChar: Oslash
Encoding: 216 216 147
Width: 1663
Flags: HW
LayerCount: 2
Fore
SplineSet
794 0 m 0,0,1
 492 0 492 0 269 200 c 1,2,-1
 72 4 l 1,3,-1
 36 40 l 1,4,-1
 232 235 l 1,5,6
 146 325 146 325 100 416 c 1,7,-1
 144 440 l 1,8,9
 193 347 193 347 268 271 c 1,10,-1
 1310 1307 l 1,11,12
 1095 1518 1095 1518 791 1518 c 0,13,14
 267 1518 267 1518 267 1208 c 0,15,16
 267 1086 267 1086 364 970 c 128,-1,17
 461 854 461 854 461 706 c 1,18,19
 462 616 462 616 398 553.5 c 128,-1,20
 334 491 334 491 245 491 c 256,21,22
 156 491 156 491 93 554 c 128,-1,23
 30 617 30 617 30 706 c 1,24,-1
 80 706 l 1,25,26
 80 638 80 638 128.5 589.5 c 128,-1,27
 177 541 177 541 245 541 c 256,28,29
 314 541 314 541 362.5 589.5 c 128,-1,30
 411 638 411 638 411 702.5 c 0,31,32
 410 767 410 767 396 811 c 0,33,34
 372 883 372 883 331 935 c 128,-1,35
 290 987 290 987 268 1022 c 0,36,37
 218 1104 218 1104 217 1206 c 1,38,39
 217 1568 217 1568 791 1568 c 0,40,41
 954 1568 954 1568 1096 1508 c 128,-1,42
 1238 1448 1238 1448 1346 1343 c 1,43,-1
 1540 1536 l 1,44,-1
 1576 1500 l 1,45,-1
 1381 1306 l 1,46,47
 1581 1086 1581 1086 1581 775 c 0,48,49
 1581 462 1581 462 1350 230 c 0,50,51
 1206 84 1206 84 1004 28 c 0,52,53
 904 0 904 0 794 0 c 0,0,1
305 235 m 1,54,55
 513 50 513 50 794 50 c 0,56,57
 993 50 993 50 1162 147 c 128,-1,58
 1331 244 1331 244 1431 414.5 c 128,-1,59
 1531 585 1531 585 1531 786 c 0,60,61
 1531 1065 1531 1065 1346 1271 c 1,62,-1
 305 235 l 1,54,55
EndSplineSet
EndChar

StartChar: Ugrave
Encoding: 217 217 148
Width: 1155
Flags: HW
LayerCount: 2
Fore
SplineSet
1017 -25 m 1,0,1
 901 50 901 50 901 207 c 2,2,-1
 901 401 l 1,3,-1
 354 -28 l 1,4,5
 253 84 253 84 217 151 c 0,6,7
 141 290 141 290 141 434.5 c 0,8,9
 141 580 141 580 194 854 c 0,10,11
 247 1126 247 1126 247 1237 c 0,12,13
 247 1349 247 1349 215 1410 c 0,14,15
 184 1470 184 1470 114 1527 c 1,16,-1
 144 1567 l 1,17,18
 224 1505 224 1505 260.5 1434.5 c 128,-1,19
 297 1364 297 1364 297 1268 c 0,20,21
 297 1142 297 1142 244 856 c 128,-1,22
 191 570 191 570 191 469 c 0,23,24
 191 315 191 315 248 201 c 0,25,26
 282 134 282 134 361 41 c 1,27,28
 376 52 376 52 418 86 c 2,29,-1
 901 465 l 1,30,-1
 901 1537 l 1,31,-1
 951 1537 l 1,32,-1
 951 207 l 2,33,34
 951 106 951 106 1012 44 c 0,35,36
 1029 26 1029 26 1045 17 c 1,37,-1
 1017 -25 l 1,0,1
455 1872 m 1,38,-1
 498 1931 l 1,39,-1
 776 1728 l 1,40,-1
 749 1684 l 1,41,-1
 455 1872 l 1,38,-1
EndSplineSet
EndChar

StartChar: Uacute
Encoding: 218 218 149
Width: 1155
Flags: HW
LayerCount: 2
Fore
SplineSet
1017 -25 m 1,0,1
 901 50 901 50 901 207 c 2,2,-1
 901 401 l 1,3,-1
 354 -28 l 1,4,5
 253 84 253 84 217 151 c 0,6,7
 141 290 141 290 141 434.5 c 0,8,9
 141 580 141 580 194 854 c 0,10,11
 247 1126 247 1126 247 1237 c 0,12,13
 247 1349 247 1349 215 1410 c 0,14,15
 184 1470 184 1470 114 1527 c 1,16,-1
 144 1567 l 1,17,18
 224 1505 224 1505 260.5 1434.5 c 128,-1,19
 297 1364 297 1364 297 1268 c 0,20,21
 297 1142 297 1142 244 856 c 128,-1,22
 191 570 191 570 191 469 c 0,23,24
 191 315 191 315 248 201 c 0,25,26
 282 134 282 134 361 41 c 1,27,28
 376 52 376 52 418 86 c 2,29,-1
 901 465 l 1,30,-1
 901 1537 l 1,31,-1
 951 1537 l 1,32,-1
 951 207 l 2,33,34
 951 106 951 106 1012 44 c 0,35,36
 1029 26 1029 26 1045 17 c 1,37,-1
 1017 -25 l 1,0,1
482 1684 m 1,38,-1
 455 1728 l 1,39,-1
 733 1931 l 1,40,-1
 776 1872 l 1,41,-1
 482 1684 l 1,38,-1
EndSplineSet
EndChar

StartChar: Ucircumflex
Encoding: 219 219 150
Width: 1155
Flags: HW
LayerCount: 2
Fore
SplineSet
1017 -25 m 1,0,1
 901 50 901 50 901 207 c 2,2,-1
 901 401 l 1,3,-1
 354 -28 l 1,4,5
 253 84 253 84 217 151 c 0,6,7
 141 290 141 290 141 434.5 c 0,8,9
 141 580 141 580 194 854 c 0,10,11
 247 1126 247 1126 247 1237 c 0,12,13
 247 1349 247 1349 215 1410 c 0,14,15
 184 1470 184 1470 114 1527 c 1,16,-1
 144 1567 l 1,17,18
 224 1505 224 1505 260.5 1434.5 c 128,-1,19
 297 1364 297 1364 297 1268 c 0,20,21
 297 1142 297 1142 244 856 c 128,-1,22
 191 570 191 570 191 469 c 0,23,24
 191 315 191 315 248 201 c 0,25,26
 282 134 282 134 361 41 c 1,27,28
 376 52 376 52 418 86 c 2,29,-1
 901 465 l 1,30,-1
 901 1537 l 1,31,-1
 951 1537 l 1,32,-1
 951 207 l 2,33,34
 951 106 951 106 1012 44 c 0,35,36
 1029 26 1029 26 1045 17 c 1,37,-1
 1017 -25 l 1,0,1
265 1726 m 1,38,-1
 531 1934 l 1,39,-1
 863 1727 l 1,40,-1
 837 1685 l 1,41,-1
 535 1873 l 1,42,-1
 295 1686 l 1,43,-1
 265 1726 l 1,38,-1
EndSplineSet
EndChar

StartChar: Udieresis
Encoding: 220 220 151
Width: 1155
Flags: HW
LayerCount: 2
Fore
SplineSet
1017 -25 m 1,0,1
 901 50 901 50 901 207 c 2,2,-1
 901 401 l 1,3,-1
 354 -28 l 1,4,5
 253 84 253 84 217 151 c 0,6,7
 141 290 141 290 141 434.5 c 0,8,9
 141 580 141 580 194 854 c 0,10,11
 247 1126 247 1126 247 1237 c 0,12,13
 247 1349 247 1349 215 1410 c 0,14,15
 184 1470 184 1470 114 1527 c 1,16,-1
 144 1567 l 1,17,18
 224 1505 224 1505 260.5 1434.5 c 128,-1,19
 297 1364 297 1364 297 1268 c 0,20,21
 297 1142 297 1142 244 856 c 128,-1,22
 191 570 191 570 191 469 c 0,23,24
 191 315 191 315 248 201 c 0,25,26
 282 134 282 134 361 41 c 1,27,28
 376 52 376 52 418 86 c 2,29,-1
 901 465 l 1,30,-1
 901 1537 l 1,31,-1
 951 1537 l 1,32,-1
 951 207 l 2,33,34
 951 106 951 106 1012 44 c 0,35,36
 1029 26 1029 26 1045 17 c 1,37,-1
 1017 -25 l 1,0,1
733 1679 m 1,38,-1
 686 1694 l 1,39,-1
 762 1876 l 1,40,-1
 823 1851 l 1,41,-1
 733 1679 l 1,38,-1
454 1679 m 1,42,-1
 407 1694 l 1,43,-1
 483 1876 l 1,44,-1
 544 1851 l 1,45,-1
 454 1679 l 1,42,-1
EndSplineSet
EndChar

